<svg xmlns="http://www.w3.org/2000/svg" version="1.1" width="1024" height="764">
<rect x="0" y="0" width="1024" height="764" fill="#606263" />
<g transform="scale(4.000000) translate(0.5 0.5)">
<polygon fill="#dcffff" fill-opacity="0.501961" points="109,-16 -16,21 231,15" />
<polygon fill="#201e19" fill-opacity="0.501961" points="-16,50 27,206 156,3" />
<polygon fill="#e1ffff" fill-opacity="0.501961" points="265,-16 108,-1 267,34" />
<polygon fill="#bef6ff" fill-opacity="0.501961" points="142,4 -15,-13 10,26" />
<polygon fill="#7f8889" fill-opacity="0.501961" points="110,85 215,206 61,206" />
<polygon fill="#1c1f1a" fill-opacity="0.501961" points="-16,180 -16,63 97,120" />
<polygon fill="#594b43" fill-opacity="0.501961" points="136,5 147,197 271,44" />
<polygon fill="#a1d8ff" fill-opacity="0.501961" points="235,24 111,0 271,-13" />
<polygon fill="#abd3ff" fill-opacity="0.501961" points="83,24 186,-16 -16,4" />
<polygon fill="#8b766e" fill-opacity="0.501961" points="135,142 102,45 138,2" />
<polygon fill="#b9dcf7" fill-opacity="0.501961" points="199,201 154,158 242,206" />
<polygon fill="#b1d6ef" fill-opacity="0.501961" points="115,147 88,186 42,206" />
<polygon fill="#2b2e2b" fill-opacity="0.501961" points="221,29 223,125 271,73" />
<polygon fill="#ffbd4f" fill-opacity="0.501961" points="229,24 271,51 271,10" />
<polygon fill="#9b8c7c" fill-opacity="0.501961" points="216,127 271,174 214,206" />
<polygon fill="#251e24" fill-opacity="0.501961" points="6,18 -16,47 38,37" />
<polygon fill="#3e4137" fill-opacity="0.501961" points="-16,170 114,68 54,206" />
<polygon fill="#84716b" fill-opacity="0.501961" points="215,72 171,91 154,11" />
<polygon fill="#b1d8ff" fill-opacity="0.501961" points="-16,-16 105,19 -5,18" />
<polygon fill="#3e4d3d" fill-opacity="0.501961" points="254,170 135,145 197,181" />
<polygon fill="#887674" fill-opacity="0.501961" points="11,145 15,178 37,166" />
<polygon fill="#595959" fill-opacity="0.501961" points="-2,48 162,50 65,86" />
<polygon fill="#2f2f28" fill-opacity="0.501961" points="127,116 116,131 126,167" />
<polygon fill="#a48b7d" fill-opacity="0.501961" points="127,58 133,106 82,144" />
<polygon fill="#7593a0" fill-opacity="0.501961" points="168,168 140,193 144,146" />
<polygon fill="#736c5d" fill-opacity="0.501961" points="263,145 83,144 170,106" />
<polygon fill="#2e2f2a" fill-opacity="0.501961" points="172,108 131,82 160,70" />
<polygon fill="#a8d1ff" fill-opacity="0.501961" points="226,25 135,-16 271,5" />
<polygon fill="#1a201d" fill-opacity="0.501961" points="46,75 41,161 -16,135" />
<polygon fill="#4d4344" fill-opacity="0.501961" points="107,13 84,40 171,14" />
<polygon fill="#544f51" fill-opacity="0.501961" points="37,19 125,26 0,57" />
<polygon fill="#a7938d" fill-opacity="0.501961" points="256,206 262,173 196,183" />
<polygon fill="#515045" fill-opacity="0.501961" points="163,103 271,146 263,82" />
<polygon fill="#90827b" fill-opacity="0.501961" points="149,63 129,73 161,26" />
<polygon fill="#a5cbfe" fill-opacity="0.501961" points="36,-16 153,-1 76,24" />
<polygon fill="#705c56" fill-opacity="0.501961" points="203,20 171,92 239,25" />
<polygon fill="#645548" fill-opacity="0.501961" points="98,154 85,128 47,206" />
<polygon fill="#0a0f10" fill-opacity="0.501961" points="264,81 233,68 263,58" />
<polygon fill="#a5cbff" fill-opacity="0.501961" points="207,22 149,9 163,-16" />
<polygon fill="#b8dfff" fill-opacity="0.501961" points="-15,4 23,26 40,17" />
<polygon fill="#816d68" fill-opacity="0.501961" points="101,56 88,52 73,90" />
<polygon fill="#566f78" fill-opacity="0.501961" points="138,151 78,192 211,206" />
<polygon fill="#fac57c" fill-opacity="0.501961" points="256,35 235,31 271,-3" />
<polygon fill="#333a33" fill-opacity="0.501961" points="185,171 172,139 153,155" />
<polygon fill="#3b3c39" fill-opacity="0.501961" points="102,108 106,26 59,156" />
<polygon fill="#131c22" fill-opacity="0.501961" points="128,148 124,169 120,145" />
<polygon fill="#1b2315" fill-opacity="0.501961" points="240,145 254,155 271,148" />
<polygon fill="#867a72" fill-opacity="0.501961" points="198,114 201,161 252,156" />
<polygon fill="#71645e" fill-opacity="0.501961" points="52,18 50,28 87,26" />
<polygon fill="#acd7ff" fill-opacity="0.501961" points="222,25 211,6 271,7" />
<polygon fill="#453c3e" fill-opacity="0.501961" points="169,20 142,46 147,9" />
<polygon fill="#0c0c0f" fill-opacity="0.501961" points="231,49 223,31 224,67" />
<polygon fill="#addaff" fill-opacity="0.501961" points="98,12 130,11 133,0" />
<polygon fill="#40332f" fill-opacity="0.501961" points="138,133 147,139 142,102" />
<polygon fill="#a5867a" fill-opacity="0.501961" points="85,133 106,152 107,107" />
<polygon fill="#465e6d" fill-opacity="0.501961" points="93,206 117,148 79,196" />
<polygon fill="#907f77" fill-opacity="0.501961" points="105,134 104,84 129,62" />
<polygon fill="#5c5d57" fill-opacity="0.501961" points="123,96 101,147 136,136" />
<polygon fill="#242d28" fill-opacity="0.501961" points="195,86 194,114 208,109" />
<polygon fill="#7d7772" fill-opacity="0.501961" points="169,92 167,73 234,66" />
<polygon fill="#343837" fill-opacity="0.501961" points="63,105 95,31 66,39" />
<polygon fill="#b09f9f" fill-opacity="0.501961" points="118,53 122,40 110,54" />
<polygon fill="#3c333b" fill-opacity="0.501961" points="-8,19 11,19 32,40" />
<polygon fill="#3b3d32" fill-opacity="0.501961" points="3,173 73,181 5,199" />
<polygon fill="#272a2c" fill-opacity="0.501961" points="94,83 121,57 120,69" />
<polygon fill="#2d2e2e" fill-opacity="0.501961" points="-16,125 43,74 76,93" />
<polygon fill="#7e929b" fill-opacity="0.501961" points="109,197 103,146 121,142" />
<polygon fill="#8d847e" fill-opacity="0.501961" points="99,113 127,69 140,118" />
<polygon fill="#08100c" fill-opacity="0.501961" points="20,141 -7,127 25,118" />
<polygon fill="#a6caf3" fill-opacity="0.501961" points="135,4 -3,20 2,-16" />
<polygon fill="#88736d" fill-opacity="0.501961" points="-10,150 15,153 -10,137" />
<polygon fill="#9d887c" fill-opacity="0.501961" points="209,93 201,80 212,82" />
<polygon fill="#675857" fill-opacity="0.501961" points="150,31 114,65 134,5" />
<polygon fill="#393d40" fill-opacity="0.501961" points="25,39 52,19 53,74" />
<polygon fill="#8a746b" fill-opacity="0.501961" points="113,145 71,148 89,165" />
<polygon fill="#a8c0cd" fill-opacity="0.501961" points="151,162 167,167 140,149" />
<polygon fill="#606062" fill-opacity="0.501961" points="234,65 270,52 271,14" />
<polygon fill="#706362" fill-opacity="0.501961" points="66,44 45,62 68,63" />
<polygon fill="#616d60" fill-opacity="0.501961" points="271,164 221,179 198,160" />
<polygon fill="#544843" fill-opacity="0.501961" points="246,32 254,52 212,34" />
<polygon fill="#2b2e2b" fill-opacity="0.501961" points="131,56 142,57 146,42" />
<polygon fill="#493b35" fill-opacity="0.501961" points="139,98 133,71 162,64" />
<polygon fill="#182225" fill-opacity="0.501961" points="15,71 16,56 -16,54" />
<polygon fill="#616e71" fill-opacity="0.501961" points="-2,53 25,47 48,56" />
<polygon fill="#63645f" fill-opacity="0.501961" points="91,86 91,112 82,118" />
<polygon fill="#bcedff" fill-opacity="0.501961" points="63,16 69,17 62,23" />
<polygon fill="#1b2423" fill-opacity="0.501961" points="45,155 63,177 35,163" />
<polygon fill="#55574e" fill-opacity="0.501961" points="206,145 271,76 202,101" />
<polygon fill="#a38075" fill-opacity="0.501961" points="175,81 172,61 162,80" />
<polygon fill="#2c2d2e" fill-opacity="0.501961" points="210,104 250,62 225,72" />
<polygon fill="#7f766c" fill-opacity="0.501961" points="168,142 204,118 186,112" />
<polygon fill="#635351" fill-opacity="0.501961" points="165,12 161,26 215,33" />
<polygon fill="#8f7d78" fill-opacity="0.501961" points="211,30 204,38 211,60" />
<polygon fill="#5c524f" fill-opacity="0.501961" points="233,23 225,31 233,60" />
<polygon fill="#a4c9fb" fill-opacity="0.501961" points="181,18 271,-1 107,-16" />
<polygon fill="#b5dcff" fill-opacity="0.501961" points="101,20 96,9 71,20" />
<polygon fill="#504d4c" fill-opacity="0.501961" points="105,18 86,51 76,24" />
<polygon fill="#464e4d" fill-opacity="0.501961" points="152,190 160,170 152,161" />
<polygon fill="#4c564a" fill-opacity="0.501961" points="179,163 170,122 213,178" />
<polygon fill="#28302b" fill-opacity="0.501961" points="50,139 103,104 64,151" />
<polygon fill="#777668" fill-opacity="0.501961" points="231,130 159,139 210,155" />
<polygon fill="#635551" fill-opacity="0.501961" points="174,82 224,58 184,34" />
<polygon fill="#283234" fill-opacity="0.501961" points="105,22 124,22 136,11" />
<polygon fill="#74675f" fill-opacity="0.501961" points="136,146 160,158 159,141" />
<polygon fill="#617279" fill-opacity="0.501961" points="140,154 128,155 122,129" />
<polygon fill="#80766e" fill-opacity="0.501961" points="103,86 144,130 117,70" />
<polygon fill="#6a5652" fill-opacity="0.501961" points="40,122 49,118 48,107" />
<polygon fill="#867f75" fill-opacity="0.501961" points="226,124 227,107 233,126" />
<polygon fill="#a6cbed" fill-opacity="0.501961" points="101,-15 12,-12 48,21" />
<polygon fill="#3a3c3f" fill-opacity="0.501961" points="-16,33 32,24 12,53" />
<polygon fill="#7d8c95" fill-opacity="0.501961" points="132,206 151,195 149,160" />
<polygon fill="#5e5e56" fill-opacity="0.501961" points="61,155 49,162 45,146" />
<polygon fill="#a0b7c5" fill-opacity="0.501961" points="165,178 177,200 169,199" />
<polygon fill="#646b69" fill-opacity="0.501961" points="136,101 174,88 157,100" />
<polygon fill="#66635f" fill-opacity="0.501961" points="82,91 62,80 81,100" />
<polygon fill="#788071" fill-opacity="0.501961" points="217,175 249,159 239,178" />
<polygon fill="#b4daff" fill-opacity="0.501961" points="183,5 157,12 146,5" />
<polygon fill="#3e433a" fill-opacity="0.501961" points="77,150 71,141 95,139" />
<polygon fill="#9db4c3" fill-opacity="0.501961" points="164,164 171,175 155,161" />
<polygon fill="#b8ddff" fill-opacity="0.501961" points="17,24 -5,5 33,21" />
<polygon fill="#665455" fill-opacity="0.501961" points="26,160 13,206 9,170" />
<polygon fill="#463f3c" fill-opacity="0.501961" points="138,88 158,118 140,112" />
<polygon fill="#7d7768" fill-opacity="0.501961" points="84,68 72,72 78,83" />
<polygon fill="#908a8a" fill-opacity="0.501961" points="112,39 120,29 128,28" />
<polygon fill="#5f4d4a" fill-opacity="0.501961" points="190,40 214,21 177,20" />
<polygon fill="#5e5953" fill-opacity="0.501961" points="65,150 65,187 97,159" />
<polygon fill="#373d3e" fill-opacity="0.501961" points="173,107 196,114 177,91" />
<polygon fill="#b0daff" fill-opacity="0.501961" points="196,20 238,19 190,7" />
<polygon fill="#525151" fill-opacity="0.501961" points="-16,52 19,78 8,83" />
<polygon fill="#8fa9b9" fill-opacity="0.501961" points="96,169 89,171 93,190" />
<polygon fill="#1e1e1e" fill-opacity="0.501961" points="65,81 71,77 87,88" />
<polygon fill="#202121" fill-opacity="0.501961" points="-16,108 -16,138 33,66" />
<polygon fill="#34393a" fill-opacity="0.501961" points="237,105 226,102 239,127" />
<polygon fill="#1b2427" fill-opacity="0.501961" points="40,57 17,55 29,61" />
<polygon fill="#243523" fill-opacity="0.501961" points="20,206 23,174 42,171" />
<polygon fill="#394539" fill-opacity="0.501961" points="-4,135 40,147 11,151" />
<polygon fill="#897d76" fill-opacity="0.501961" points="142,33 153,30 135,26" />
<polygon fill="#14201f" fill-opacity="0.501961" points="145,90 152,72 150,91" />
<polygon fill="#000002" fill-opacity="0.501961" points="127,151 122,147 123,159" />
<polygon fill="#61757c" fill-opacity="0.501961" points="125,150 133,178 154,161" />
<polygon fill="#957371" fill-opacity="0.501961" points="-13,184 -2,173 8,186" />
<polygon fill="#372623" fill-opacity="0.501961" points="9,178 7,155 -16,170" />
<polygon fill="#978581" fill-opacity="0.501961" points="202,44 198,38 195,53" />
<polygon fill="#99827b" fill-opacity="0.501961" points="138,130 128,130 139,102" />
<polygon fill="#6e6159" fill-opacity="0.501961" points="265,60 270,139 238,122" />
<polygon fill="#7b6e6b" fill-opacity="0.501961" points="183,37 177,18 146,44" />
<polygon fill="#9e8e88" fill-opacity="0.501961" points="190,103 191,94 195,94" />
<polygon fill="#718089" fill-opacity="0.501961" points="40,68 32,69 24,61" />
<polygon fill="#3b433a" fill-opacity="0.501961" points="188,147 203,158 170,148" />
<polygon fill="#828181" fill-opacity="0.501961" points="73,175 59,178 72,170" />
<polygon fill="#737e71" fill-opacity="0.501961" points="186,173 200,169 184,167" />
<polygon fill="#1e2426" fill-opacity="0.501961" points="204,175 197,180 192,176" />
<polygon fill="#9b918b" fill-opacity="0.501961" points="153,79 157,81 153,85" />
<polygon fill="#4b5444" fill-opacity="0.501961" points="193,127 196,142 181,115" />
<polygon fill="#625252" fill-opacity="0.501961" points="12,22 14,41 2,25" />
<polygon fill="#2c2d33" fill-opacity="0.501961" points="89,48 67,47 81,65" />
<polygon fill="#1d272e" fill-opacity="0.501961" points="57,51 52,43 37,54" />
<polygon fill="#343635" fill-opacity="0.501961" points="242,54 251,58 250,38" />
<polygon fill="#3e3a31" fill-opacity="0.501961" points="112,132 109,147 108,135" />
<polygon fill="#3d4a4f" fill-opacity="0.501961" points="87,205 102,171 104,192" />
<polygon fill="#7e6c68" fill-opacity="0.501961" points="135,5 144,7 135,28" />
<polygon fill="#877571" fill-opacity="0.501961" points="162,141 157,119 173,140" />
<polygon fill="#4d4744" fill-opacity="0.501961" points="86,119 68,93 103,61" />
<polygon fill="#8daab7" fill-opacity="0.501961" points="233,67 239,63 227,67" />
<polygon fill="#44423e" fill-opacity="0.501961" points="194,90 187,85 211,76" />
<polygon fill="#7a6f6d" fill-opacity="0.501961" points="271,55 248,60 255,38" />
<polygon fill="#abd7ff" fill-opacity="0.501961" points="135,1 126,12 111,7" />
<polygon fill="#514944" fill-opacity="0.501961" points="151,134 127,132 116,141" />
<polygon fill="#93827b" fill-opacity="0.501961" points="142,55 153,58 149,44" />
<polygon fill="#8e8183" fill-opacity="0.501961" points="117,36 126,38 116,51" />
<polygon fill="#465b68" fill-opacity="0.501961" points="109,167 104,163 117,150" />
<polygon fill="#3b3539" fill-opacity="0.501961" points="153,33 141,9 151,10" />
<polygon fill="#b7defd" fill-opacity="0.501961" points="223,25 210,12 243,19" />
<polygon fill="#4c3f43" fill-opacity="0.501961" points="128,30 142,30 134,43" />
<polygon fill="#222e2a" fill-opacity="0.501961" points="169,165 179,160 156,155" />
<polygon fill="#e8bf74" fill-opacity="0.501961" points="246,18 243,33 234,32" />
<polygon fill="#ad978d" fill-opacity="0.501961" points="128,67 122,76 132,100" />
<polygon fill="#524e4e" fill-opacity="0.501961" points="69,38 69,20 20,53" />
<polygon fill="#705d55" fill-opacity="0.501961" points="130,68 131,89 149,71" />
<polygon fill="#99a4a5" fill-opacity="0.501961" points="194,80 185,80 180,87" />
<polygon fill="#505048" fill-opacity="0.501961" points="129,139 121,119 128,105" />
<polygon fill="#000306" fill-opacity="0.501961" points="229,60 222,67 233,62" />
<polygon fill="#9aadb6" fill-opacity="0.501961" points="159,167 182,173 147,153" />
<polygon fill="#5b5051" fill-opacity="0.501961" points="36,19 37,48 45,21" />
<polygon fill="#8c7b74" fill-opacity="0.501961" points="204,95 199,86 207,83" />
<polygon fill="#b1d7fb" fill-opacity="0.501961" points="51,18 -2,19 -16,-11" />
<polygon fill="#967e81" fill-opacity="0.501961" points="242,169 245,152 219,130" />
<polygon fill="#62534f" fill-opacity="0.501961" points="180,17 212,36 236,28" />
<polygon fill="#4c524b" fill-opacity="0.501961" points="159,142 184,170 182,141" />
<polygon fill="#1e1f22" fill-opacity="0.501961" points="178,133 170,126 175,127" />
<polygon fill="#7d888a" fill-opacity="0.501961" points="234,58 230,53 228,59" />
<polygon fill="#484a46" fill-opacity="0.501961" points="80,27 58,79 77,76" />
<polygon fill="#5e504d" fill-opacity="0.501961" points="45,23 60,21 54,18" />
<polygon fill="#96aebe" fill-opacity="0.501961" points="80,196 40,206 100,165" />
<polygon fill="#765a5b" fill-opacity="0.501961" points="265,187 240,186 271,176" />
<polygon fill="#add3fa" fill-opacity="0.501961" points="37,10 128,6 80,22" />
<polygon fill="#78635b" fill-opacity="0.501961" points="223,64 191,81 167,60" />
<polygon fill="#373635" fill-opacity="0.501961" points="33,111 28,80 -12,82" />
<polygon fill="#4a4d44" fill-opacity="0.501961" points="215,73 210,125 226,129" />
<polygon fill="#e7b677" fill-opacity="0.501961" points="234,24 271,42 258,12" />
</g>
</svg>