<svg xmlns="http://www.w3.org/2000/svg" version="1.1" width="1024" height="768">
<rect x="0" y="0" width="1024" height="768" fill="#786c67" />
<g transform="scale(4.000000) translate(0.5 0.5)">
<polygon fill="#d0ffff" fill-opacity="0.501961" points="-16,52 10,-16 262,41" />
<polygon fill="#040000" fill-opacity="0.501961" points="210,143 147,28 -16,141" />
<polygon fill="#1a0000" fill-opacity="0.501961" points="142,207 151,29 95,175" />
<polygon fill="#8aabd4" fill-opacity="0.501961" points="112,-16 86,88 271,12" />
<polygon fill="#f38c4e" fill-opacity="0.501961" points="104,207 -16,177 99,128" />
<polygon fill="#2f3331" fill-opacity="0.501961" points="-12,165 131,56 1,45" />
<polygon fill="#bfb09b" fill-opacity="0.501961" points="247,122 169,93 271,-5" />
<polygon fill="#ce7843" fill-opacity="0.501961" points="248,121 266,202 125,163" />
<polygon fill="#dee5f8" fill-opacity="0.501961" points="-16,53 115,4 -10,-16" />
<polygon fill="#140100" fill-opacity="0.501961" points="164,171 135,22 171,77" />
<polygon fill="#bbb49e" fill-opacity="0.501961" points="17,95 -2,55 40,52" />
<polygon fill="#ba877a" fill-opacity="0.501961" points="88,73 99,135 121,73" />
<polygon fill="#2e1f1b" fill-opacity="0.501961" points="130,123 243,160 195,94" />
<polygon fill="#99b4d7" fill-opacity="0.501961" points="248,-16 271,47 153,48" />
<polygon fill="#250100" fill-opacity="0.501961" points="217,186 164,177 159,207" />
<polygon fill="#a1bad6" fill-opacity="0.501961" points="168,-11 129,54 -16,41" />
<polygon fill="#282e37" fill-opacity="0.501961" points="175,50 159,77 250,48" />
<polygon fill="#cdd7db" fill-opacity="0.501961" points="160,30 168,65 149,60" />
<polygon fill="#fea76c" fill-opacity="0.501961" points="110,182 125,207 114,143" />
<polygon fill="#ffbf81" fill-opacity="0.501961" points="132,157 134,185 123,194" />
<polygon fill="#180d0e" fill-opacity="0.501961" points="187,135 109,48 123,156" />
<polygon fill="#000000" fill-opacity="0.501961" points="113,145 108,203 97,142" />
<polygon fill="#070000" fill-opacity="0.501961" points="149,73 152,35 133,34" />
<polygon fill="#12161c" fill-opacity="0.501961" points="87,79 -7,148 96,133" />
<polygon fill="#f2a476" fill-opacity="0.501961" points="48,152 52,138 87,136" />
<polygon fill="#da946d" fill-opacity="0.501961" points="161,143 182,167 229,137" />
<polygon fill="#7295bd" fill-opacity="0.501961" points="261,-16 61,30 200,35" />
<polygon fill="#000000" fill-opacity="0.501961" points="119,194 136,126 118,147" />
<polygon fill="#da996f" fill-opacity="0.501961" points="180,176 244,154 271,202" />
<polygon fill="#2c2a2b" fill-opacity="0.501961" points="46,152 48,45 8,134" />
<polygon fill="#080000" fill-opacity="0.501961" points="165,182 152,175 170,164" />
<polygon fill="#2d0700" fill-opacity="0.501961" points="205,168 194,165 215,146" />
<polygon fill="#673e43" fill-opacity="0.501961" points="113,62 101,141 126,141" />
<polygon fill="#b8cacf" fill-opacity="0.501961" points="111,42 134,67 135,30" />
<polygon fill="#987d64" fill-opacity="0.501961" points="165,108 247,81 173,75" />
<polygon fill="#ede8df" fill-opacity="0.501961" points="74,21 12,-16 130,16" />
<polygon fill="#b5734c" fill-opacity="0.501961" points="18,139 118,193 -16,190" />
<polygon fill="#dc9d78" fill-opacity="0.501961" points="55,194 98,137 102,165" />
<polygon fill="#df9367" fill-opacity="0.501961" points="196,178 174,181 165,138" />
<polygon fill="#d58051" fill-opacity="0.501961" points="149,138 142,207 166,200" />
<polygon fill="#759dc8" fill-opacity="0.501961" points="-10,13 66,32 10,33" />
<polygon fill="#d9c6a7" fill-opacity="0.501961" points="271,88 237,54 224,73" />
<polygon fill="#060000" fill-opacity="0.501961" points="230,146 212,153 237,158" />
<polygon fill="#383333" fill-opacity="0.501961" points="24,46 67,48 87,88" />
<polygon fill="#030000" fill-opacity="0.501961" points="127,132 148,148 139,171" />
<polygon fill="#37392e" fill-opacity="0.501961" points="222,85 247,85 216,71" />
<polygon fill="#bb9782" fill-opacity="0.501961" points="99,91 80,62 123,94" />
<polygon fill="#7996b7" fill-opacity="0.501961" points="271,5 69,-16 141,33" />
<polygon fill="#b9cbd4" fill-opacity="0.501961" points="148,29 27,40 106,54" />
<polygon fill="#041321" fill-opacity="0.501961" points="11,84 3,119 -16,64" />
<polygon fill="#dec29f" fill-opacity="0.501961" points="239,103 213,87 258,88" />
<polygon fill="#000000" fill-opacity="0.501961" points="122,70 121,51 111,51" />
<polygon fill="#000b23" fill-opacity="0.501961" points="178,69 195,64 185,78" />
<polygon fill="#0e0a09" fill-opacity="0.501961" points="45,135 6,138 47,150" />
<polygon fill="#e5f1f3" fill-opacity="0.501961" points="25,48 -2,44 33,38" />
<polygon fill="#ffb68c" fill-opacity="0.501961" points="129,172 128,153 132,160" />
<polygon fill="#b3a080" fill-opacity="0.501961" points="16,126 7,99 17,107" />
<polygon fill="#ffe8a4" fill-opacity="0.501961" points="108,67 112,66 107,80" />
<polygon fill="#935c3d" fill-opacity="0.501961" points="49,140 79,183 41,175" />
<polygon fill="#bfa589" fill-opacity="0.501961" points="187,75 216,118 217,64" />
<polygon fill="#3f212b" fill-opacity="0.501961" points="101,153 102,95 122,91" />
<polygon fill="#726559" fill-opacity="0.501961" points="35,138 28,115 37,95" />
<polygon fill="#7f6953" fill-opacity="0.501961" points="258,93 203,128 266,167" />
<polygon fill="#32383f" fill-opacity="0.501961" points="-16,46 13,61 16,46" />
<polygon fill="#6f290e" fill-opacity="0.501961" points="168,173 120,200 137,175" />
<polygon fill="#282325" fill-opacity="0.501961" points="170,147 186,96 215,119" />
<polygon fill="#aeb9c7" fill-opacity="0.501961" points="238,17 150,50 241,45" />
<polygon fill="#151811" fill-opacity="0.501961" points="242,48 271,54 256,46" />
<polygon fill="#dfa077" fill-opacity="0.501961" points="24,178 -1,207 67,178" />
<polygon fill="#361f19" fill-opacity="0.501961" points="95,145 83,150 96,124" />
<polygon fill="#2b120b" fill-opacity="0.501961" points="168,160 167,193 158,157" />
<polygon fill="#aa947f" fill-opacity="0.501961" points="176,90 164,55 186,85" />
<polygon fill="#888b94" fill-opacity="0.501961" points="133,48 143,59 114,77" />
<polygon fill="#000000" fill-opacity="0.501961" points="148,33 131,51 153,47" />
<polygon fill="#eae9e0" fill-opacity="0.501961" points="32,23 -12,11 82,6" />
<polygon fill="#000002" fill-opacity="0.501961" points="271,86 258,116 252,94" />
<polygon fill="#dacab1" fill-opacity="0.501961" points="34,56 21,52 21,67" />
<polygon fill="#000000" fill-opacity="0.501961" points="112,186 109,148 102,182" />
<polygon fill="#2d1708" fill-opacity="0.501961" points="188,178 255,207 182,202" />
<polygon fill="#000000" fill-opacity="0.501961" points="110,143 101,140 105,172" />
<polygon fill="#aec2cb" fill-opacity="0.501961" points="137,54 67,46 128,33" />
<polygon fill="#120c10" fill-opacity="0.501961" points="159,63 119,77 164,156" />
<polygon fill="#0d171d" fill-opacity="0.501961" points="28,131 16,92 31,104" />
<polygon fill="#0d0500" fill-opacity="0.501961" points="-1,159 18,139 -6,153" />
<polygon fill="#f0a67c" fill-opacity="0.501961" points="168,142 161,143 163,138" />
<polygon fill="#da976c" fill-opacity="0.501961" points="115,190 110,166 118,153" />
<polygon fill="#000000" fill-opacity="0.501961" points="118,172 128,149 124,198" />
<polygon fill="#778fb1" fill-opacity="0.501961" points="95,139 103,138 98,114" />
<polygon fill="#313139" fill-opacity="0.501961" points="25,62 59,129 93,89" />
<polygon fill="#a3846c" fill-opacity="0.501961" points="252,137 258,104 174,86" />
<polygon fill="#b86946" fill-opacity="0.501961" points="89,190 112,202 138,181" />
<polygon fill="#cf9675" fill-opacity="0.501961" points="99,139 100,174 69,184" />
<polygon fill="#f0ad76" fill-opacity="0.501961" points="172,186 183,185 186,189" />
<polygon fill="#565f6a" fill-opacity="0.501961" points="92,50 70,51 89,82" />
<polygon fill="#9c6a4e" fill-opacity="0.501961" points="215,159 228,132 186,145" />
<polygon fill="#c3d0d9" fill-opacity="0.501961" points="35,35 52,49 82,46" />
<polygon fill="#12151a" fill-opacity="0.501961" points="23,137 95,134 91,111" />
<polygon fill="#c99272" fill-opacity="0.501961" points="146,187 146,145 160,149" />
<polygon fill="#433937" fill-opacity="0.501961" points="203,94 164,101 165,138" />
<polygon fill="#b9c4c9" fill-opacity="0.501961" points="148,57 166,34 168,56" />
<polygon fill="#542512" fill-opacity="0.501961" points="204,169 181,165 204,162" />
<polygon fill="#798a8d" fill-opacity="0.501961" points="113,84 117,89 122,72" />
<polygon fill="#664e40" fill-opacity="0.501961" points="219,139 196,115 241,127" />
<polygon fill="#000000" fill-opacity="0.501961" points="113,54 117,76 119,53" />
<polygon fill="#c48764" fill-opacity="0.501961" points="54,161 88,137 50,139" />
<polygon fill="#9a5c39" fill-opacity="0.501961" points="-16,163 35,156 33,142" />
<polygon fill="#a4886c" fill-opacity="0.501961" points="-16,167 -16,131 6,127" />
<polygon fill="#bd8562" fill-opacity="0.501961" points="260,207 252,150 209,186" />
<polygon fill="#010000" fill-opacity="0.501961" points="147,152 114,154 146,126" />
<polygon fill="#922e0f" fill-opacity="0.501961" points="121,94 113,101 92,92" />
<polygon fill="#d4cdd4" fill-opacity="0.501961" points="98,79 108,76 95,89" />
<polygon fill="#181611" fill-opacity="0.501961" points="152,170 175,182 168,189" />
<polygon fill="#c38e6c" fill-opacity="0.501961" points="-13,204 -16,179 52,147" />
<polygon fill="#ca8d6c" fill-opacity="0.501961" points="208,139 175,172 184,140" />
<polygon fill="#4f2715" fill-opacity="0.501961" points="229,144 203,146 219,156" />
<polygon fill="#664231" fill-opacity="0.501961" points="41,159 49,161 27,175" />
<polygon fill="#d7d9d6" fill-opacity="0.501961" points="93,23 127,13 52,7" />
<polygon fill="#000000" fill-opacity="0.501961" points="149,135 149,146 158,142" />
<polygon fill="#451e0e" fill-opacity="0.501961" points="55,176 61,169 65,177" />
<polygon fill="#908a7d" fill-opacity="0.501961" points="25,90 -15,56 30,72" />
<polygon fill="#5186ba" fill-opacity="0.501961" points="120,-5 72,-8 112,9" />
<polygon fill="#400c00" fill-opacity="0.501961" points="248,189 267,179 271,187" />
<polygon fill="#6d88a8" fill-opacity="0.501961" points="271,16 257,-16 186,13" />
<polygon fill="#93a4bc" fill-opacity="0.501961" points="124,33 203,15 271,39" />
<polygon fill="#252721" fill-opacity="0.501961" points="4,114 33,143 12,144" />
<polygon fill="#46454a" fill-opacity="0.501961" points="98,77 69,48 113,62" />
<polygon fill="#de9d75" fill-opacity="0.501961" points="112,169 119,166 114,142" />
<polygon fill="#908272" fill-opacity="0.501961" points="205,63 194,100 193,49" />
<polygon fill="#08090f" fill-opacity="0.501961" points="172,90 170,66 126,72" />
<polygon fill="#142233" fill-opacity="0.501961" points="206,49 214,60 191,48" />
<polygon fill="#340e03" fill-opacity="0.501961" points="219,185 208,180 213,185" />
<polygon fill="#2c1409" fill-opacity="0.501961" points="226,143 246,156 217,156" />
<polygon fill="#b48569" fill-opacity="0.501961" points="162,174 147,136 148,169" />
<polygon fill="#9c8369" fill-opacity="0.501961" points="255,160 238,159 236,133" />
<polygon fill="#726a60" fill-opacity="0.501961" points="160,59 187,57 172,72" />
<polygon fill="#000000" fill-opacity="0.501961" points="125,150 122,174 117,140" />
<polygon fill="#929eb8" fill-opacity="0.501961" points="97,96 97,132 103,115" />
<polygon fill="#493643" fill-opacity="0.501961" points="125,142 102,96 100,139" />
<polygon fill="#702715" fill-opacity="0.501961" points="132,154 144,161 141,198" />
<polygon fill="#6a92c1" fill-opacity="0.501961" points="80,20 57,24 98,31" />
<polygon fill="#c1a791" fill-opacity="0.501961" points="234,102 257,118 245,99" />
<polygon fill="#f6b086" fill-opacity="0.501961" points="109,92 92,83 98,92" />
<polygon fill="#3c3631" fill-opacity="0.501961" points="224,82 224,66 219,72" />
<polygon fill="#000001" fill-opacity="0.501961" points="271,161 254,159 265,107" />
<polygon fill="#cdbba3" fill-opacity="0.501961" points="271,67 233,81 231,65" />
<polygon fill="#d49975" fill-opacity="0.501961" points="172,182 208,175 195,166" />
<polygon fill="#efa77d" fill-opacity="0.501961" points="166,204 160,181 143,194" />
<polygon fill="#bc9d83" fill-opacity="0.501961" points="216,117 201,102 252,86" />
<polygon fill="#5d5744" fill-opacity="0.501961" points="252,78 241,86 250,88" />
<polygon fill="#68644d" fill-opacity="0.501961" points="20,112 10,135 21,128" />
<polygon fill="#744127" fill-opacity="0.501961" points="250,174 242,169 233,172" />
<polygon fill="#dcd1b9" fill-opacity="0.501961" points="211,77 222,67 207,70" />
<polygon fill="#461101" fill-opacity="0.501961" points="136,50 153,47 148,59" />
<polygon fill="#746c64" fill-opacity="0.501961" points="40,106 32,118 33,85" />
<polygon fill="#6f5d50" fill-opacity="0.501961" points="201,81 192,81 182,102" />
<polygon fill="#3a6a9a" fill-opacity="0.501961" points="124,65 123,54 135,62" />
<polygon fill="#aeb6c1" fill-opacity="0.501961" points="206,-16 225,-10 173,18" />
<polygon fill="#310600" fill-opacity="0.501961" points="16,184 6,207 -7,207" />
<polygon fill="#e69a71" fill-opacity="0.501961" points="133,163 130,180 135,183" />
<polygon fill="#6e94bd" fill-opacity="0.501961" points="94,27 127,36 174,11" />
<polygon fill="#cc9270" fill-opacity="0.501961" points="219,157 252,158 216,188" />
<polygon fill="#000000" fill-opacity="0.501961" points="142,33 150,33 153,49" />
<polygon fill="#221719" fill-opacity="0.501961" points="182,144 130,126 144,59" />
<polygon fill="#373b40" fill-opacity="0.501961" points="235,49 228,60 220,50" />
<polygon fill="#ac9b7f" fill-opacity="0.501961" points="166,64 165,53 176,51" />
<polygon fill="#cbab90" fill-opacity="0.501961" points="172,79 184,85 174,89" />
<polygon fill="#a67c62" fill-opacity="0.501961" points="210,128 220,136 213,152" />
<polygon fill="#5b6166" fill-opacity="0.501961" points="12,52 -5,84 -1,52" />
<polygon fill="#3e3730" fill-opacity="0.501961" points="250,102 271,79 254,112" />
<polygon fill="#1e1a1f" fill-opacity="0.501961" points="190,101 195,140 207,137" />
<polygon fill="#cac7c2" fill-opacity="0.501961" points="162,7 157,14 147,7" />
<polygon fill="#514b47" fill-opacity="0.501961" points="44,46 58,50 62,89" />
<polygon fill="#000000" fill-opacity="0.501961" points="101,175 110,145 111,198" />
<polygon fill="#7c7562" fill-opacity="0.501961" points="17,72 28,78 6,108" />
<polygon fill="#210a05" fill-opacity="0.501961" points="55,166 53,163 61,164" />
<polygon fill="#a18269" fill-opacity="0.501961" points="122,73 102,61 107,70" />
<polygon fill="#90412e" fill-opacity="0.501961" points="164,111 173,107 166,92" />
<polygon fill="#bb8669" fill-opacity="0.501961" points="126,148 132,172 133,158" />
<polygon fill="#9e6f58" fill-opacity="0.501961" points="77,135 67,150 101,137" />
<polygon fill="#a5977f" fill-opacity="0.501961" points="268,67 221,61 241,50" />
<polygon fill="#0d0201" fill-opacity="0.501961" points="132,97 116,91 127,74" />
<polygon fill="#ae5948" fill-opacity="0.501961" points="97,101 92,93 94,116" />
<polygon fill="#abbbcb" fill-opacity="0.501961" points="173,49 144,31 215,44" />
<polygon fill="#0e1920" fill-opacity="0.501961" points="45,94 71,91 64,110" />
<polygon fill="#d39977" fill-opacity="0.501961" points="173,159 184,147 210,155" />
<polygon fill="#3b423e" fill-opacity="0.501961" points="3,47 5,55 33,49" />
<polygon fill="#0a0607" fill-opacity="0.501961" points="32,147 40,149 53,137" />
<polygon fill="#666263" fill-opacity="0.501961" points="81,53 91,70 71,82" />
<polygon fill="#3d3438" fill-opacity="0.501961" points="81,101 71,48 55,52" />
<polygon fill="#040d14" fill-opacity="0.501961" points="83,133 88,124 98,137" />
<polygon fill="#522916" fill-opacity="0.501961" points="89,186 91,181 98,177" />
<polygon fill="#452a06" fill-opacity="0.501961" points="119,68 111,89 110,80" />
<polygon fill="#50291e" fill-opacity="0.501961" points="150,184 168,167 154,173" />
<polygon fill="#000000" fill-opacity="0.501961" points="136,157 119,146 145,154" />
<polygon fill="#bcd1dd" fill-opacity="0.501961" points="-14,30 70,38 19,48" />
<polygon fill="#000000" fill-opacity="0.501961" points="120,55 108,57 108,65" />
<polygon fill="#c5c7c5" fill-opacity="0.501961" points="133,38 136,54 96,32" />
<polygon fill="#252830" fill-opacity="0.501961" points="15,109 34,73 31,100" />
<polygon fill="#c0ac94" fill-opacity="0.501961" points="232,56 245,77 224,75" />
<polygon fill="#98b8ce" fill-opacity="0.501961" points="69,39 98,54 131,44" />
</g>
</svg>