<svg xmlns="http://www.w3.org/2000/svg" version="1.1" width="1024" height="768">
<rect x="0" y="0" width="1024" height="768" fill="#6c6261" />
<g transform="scale(4.000000) translate(0.5 0.5)">
<polygon fill="#1476d5" fill-opacity="0.501961" points="-1,-16 271,3 -16,99" />
<polygon fill="#692200" fill-opacity="0.501961" points="-16,163 147,207 148,9" />
<polygon fill="#ffbf75" fill-opacity="0.501961" points="266,193 217,63 138,204" />
<polygon fill="#6fb3f4" fill-opacity="0.501961" points="-4,93 91,87 -16,-3" />
<polygon fill="#0a55a5" fill-opacity="0.501961" points="118,0 262,-10 199,83" />
<polygon fill="#b36d3a" fill-opacity="0.501961" points="148,46 245,129 147,184" />
<polygon fill="#321504" fill-opacity="0.501961" points="133,207 155,65 93,25" />
<polygon fill="#1d0000" fill-opacity="0.501961" points="233,88 230,132 271,138" />
<polygon fill="#ca8f5e" fill-opacity="0.501961" points="120,161 58,150 49,207" />
<polygon fill="#83431a" fill-opacity="0.501961" points="-15,80 134,131 3,207" />
<polygon fill="#0467c7" fill-opacity="0.501961" points="271,4 232,18 253,89" />
<polygon fill="#ecbe94" fill-opacity="0.501961" points="262,206 264,132 164,185" />
<polygon fill="#895732" fill-opacity="0.501961" points="104,20 130,52 38,155" />
<polygon fill="#1694ff" fill-opacity="0.501961" points="115,40 120,66 134,22" />
<polygon fill="#000000" fill-opacity="0.501961" points="139,142 103,198 137,205" />
<polygon fill="#ffbb73" fill-opacity="0.501961" points="251,105 271,87 229,75" />
<polygon fill="#531b00" fill-opacity="0.501961" points="168,56 178,118 155,124" />
<polygon fill="#ce9663" fill-opacity="0.501961" points="161,62 140,129 169,161" />
<polygon fill="#4a1200" fill-opacity="0.501961" points="246,75 228,74 231,24" />
<polygon fill="#502006" fill-opacity="0.501961" points="176,56 87,58 75,158" />
<polygon fill="#ffc88f" fill-opacity="0.501961" points="180,116 187,71 171,73" />
<polygon fill="#3380c7" fill-opacity="0.501961" points="150,38 203,83 226,41" />
<polygon fill="#d29d70" fill-opacity="0.501961" points="220,169 189,130 230,27" />
<polygon fill="#4888c2" fill-opacity="0.501961" points="81,25 74,99 -16,17" />
<polygon fill="#275082" fill-opacity="0.501961" points="250,-16 43,12 269,42" />
<polygon fill="#e7a56c" fill-opacity="0.501961" points="75,115 68,90 83,58" />
<polygon fill="#311809" fill-opacity="0.501961" points="39,97 -2,129 25,145" />
<polygon fill="#6daaea" fill-opacity="0.501961" points="26,97 79,77 -1,64" />
<polygon fill="#1f0000" fill-opacity="0.501961" points="233,128 269,89 271,146" />
<polygon fill="#9b7c5e" fill-opacity="0.501961" points="32,135 4,154 80,145" />
<polygon fill="#d5a278" fill-opacity="0.501961" points="32,205 79,181 23,186" />
<polygon fill="#995c21" fill-opacity="0.501961" points="165,68 143,23 127,39" />
<polygon fill="#5a3e2c" fill-opacity="0.501961" points="173,165 148,177 175,144" />
<polygon fill="#632200" fill-opacity="0.501961" points="107,19 118,40 95,57" />
<polygon fill="#b79473" fill-opacity="0.501961" points="271,143 175,116 150,156" />
<polygon fill="#774015" fill-opacity="0.501961" points="218,113 232,81 249,108" />
<polygon fill="#2c0c00" fill-opacity="0.501961" points="186,70 165,70 160,50" />
<polygon fill="#306fa9" fill-opacity="0.501961" points="87,55 122,-16 -16,18" />
<polygon fill="#ac815e" fill-opacity="0.501961" points="57,180 105,182 112,148" />
<polygon fill="#965a10" fill-opacity="0.501961" points="240,28 230,50 226,27" />
<polygon fill="#7d4120" fill-opacity="0.501961" points="218,107 152,128 158,103" />
<polygon fill="#382525" fill-opacity="0.501961" points="127,100 108,168 150,171" />
<polygon fill="#ffc283" fill-opacity="0.501961" points="254,91 271,100 242,109" />
<polygon fill="#9a716f" fill-opacity="0.501961" points="123,120 131,148 120,144" />
<polygon fill="#966744" fill-opacity="0.501961" points="75,122 49,127 42,81" />
<polygon fill="#2b8add" fill-opacity="0.501961" points="121,64 128,52 112,44" />
<polygon fill="#397dbc" fill-opacity="0.501961" points="253,89 237,43 271,74" />
<polygon fill="#84522d" fill-opacity="0.501961" points="-16,93 5,207 19,86" />
<polygon fill="#629dd9" fill-opacity="0.501961" points="95,47 -16,86 63,88" />
<polygon fill="#ad815d" fill-opacity="0.501961" points="152,165 141,126 239,113" />
<polygon fill="#caa180" fill-opacity="0.501961" points="45,197 64,196 67,157" />
<polygon fill="#dfb489" fill-opacity="0.501961" points="174,201 231,133 271,144" />
<polygon fill="#000000" fill-opacity="0.501961" points="120,85 119,130 111,115" />
<polygon fill="#551f02" fill-opacity="0.501961" points="248,80 253,84 245,101" />
<polygon fill="#235d9c" fill-opacity="0.501961" points="130,35 156,7 29,-16" />
<polygon fill="#000000" fill-opacity="0.501961" points="114,179 115,207 146,176" />
<polygon fill="#74391a" fill-opacity="0.501961" points="84,61 119,56 109,153" />
<polygon fill="#895433" fill-opacity="0.501961" points="-16,161 53,144 21,204" />
<polygon fill="#295e98" fill-opacity="0.501961" points="136,-16 153,47 228,48" />
<polygon fill="#573523" fill-opacity="0.501961" points="-12,111 6,90 73,111" />
<polygon fill="#100a03" fill-opacity="0.501961" points="119,95 120,66 140,45" />
<polygon fill="#070000" fill-opacity="0.501961" points="207,82 203,91 199,89" />
<polygon fill="#eeb583" fill-opacity="0.501961" points="181,106 168,128 180,119" />
<polygon fill="#e0a56f" fill-opacity="0.501961" points="192,99 230,70 225,101" />
<polygon fill="#000000" fill-opacity="0.501961" points="131,151 134,125 144,148" />
<polygon fill="#a37b88" fill-opacity="0.501961" points="120,170 116,159 120,149" />
<polygon fill="#f4bb85" fill-opacity="0.501961" points="244,96 232,79 246,75" />
<polygon fill="#451800" fill-opacity="0.501961" points="243,54 243,74 224,59" />
<polygon fill="#c29570" fill-opacity="0.501961" points="64,133 61,123 77,108" />
<polygon fill="#caa37b" fill-opacity="0.501961" points="162,55 142,52 144,46" />
<polygon fill="#bf8247" fill-opacity="0.501961" points="99,52 88,63 98,31" />
<polygon fill="#9b6d4a" fill-opacity="0.501961" points="41,90 33,132 62,89" />
<polygon fill="#dba576" fill-opacity="0.501961" points="150,96 156,122 160,69" />
<polygon fill="#daa26a" fill-opacity="0.501961" points="220,73 213,63 233,38" />
<polygon fill="#427db2" fill-opacity="0.501961" points="-2,48 85,60 -3,-16" />
<polygon fill="#401a08" fill-opacity="0.501961" points="88,81 97,117 73,126" />
<polygon fill="#130d08" fill-opacity="0.501961" points="21,145 12,134 34,129" />
<polygon fill="#713517" fill-opacity="0.501961" points="154,78 147,112 115,99" />
<polygon fill="#508dc3" fill-opacity="0.501961" points="182,68 204,84 215,62" />
<polygon fill="#b38452" fill-opacity="0.501961" points="127,37 136,30 129,55" />
<polygon fill="#d09d71" fill-opacity="0.501961" points="88,74 64,90 64,102" />
<polygon fill="#3370ac" fill-opacity="0.501961" points="261,85 236,47 241,22" />
<polygon fill="#7eb5f2" fill-opacity="0.501961" points="-16,112 13,75 -16,63" />
<polygon fill="#b48866" fill-opacity="0.501961" points="195,111 170,207 238,113" />
<polygon fill="#2a1000" fill-opacity="0.501961" points="240,114 271,95 271,162" />
<polygon fill="#542200" fill-opacity="0.501961" points="146,25 128,41 150,38" />
<polygon fill="#85bef3" fill-opacity="0.501961" points="43,93 12,79 25,94" />
<polygon fill="#2a0f00" fill-opacity="0.501961" points="231,94 243,128 241,90" />
<polygon fill="#bb865f" fill-opacity="0.501961" points="65,182 59,151 68,141" />
<polygon fill="#444b4f" fill-opacity="0.501961" points="19,98 35,93 39,110" />
<polygon fill="#5c2a09" fill-opacity="0.501961" points="114,24 97,42 110,70" />
<polygon fill="#855e43" fill-opacity="0.501961" points="199,132 167,129 160,142" />
<polygon fill="#1f0f00" fill-opacity="0.501961" points="102,184 88,185 94,207" />
<polygon fill="#572b12" fill-opacity="0.501961" points="14,132 79,142 11,112" />
<polygon fill="#79401f" fill-opacity="0.501961" points="182,117 193,120 196,77" />
<polygon fill="#b58257" fill-opacity="0.501961" points="177,98 196,109 189,70" />
<polygon fill="#9f5d3d" fill-opacity="0.501961" points="121,122 126,134 143,124" />
<polygon fill="#4b1a05" fill-opacity="0.501961" points="159,101 156,130 162,116" />
<polygon fill="#642c12" fill-opacity="0.501961" points="34,180 59,138 58,171" />
<polygon fill="#274f81" fill-opacity="0.501961" points="83,-6 268,-16 271,34" />
<polygon fill="#903d15" fill-opacity="0.501961" points="78,149 70,171 113,145" />
<polygon fill="#30669f" fill-opacity="0.501961" points="213,72 217,17 148,38" />
<polygon fill="#190200" fill-opacity="0.501961" points="171,83 169,98 176,103" />
<polygon fill="#b79a77" fill-opacity="0.501961" points="6,124 12,110 -3,121" />
<polygon fill="#512a15" fill-opacity="0.501961" points="147,93 163,52 126,59" />
<polygon fill="#a57e5a" fill-opacity="0.501961" points="-11,137 14,136 -16,167" />
<polygon fill="#916e52" fill-opacity="0.501961" points="178,151 153,184 200,157" />
<polygon fill="#683215" fill-opacity="0.501961" points="57,90 59,127 69,95" />
<polygon fill="#835532" fill-opacity="0.501961" points="99,79 86,72 73,96" />
<polygon fill="#41362c" fill-opacity="0.501961" points="112,161 126,172 103,194" />
<polygon fill="#351405" fill-opacity="0.501961" points="133,109 147,111 131,136" />
<polygon fill="#8f6846" fill-opacity="0.501961" points="60,196 109,154 79,203" />
<polygon fill="#6c2f12" fill-opacity="0.501961" points="41,187 56,179 38,161" />
<polygon fill="#c18b5e" fill-opacity="0.501961" points="158,99 148,159 142,121" />
<polygon fill="#834421" fill-opacity="0.501961" points="198,125 206,101 208,113" />
<polygon fill="#2f6fad" fill-opacity="0.501961" points="112,50 127,57 127,25" />
<polygon fill="#b7875d" fill-opacity="0.501961" points="233,98 236,121 230,119" />
<polygon fill="#c79d77" fill-opacity="0.501961" points="192,127 201,96 201,149" />
<polygon fill="#411f0e" fill-opacity="0.501961" points="175,158 167,159 161,171" />
<polygon fill="#4c280a" fill-opacity="0.501961" points="224,33 235,39 237,28" />
<polygon fill="#498dc9" fill-opacity="0.501961" points="257,70 263,100 244,69" />
<polygon fill="#6eaeec" fill-opacity="0.501961" points="36,81 65,91 69,83" />
<polygon fill="#40230e" fill-opacity="0.501961" points="224,127 271,143 271,114" />
<polygon fill="#23170f" fill-opacity="0.501961" points="87,74 124,86 153,77" />
<polygon fill="#160f07" fill-opacity="0.501961" points="172,62 171,73 162,72" />
<polygon fill="#0f151c" fill-opacity="0.501961" points="112,147 121,151 120,131" />
<polygon fill="#3a170a" fill-opacity="0.501961" points="83,147 66,138 111,141" />
<polygon fill="#b29261" fill-opacity="0.501961" points="225,42 235,54 226,27" />
<polygon fill="#2c6099" fill-opacity="0.501961" points="225,50 209,62 218,17" />
<polygon fill="#3f80bc" fill-opacity="0.501961" points="76,66 42,66 103,24" />
<polygon fill="#be946f" fill-opacity="0.501961" points="140,207 214,207 153,169" />
<polygon fill="#8a6f82" fill-opacity="0.501961" points="111,133 112,143 118,134" />
<polygon fill="#b07b52" fill-opacity="0.501961" points="153,47 161,74 163,54" />
<polygon fill="#c89d73" fill-opacity="0.501961" points="271,143 234,207 236,134" />
<polygon fill="#ad8d6d" fill-opacity="0.501961" points="33,148 7,150 38,139" />
<polygon fill="#5d2a06" fill-opacity="0.501961" points="183,71 171,69 174,58" />
<polygon fill="#a18062" fill-opacity="0.501961" points="33,158 52,149 36,164" />
<polygon fill="#0e0509" fill-opacity="0.501961" points="142,132 139,144 123,139" />
<polygon fill="#190e14" fill-opacity="0.501961" points="48,109 33,106 26,111" />
<polygon fill="#552c0b" fill-opacity="0.501961" points="226,66 237,78 234,44" />
<polygon fill="#916256" fill-opacity="0.501961" points="130,175 107,175 113,170" />
<polygon fill="#909994" fill-opacity="0.501961" points="119,116 124,112 128,113" />
<polygon fill="#030000" fill-opacity="0.501961" points="116,111 118,90 126,122" />
<polygon fill="#a47a58" fill-opacity="0.501961" points="36,124 30,123 42,105" />
<polygon fill="#cd9464" fill-opacity="0.501961" points="224,52 200,135 230,94" />
<polygon fill="#48220a" fill-opacity="0.501961" points="149,51 152,44 145,36" />
<polygon fill="#3c1700" fill-opacity="0.501961" points="139,182 147,181 145,155" />
<polygon fill="#000000" fill-opacity="0.501961" points="97,207 138,160 138,196" />
<polygon fill="#914421" fill-opacity="0.501961" points="100,125 107,136 71,137" />
<polygon fill="#29609c" fill-opacity="0.501961" points="150,25 76,23 111,-16" />
<polygon fill="#5e2606" fill-opacity="0.501961" points="196,90 188,74 198,83" />
<polygon fill="#2b5c94" fill-opacity="0.501961" points="253,19 157,17 151,49" />
<polygon fill="#b98752" fill-opacity="0.501961" points="143,48 137,39 146,41" />
<polygon fill="#703113" fill-opacity="0.501961" points="1,206 28,207 19,173" />
<polygon fill="#a87b58" fill-opacity="0.501961" points="109,155 104,193 96,154" />
<polygon fill="#cc8f58" fill-opacity="0.501961" points="243,85 248,101 243,112" />
<polygon fill="#381f09" fill-opacity="0.501961" points="134,39 146,63 131,61" />
<polygon fill="#ac825e" fill-opacity="0.501961" points="103,105 100,91 97,95" />
<polygon fill="#e4ad7f" fill-opacity="0.501961" points="221,110 207,78 205,96" />
<polygon fill="#6f2f0b" fill-opacity="0.501961" points="25,107 18,89 15,132" />
<polygon fill="#bc8a61" fill-opacity="0.501961" points="157,199 139,184 145,207" />
<polygon fill="#407eb8" fill-opacity="0.501961" points="213,59 200,87 185,57" />
<polygon fill="#632f13" fill-opacity="0.501961" points="165,54 142,79 123,68" />
<polygon fill="#3f1a07" fill-opacity="0.501961" points="120,73 117,54 104,44" />
<polygon fill="#64351e" fill-opacity="0.501961" points="78,184 70,185 69,207" />
<polygon fill="#2d1711" fill-opacity="0.501961" points="116,167 130,178 141,171" />
<polygon fill="#571e02" fill-opacity="0.501961" points="108,111 123,130 109,135" />
<polygon fill="#341605" fill-opacity="0.501961" points="230,96 236,102 232,82" />
<polygon fill="#773c18" fill-opacity="0.501961" points="81,71 86,57 121,78" />
<polygon fill="#cd9e74" fill-opacity="0.501961" points="165,83 160,68 154,82" />
<polygon fill="#28140a" fill-opacity="0.501961" points="86,130 84,107 97,111" />
<polygon fill="#936845" fill-opacity="0.501961" points="49,97 46,86 35,105" />
<polygon fill="#c79262" fill-opacity="0.501961" points="99,38 101,29 91,43" />
<polygon fill="#080200" fill-opacity="0.501961" points="124,151 137,140 136,153" />
<polygon fill="#704831" fill-opacity="0.501961" points="74,177 96,166 82,168" />
<polygon fill="#86421c" fill-opacity="0.501961" points="139,92 125,109 127,89" />
<polygon fill="#9b6542" fill-opacity="0.501961" points="19,168 37,169 35,202" />
<polygon fill="#561e06" fill-opacity="0.501961" points="157,102 165,109 159,111" />
<polygon fill="#548ec9" fill-opacity="0.501961" points="-13,72 66,51 79,77" />
<polygon fill="#b68455" fill-opacity="0.501961" points="163,110 167,118 169,112" />
<polygon fill="#a4754f" fill-opacity="0.501961" points="16,97 13,106 12,88" />
<polygon fill="#7c482c" fill-opacity="0.501961" points="198,98 193,120 183,119" />
<polygon fill="#270e00" fill-opacity="0.501961" points="110,172 116,154 110,161" />
<polygon fill="#421b03" fill-opacity="0.501961" points="240,64 241,76 229,75" />
<polygon fill="#a17143" fill-opacity="0.501961" points="232,78 220,78 223,61" />
<polygon fill="#723e19" fill-opacity="0.501961" points="114,36 102,28 95,61" />
<polygon fill="#da9967" fill-opacity="0.501961" points="221,123 207,127 229,108" />
<polygon fill="#77b2ea" fill-opacity="0.501961" points="48,78 21,93 41,93" />
<polygon fill="#d5a378" fill-opacity="0.501961" points="181,120 172,79 183,77" />
<polygon fill="#8b6548" fill-opacity="0.501961" points="171,146 165,163 181,146" />
<polygon fill="#a57a4c" fill-opacity="0.501961" points="139,159 141,170 143,167" />
<polygon fill="#080000" fill-opacity="0.501961" points="202,90 204,90 203,84" />
<polygon fill="#602a0d" fill-opacity="0.501961" points="38,109 63,112 45,102" />
<polygon fill="#deb690" fill-opacity="0.501961" points="209,153 198,193 240,136" />
<polygon fill="#000000" fill-opacity="0.501961" points="107,187 105,191 105,182" />
<polygon fill="#2e6ca9" fill-opacity="0.501961" points="246,59 237,51 236,35" />
<polygon fill="#461a06" fill-opacity="0.501961" points="170,95 174,119 176,101" />
<polygon fill="#6a3114" fill-opacity="0.501961" points="69,133 86,81 86,108" />
<polygon fill="#23120b" fill-opacity="0.501961" points="26,139 31,131 5,133" />
<polygon fill="#daa679" fill-opacity="0.501961" points="155,101 151,86 159,77" />
</g>
</svg>