<svg xmlns="http://www.w3.org/2000/svg" version="1.1" width="1024" height="768">
<rect x="0" y="0" width="1024" height="768" fill="#837163" />
<g transform="scale(4.000000) translate(0.5 0.5)">
<polygon fill="#000000" fill-opacity="0.501961" points="104,207 -5,191 -16,69" />
<polygon fill="#d6b19f" fill-opacity="0.501961" points="33,-2 271,-16 115,193" />
<polygon fill="#000000" fill-opacity="0.501961" points="220,207 137,199 271,87" />
<polygon fill="#211c1d" fill-opacity="0.501961" points="-16,141 84,68 13,16" />
<polygon fill="#001a22" fill-opacity="0.501961" points="271,116 165,59 228,178" />
<polygon fill="#73d4ff" fill-opacity="0.501961" points="97,-16 213,13 -16,18" />
<polygon fill="#000000" fill-opacity="0.501961" points="-12,125 164,207 -16,192" />
<polygon fill="#e2ad7c" fill-opacity="0.501961" points="214,127 78,178 29,110" />
<polygon fill="#d19775" fill-opacity="0.501961" points="175,35 271,7 271,129" />
<polygon fill="#000005" fill-opacity="0.501961" points="216,207 120,194 244,141" />
<polygon fill="#82d1ff" fill-opacity="0.501961" points="271,17 249,-16 133,5" />
<polygon fill="#ffcb9c" fill-opacity="0.501961" points="268,130 212,207 253,207" />
<polygon fill="#c7ad82" fill-opacity="0.501961" points="179,174 208,106 78,179" />
<polygon fill="#8fb2e4" fill-opacity="0.501961" points="4,30 -16,-10 144,-1" />
<polygon fill="#f2ad81" fill-opacity="0.501961" points="0,21 32,88 5,62" />
<polygon fill="#c9926c" fill-opacity="0.501961" points="36,125 194,146 131,10" />
<polygon fill="#b18066" fill-opacity="0.501961" points="221,17 -16,19 271,95" />
<polygon fill="#d0b88f" fill-opacity="0.501961" points="3,90 2,108 45,73" />
<polygon fill="#00020a" fill-opacity="0.501961" points="24,95 -16,180 70,207" />
<polygon fill="#00000f" fill-opacity="0.501961" points="48,33 7,39 29,77" />
<polygon fill="#000000" fill-opacity="0.501961" points="182,87 187,110 178,113" />
<polygon fill="#000400" fill-opacity="0.501961" points="45,207 -16,171 159,188" />
<polygon fill="#001724" fill-opacity="0.501961" points="236,178 172,207 221,95" />
<polygon fill="#000007" fill-opacity="0.501961" points="-16,60 8,87 2,34" />
<polygon fill="#4c332f" fill-opacity="0.501961" points="125,25 167,25 148,40" />
<polygon fill="#b6b080" fill-opacity="0.501961" points="188,99 209,123 181,169" />
<polygon fill="#d5ac8b" fill-opacity="0.501961" points="271,111 244,55 198,68" />
<polygon fill="#73584f" fill-opacity="0.501961" points="218,72 206,33 231,35" />
<polygon fill="#423120" fill-opacity="0.501961" points="164,68 271,134 232,87" />
<polygon fill="#e3b18f" fill-opacity="0.501961" points="50,148 38,131 69,85" />
<polygon fill="#14292e" fill-opacity="0.501961" points="32,80 28,105 84,72" />
<polygon fill="#cf9879" fill-opacity="0.501961" points="163,59 51,47 184,129" />
<polygon fill="#020011" fill-opacity="0.501961" points="41,47 48,75 62,58" />
<polygon fill="#102943" fill-opacity="0.501961" points="236,155 187,93 271,128" />
<polygon fill="#d09977" fill-opacity="0.501961" points="43,57 43,79 32,77" />
<polygon fill="#000908" fill-opacity="0.501961" points="211,143 152,190 173,200" />
<polygon fill="#08201e" fill-opacity="0.501961" points="-16,129 17,103 93,207" />
<polygon fill="#bbaf6b" fill-opacity="0.501961" points="150,177 116,186 90,176" />
<polygon fill="#71aadd" fill-opacity="0.501961" points="120,3 -12,14 15,-16" />
<polygon fill="#99bae9" fill-opacity="0.501961" points="105,17 203,-16 271,11" />
<polygon fill="#77786e" fill-opacity="0.501961" points="53,103 65,55 83,57" />
<polygon fill="#746f40" fill-opacity="0.501961" points="89,193 86,158 56,150" />
<polygon fill="#686653" fill-opacity="0.501961" points="183,120 195,129 170,150" />
<polygon fill="#c8ab72" fill-opacity="0.501961" points="201,91 176,77 161,84" />
<polygon fill="#978169" fill-opacity="0.501961" points="77,98 158,127 72,123" />
<polygon fill="#011113" fill-opacity="0.501961" points="183,127 179,102 188,84" />
<polygon fill="#030011" fill-opacity="0.501961" points="-16,85 19,85 11,68" />
<polygon fill="#cfaf8d" fill-opacity="0.501961" points="165,63 240,89 225,67" />
<polygon fill="#ac9d79" fill-opacity="0.501961" points="198,150 98,173 158,181" />
<polygon fill="#f6a887" fill-opacity="0.501961" points="266,207 261,153 213,199" />
<polygon fill="#594e38" fill-opacity="0.501961" points="179,57 166,59 167,82" />
<polygon fill="#a99b6f" fill-opacity="0.501961" points="244,150 241,176 260,139" />
<polygon fill="#c69f82" fill-opacity="0.501961" points="78,79 84,154 40,120" />
<polygon fill="#000700" fill-opacity="0.501961" points="99,189 108,207 173,181" />
<polygon fill="#e3ab8f" fill-opacity="0.501961" points="235,44 271,47 239,64" />
<polygon fill="#b78c77" fill-opacity="0.501961" points="72,67 36,16 138,15" />
<polygon fill="#271c21" fill-opacity="0.501961" points="44,32 54,45 5,34" />
<polygon fill="#41474b" fill-opacity="0.501961" points="81,57 80,80 62,85" />
<polygon fill="#9f7055" fill-opacity="0.501961" points="125,70 183,22 117,44" />
<polygon fill="#a99473" fill-opacity="0.501961" points="-4,104 27,75 35,89" />
<polygon fill="#141e21" fill-opacity="0.501961" points="-16,100 38,178 37,118" />
<polygon fill="#1a170d" fill-opacity="0.501961" points="55,84 30,106 37,77" />
<polygon fill="#cea07f" fill-opacity="0.501961" points="52,148 34,115 137,161" />
<polygon fill="#a7ab7b" fill-opacity="0.501961" points="271,111 270,136 236,88" />
<polygon fill="#887961" fill-opacity="0.501961" points="109,173 144,172 170,149" />
<polygon fill="#ac918c" fill-opacity="0.501961" points="-16,17 74,17 28,33" />
<polygon fill="#000005" fill-opacity="0.501961" points="111,207 -16,141 2,207" />
<polygon fill="#7b5a44" fill-opacity="0.501961" points="125,76 129,98 137,100" />
<polygon fill="#d8a081" fill-opacity="0.501961" points="55,38 131,93 98,40" />
<polygon fill="#ad9a7d" fill-opacity="0.501961" points="199,106 185,164 183,115" />
<polygon fill="#8e935a" fill-opacity="0.501961" points="37,121 30,109 51,92" />
<polygon fill="#d4a387" fill-opacity="0.501961" points="114,170 174,146 179,112" />
<polygon fill="#8f6a5b" fill-opacity="0.501961" points="193,61 229,67 220,31" />
<polygon fill="#bca073" fill-opacity="0.501961" points="75,60 71,70 55,62" />
<polygon fill="#130c11" fill-opacity="0.501961" points="17,32 27,49 4,28" />
<polygon fill="#95654d" fill-opacity="0.501961" points="106,99 113,77 96,87" />
<polygon fill="#93815f" fill-opacity="0.501961" points="76,174 65,134 102,181" />
<polygon fill="#392a2e" fill-opacity="0.501961" points="152,26 146,36 139,24" />
<polygon fill="#00000a" fill-opacity="0.501961" points="5,98 -16,98 -16,52" />
<polygon fill="#273810" fill-opacity="0.501961" points="54,173 99,198 98,182" />
<polygon fill="#0d1f2b" fill-opacity="0.501961" points="201,138 264,137 210,164" />
<polygon fill="#6f503e" fill-opacity="0.501961" points="83,67 80,58 61,51" />
<polygon fill="#e1ab8a" fill-opacity="0.501961" points="164,79 114,75 167,64" />
<polygon fill="#ccb491" fill-opacity="0.501961" points="193,147 171,172 141,177" />
<polygon fill="#000608" fill-opacity="0.501961" points="234,175 212,175 209,206" />
<polygon fill="#c19174" fill-opacity="0.501961" points="3,61 22,70 3,31" />
<polygon fill="#a7bec8" fill-opacity="0.501961" points="-13,24 43,15 -16,1" />
<polygon fill="#031111" fill-opacity="0.501961" points="47,146 61,155 8,174" />
<polygon fill="#81a8d6" fill-opacity="0.501961" points="99,14 86,-16 206,0" />
<polygon fill="#213140" fill-opacity="0.501961" points="234,135 179,91 271,124" />
<polygon fill="#deb591" fill-opacity="0.501961" points="75,94 58,96 42,120" />
<polygon fill="#224d7a" fill-opacity="0.501961" points="79,72 58,74 62,84" />
<polygon fill="#7f8049" fill-opacity="0.501961" points="196,103 204,136 210,124" />
<polygon fill="#41352b" fill-opacity="0.501961" points="235,91 184,72 222,118" />
<polygon fill="#88815c" fill-opacity="0.501961" points="232,177 250,144 254,157" />
<polygon fill="#1d1722" fill-opacity="0.501961" points="-15,35 -16,89 19,81" />
<polygon fill="#b89685" fill-opacity="0.501961" points="178,14 268,37 250,13" />
<polygon fill="#8d6b5b" fill-opacity="0.501961" points="98,30 90,41 71,26" />
<polygon fill="#737529" fill-opacity="0.501961" points="157,177 122,183 143,185" />
<polygon fill="#000509" fill-opacity="0.501961" points="-3,148 -3,117 22,99" />
<polygon fill="#b39f81" fill-opacity="0.501961" points="10,99 2,88 9,85" />
<polygon fill="#ae8c71" fill-opacity="0.501961" points="176,108 117,145 51,110" />
<polygon fill="#393325" fill-opacity="0.501961" points="29,92 30,137 10,124" />
<polygon fill="#543e3a" fill-opacity="0.501961" points="32,27 21,43 46,33" />
<polygon fill="#a06d4b" fill-opacity="0.501961" points="9,26 9,40 -10,26" />
<polygon fill="#daa382" fill-opacity="0.501961" points="87,42 80,82 100,102" />
<polygon fill="#cfb393" fill-opacity="0.501961" points="81,166 116,170 117,157" />
<polygon fill="#948c4f" fill-opacity="0.501961" points="200,95 193,84 179,84" />
<polygon fill="#181613" fill-opacity="0.501961" points="66,65 65,69 57,71" />
<polygon fill="#a19f66" fill-opacity="0.501961" points="46,100 30,116 29,108" />
<polygon fill="#c29274" fill-opacity="0.501961" points="56,112 144,141 40,136" />
<polygon fill="#c48e6d" fill-opacity="0.501961" points="70,53 143,35 111,23" />
<polygon fill="#997265" fill-opacity="0.501961" points="58,44 45,46 48,52" />
<polygon fill="#dea384" fill-opacity="0.501961" points="177,83 138,84 177,100" />
<polygon fill="#000003" fill-opacity="0.501961" points="1,36 -16,22 2,58" />
<polygon fill="#624233" fill-opacity="0.501961" points="165,83 166,68 178,71" />
<polygon fill="#aea974" fill-opacity="0.501961" points="199,111 183,98 202,128" />
<polygon fill="#ba8e70" fill-opacity="0.501961" points="45,73 41,80 40,58" />
<polygon fill="#000001" fill-opacity="0.501961" points="55,73 46,77 54,69" />
<polygon fill="#726d4e" fill-opacity="0.501961" points="80,173 107,173 89,167" />
<polygon fill="#c49f82" fill-opacity="0.501961" points="250,88 155,63 209,62" />
<polygon fill="#103253" fill-opacity="0.501961" points="180,85 202,102 182,95" />
<polygon fill="#000000" fill-opacity="0.501961" points="182,120 185,104 180,105" />
<polygon fill="#000b10" fill-opacity="0.501961" points="214,147 159,183 195,175" />
<polygon fill="#1f1b26" fill-opacity="0.501961" points="49,36 16,47 32,74" />
<polygon fill="#7ba7d2" fill-opacity="0.501961" points="58,-16 -16,9 105,8" />
<polygon fill="#615f29" fill-opacity="0.501961" points="90,190 94,185 71,180" />
<polygon fill="#998065" fill-opacity="0.501961" points="77,101 72,119 122,121" />
<polygon fill="#000503" fill-opacity="0.501961" points="141,195 116,207 83,178" />
<polygon fill="#584c36" fill-opacity="0.501961" points="247,103 222,86 223,110" />
<polygon fill="#9f7866" fill-opacity="0.501961" points="149,43 222,39 156,23" />
<polygon fill="#d9a884" fill-opacity="0.501961" points="71,152 38,120 42,138" />
<polygon fill="#c99178" fill-opacity="0.501961" points="66,40 46,31 56,50" />
<polygon fill="#7d6252" fill-opacity="0.501961" points="32,67 41,71 42,87" />
<polygon fill="#704d45" fill-opacity="0.501961" points="183,49 185,43 170,49" />
<polygon fill="#766653" fill-opacity="0.501961" points="70,158 73,151 98,161" />
<polygon fill="#d6a383" fill-opacity="0.501961" points="81,155 146,150 66,132" />
<polygon fill="#9e8c8b" fill-opacity="0.501961" points="72,28 27,17 108,14" />
<polygon fill="#c7a38e" fill-opacity="0.501961" points="178,26 202,16 151,15" />
<polygon fill="#5c4339" fill-opacity="0.501961" points="20,28 29,46 22,42" />
<polygon fill="#baa984" fill-opacity="0.501961" points="177,167 198,147 200,117" />
<polygon fill="#b78a70" fill-opacity="0.501961" points="230,83 222,38 263,72" />
<polygon fill="#999274" fill-opacity="0.501961" points="12,97 11,103 -10,101" />
<polygon fill="#bba587" fill-opacity="0.501961" points="255,156 252,144 244,150" />
<polygon fill="#cf9777" fill-opacity="0.501961" points="105,115 134,102 113,72" />
<polygon fill="#ca9c7c" fill-opacity="0.501961" points="180,93 168,76 167,137" />
<polygon fill="#b09688" fill-opacity="0.501961" points="165,18 125,27 97,15" />
<polygon fill="#0d1b1e" fill-opacity="0.501961" points="166,207 214,168 213,124" />
<polygon fill="#6a6145" fill-opacity="0.501961" points="181,135 174,150 166,150" />
<polygon fill="#81744f" fill-opacity="0.501961" points="56,76 51,80 44,74" />
<polygon fill="#14293b" fill-opacity="0.501961" points="214,153 208,107 271,138" />
<polygon fill="#735d45" fill-opacity="0.501961" points="37,90 30,76 28,93" />
<polygon fill="#24351b" fill-opacity="0.501961" points="37,144 54,174 80,185" />
<polygon fill="#cba46a" fill-opacity="0.501961" points="81,176 82,171 69,165" />
<polygon fill="#775a50" fill-opacity="0.501961" points="220,41 210,57 227,63" />
<polygon fill="#95bce1" fill-opacity="0.501961" points="260,11 251,-15 154,13" />
<polygon fill="#6d6650" fill-opacity="0.501961" points="172,68 158,56 177,65" />
<polygon fill="#c49b7b" fill-opacity="0.501961" points="59,67 54,66 55,69" />
<polygon fill="#8d7c61" fill-opacity="0.501961" points="67,132 67,143 58,130" />
<polygon fill="#463638" fill-opacity="0.501961" points="146,25 147,37 153,23" />
<polygon fill="#986d5a" fill-opacity="0.501961" points="242,45 215,33 259,34" />
<polygon fill="#c08b6b" fill-opacity="0.501961" points="142,29 109,57 87,50" />
<polygon fill="#1d1a23" fill-opacity="0.501961" points="41,48 68,60 43,58" />
<polygon fill="#967970" fill-opacity="0.501961" points="27,15 29,28 44,39" />
<polygon fill="#6f6c42" fill-opacity="0.501961" points="197,150 199,133 210,124" />
<polygon fill="#b6a382" fill-opacity="0.501961" points="195,109 184,129 185,110" />
<polygon fill="#d49f88" fill-opacity="0.501961" points="189,40 181,50 212,42" />
<polygon fill="#bb9c81" fill-opacity="0.501961" points="58,115 100,68 65,88" />
<polygon fill="#363029" fill-opacity="0.501961" points="245,122 225,100 186,93" />
<polygon fill="#bb9272" fill-opacity="0.501961" points="103,167 140,161 132,151" />
<polygon fill="#281f24" fill-opacity="0.501961" points="17,75 7,65 -16,99" />
<polygon fill="#1d1821" fill-opacity="0.501961" points="55,73 53,46 45,74" />
<polygon fill="#b6a87b" fill-opacity="0.501961" points="63,71 68,71 73,59" />
<polygon fill="#726f43" fill-opacity="0.501961" points="194,155 182,168 187,155" />
<polygon fill="#af8d73" fill-opacity="0.501961" points="28,89 36,86 20,79" />
<polygon fill="#282024" fill-opacity="0.501961" points="36,40 19,34 44,31" />
<polygon fill="#c28f6b" fill-opacity="0.501961" points="20,31 20,34 13,27" />
<polygon fill="#a7a674" fill-opacity="0.501961" points="188,83 170,75 186,88" />
<polygon fill="#b48e79" fill-opacity="0.501961" points="236,37 271,15 177,19" />
<polygon fill="#d7a588" fill-opacity="0.501961" points="137,60 166,64 165,88" />
<polygon fill="#d1a988" fill-opacity="0.501961" points="248,78 231,87 266,107" />
<polygon fill="#848d65" fill-opacity="0.501961" points="226,84 213,81 238,80" />
<polygon fill="#bc907a" fill-opacity="0.501961" points="69,34 35,29 92,22" />
<polygon fill="#271c1e" fill-opacity="0.501961" points="15,29 7,29 8,36" />
<polygon fill="#060f12" fill-opacity="0.501961" points="229,170 242,141 240,165" />
<polygon fill="#17242b" fill-opacity="0.501961" points="40,139 5,146 34,115" />
<polygon fill="#998870" fill-opacity="0.501961" points="172,157 147,172 125,163" />
<polygon fill="#b9866d" fill-opacity="0.501961" points="193,66 201,56 165,45" />
<polygon fill="#656947" fill-opacity="0.501961" points="4,110 7,100 26,93" />
<polygon fill="#bd9b8f" fill-opacity="0.501961" points="-10,34 31,16 -8,20" />
<polygon fill="#745446" fill-opacity="0.501961" points="107,84 108,80 114,83" />
<polygon fill="#8b6754" fill-opacity="0.501961" points="25,25 8,30 15,23" />
<polygon fill="#031318" fill-opacity="0.501961" points="-12,138 45,153 78,207" />
<polygon fill="#c79b7f" fill-opacity="0.501961" points="89,126 171,148 181,120" />
<polygon fill="#8eb7d8" fill-opacity="0.501961" points="18,2 15,17 71,14" />
<polygon fill="#00020b" fill-opacity="0.501961" points="2,105 -16,77 -12,133" />
<polygon fill="#685f34" fill-opacity="0.501961" points="117,186 134,184 115,181" />
<polygon fill="#716453" fill-opacity="0.501961" points="34,120 40,109 50,107" />
<polygon fill="#a2886c" fill-opacity="0.501961" points="162,111 120,106 119,124" />
<polygon fill="#957261" fill-opacity="0.501961" points="205,36 231,60 216,30" />
</g>
</svg>