<svg xmlns="http://www.w3.org/2000/svg" version="1.1" width="1024" height="768">
<rect x="0" y="0" width="1024" height="768" fill="#7a7469" />
<g transform="scale(4.000000) translate(0.5 0.5)">
<polygon fill="#c9bcb6" fill-opacity="0.501961" points="271,197 253,27 150,186" />
<polygon fill="#2f3e3a" fill-opacity="0.501961" points="40,30 42,169 267,25" />
<polygon fill="#001116" fill-opacity="0.501961" points="135,150 103,147 133,34" />
<polygon fill="#c5c3c1" fill-opacity="0.501961" points="161,13 148,53 197,61" />
<polygon fill="#000000" fill-opacity="0.501961" points="147,15 143,92 125,15" />
<polygon fill="#000002" fill-opacity="0.501961" points="41,56 43,162 65,74" />
<polygon fill="#96a892" fill-opacity="0.501961" points="125,56 81,162 74,53" />
<polygon fill="#00000b" fill-opacity="0.501961" points="184,105 157,119 185,144" />
<polygon fill="#ad9175" fill-opacity="0.501961" points="56,207 2,-16 -16,203" />
<polygon fill="#b09885" fill-opacity="0.501961" points="61,-16 -16,21 75,65" />
<polygon fill="#b39a8a" fill-opacity="0.501961" points="218,142 -1,162 135,207" />
<polygon fill="#000000" fill-opacity="0.501961" points="104,24 108,52 58,45" />
<polygon fill="#72bef1" fill-opacity="0.501961" points="125,103 176,115 141,85" />
<polygon fill="#b1aaa8" fill-opacity="0.501961" points="241,86 213,50 154,115" />
<polygon fill="#070000" fill-opacity="0.501961" points="71,83 114,79 128,94" />
<polygon fill="#002904" fill-opacity="0.501961" points="245,47 206,18 203,52" />
<polygon fill="#b18e7d" fill-opacity="0.501961" points="124,1 125,80 94,82" />
<polygon fill="#000000" fill-opacity="0.501961" points="162,62 192,63 176,97" />
<polygon fill="#666100" fill-opacity="0.501961" points="139,104 166,148 130,148" />
<polygon fill="#48b7ff" fill-opacity="0.501961" points="76,134 126,136 85,146" />
<polygon fill="#a08374" fill-opacity="0.501961" points="64,54 62,86 146,57" />
<polygon fill="#000c00" fill-opacity="0.501961" points="71,91 83,114 73,148" />
<polygon fill="#0f1115" fill-opacity="0.501961" points="159,88 121,84 131,10" />
<polygon fill="#00112b" fill-opacity="0.501961" points="77,152 67,141 113,145" />
<polygon fill="#083330" fill-opacity="0.501961" points="81,132 148,104 128,136" />
<polygon fill="#00060f" fill-opacity="0.501961" points="58,109 56,161 37,143" />
<polygon fill="#a18875" fill-opacity="0.501961" points="53,207 61,94 83,198" />
<polygon fill="#68edb1" fill-opacity="0.501961" points="117,145 108,123 122,123" />
<polygon fill="#7eb7a8" fill-opacity="0.501961" points="77,88 119,93 78,126" />
<polygon fill="#274b60" fill-opacity="0.501961" points="194,137 147,84 193,112" />
<polygon fill="#000000" fill-opacity="0.501961" points="70,93 49,89 88,85" />
<polygon fill="#b1a497" fill-opacity="0.501961" points="-16,6 94,11 81,-16" />
<polygon fill="#80b4e7" fill-opacity="0.501961" points="159,119 126,105 166,99" />
<polygon fill="#9d7e6c" fill-opacity="0.501961" points="154,80 171,84 147,27" />
<polygon fill="#c9b20b" fill-opacity="0.501961" points="162,123 163,144 130,122" />
<polygon fill="#2e848e" fill-opacity="0.501961" points="124,86 142,100 173,91" />
<polygon fill="#6dbd48" fill-opacity="0.501961" points="85,135 117,104 77,112" />
<polygon fill="#866f54" fill-opacity="0.501961" points="36,143 20,62 47,77" />
<polygon fill="#000000" fill-opacity="0.501961" points="107,133 108,149 121,148" />
<polygon fill="#071232" fill-opacity="0.501961" points="121,126 146,118 147,103" />
<polygon fill="#060000" fill-opacity="0.501961" points="150,93 145,106 141,93" />
<polygon fill="#70c2ff" fill-opacity="0.501961" points="105,133 106,145 77,142" />
<polygon fill="#06060e" fill-opacity="0.501961" points="115,107 133,140 127,71" />
<polygon fill="#000511" fill-opacity="0.501961" points="74,26 110,50 78,53" />
<polygon fill="#745b49" fill-opacity="0.501961" points="160,-16 209,32 179,50" />
<polygon fill="#62e4f3" fill-opacity="0.501961" points="158,87 167,93 139,91" />
<polygon fill="#a49890" fill-opacity="0.501961" points="205,167 234,61 184,75" />
<polygon fill="#c2ac15" fill-opacity="0.501961" points="132,141 164,144 135,126" />
<polygon fill="#a5968a" fill-opacity="0.501961" points="69,149 205,207 207,150" />
<polygon fill="#0e3b1e" fill-opacity="0.501961" points="222,59 235,15 202,45" />
<polygon fill="#9f9b88" fill-opacity="0.501961" points="235,40 271,67 271,15" />
<polygon fill="#a39484" fill-opacity="0.501961" points="101,24 129,60 121,23" />
<polygon fill="#00000d" fill-opacity="0.501961" points="137,146 168,148 157,142" />
<polygon fill="#000000" fill-opacity="0.501961" points="81,109 73,99 71,126" />
<polygon fill="#a1bbc2" fill-opacity="0.501961" points="155,54 172,56 171,15" />
<polygon fill="#000706" fill-opacity="0.501961" points="145,85 170,80 186,91" />
<polygon fill="#908174" fill-opacity="0.501961" points="65,81 131,80 61,44" />
<polygon fill="#5292c4" fill-opacity="0.501961" points="188,142 178,114 196,133" />
<polygon fill="#9b8878" fill-opacity="0.501961" points="53,97 66,127 66,96" />
<polygon fill="#000000" fill-opacity="0.501961" points="97,135 100,122 117,119" />
<polygon fill="#09161d" fill-opacity="0.501961" points="62,60 44,60 53,118" />
<polygon fill="#a9927c" fill-opacity="0.501961" points="151,62 153,56 132,58" />
<polygon fill="#8e7d6c" fill-opacity="0.501961" points="221,189 45,157 11,207" />
<polygon fill="#808aa6" fill-opacity="0.501961" points="82,88 116,100 105,122" />
<polygon fill="#1c2018" fill-opacity="0.501961" points="147,128 156,133 143,137" />
<polygon fill="#000003" fill-opacity="0.501961" points="168,93 149,94 165,100" />
<polygon fill="#262827" fill-opacity="0.501961" points="192,113 165,106 178,143" />
<polygon fill="#99837d" fill-opacity="0.501961" points="168,103 167,86 219,118" />
<polygon fill="#b1a8a0" fill-opacity="0.501961" points="169,126 177,147 161,171" />
<polygon fill="#85725b" fill-opacity="0.501961" points="54,81 59,92 69,76" />
<polygon fill="#1fa3da" fill-opacity="0.501961" points="107,90 116,98 94,95" />
<polygon fill="#7d6d5b" fill-opacity="0.501961" points="77,37 19,73 19,45" />
<polygon fill="#85bfdb" fill-opacity="0.501961" points="130,86 133,110 138,90" />
<polygon fill="#000011" fill-opacity="0.501961" points="142,115 139,121 158,121" />
<polygon fill="#000000" fill-opacity="0.501961" points="141,148 122,148 130,142" />
<polygon fill="#8b705e" fill-opacity="0.501961" points="49,18 171,-9 105,30" />
<polygon fill="#000006" fill-opacity="0.501961" points="128,77 149,79 154,59" />
<polygon fill="#174e31" fill-opacity="0.501961" points="245,24 207,53 227,60" />
<polygon fill="#a19791" fill-opacity="0.501961" points="183,72 201,142 271,75" />
<polygon fill="#7c6c5e" fill-opacity="0.501961" points="149,81 110,83 94,69" />
<polygon fill="#b0a59d" fill-opacity="0.501961" points="271,108 186,129 264,207" />
<polygon fill="#a1d1f6" fill-opacity="0.501961" points="157,98 147,99 146,115" />
<polygon fill="#000011" fill-opacity="0.501961" points="89,134 72,134 72,124" />
<polygon fill="#54cba3" fill-opacity="0.501961" points="133,139 112,138 126,144" />
<polygon fill="#ad9c8e" fill-opacity="0.501961" points="213,71 193,56 199,87" />
<polygon fill="#000005" fill-opacity="0.501961" points="176,120 174,136 188,142" />
<polygon fill="#000000" fill-opacity="0.501961" points="73,99 80,84 69,84" />
<polygon fill="#867c7a" fill-opacity="0.501961" points="172,93 194,113 252,108" />
<polygon fill="#6eb0ff" fill-opacity="0.501961" points="99,142 77,144 80,132" />
<polygon fill="#a0bac0" fill-opacity="0.501961" points="155,53 169,17 155,20" />
<polygon fill="#000d1a" fill-opacity="0.501961" points="126,15 147,54 145,19" />
<polygon fill="#bda821" fill-opacity="0.501961" points="133,119 134,143 150,144" />
<polygon fill="#020c10" fill-opacity="0.501961" points="57,153 54,71 40,117" />
<polygon fill="#030007" fill-opacity="0.501961" points="123,108 134,144 121,131" />
<polygon fill="#333f4e" fill-opacity="0.501961" points="118,120 144,107 124,106" />
<polygon fill="#a18978" fill-opacity="0.501961" points="178,-16 203,22 242,-5" />
<polygon fill="#986a1f" fill-opacity="0.501961" points="105,111 107,97 97,103" />
<polygon fill="#775d43" fill-opacity="0.501961" points="44,158 42,123 33,144" />
<polygon fill="#a7b0d7" fill-opacity="0.501961" points="80,105 77,97 104,90" />
<polygon fill="#a99682" fill-opacity="0.501961" points="49,87 27,76 24,59" />
<polygon fill="#92afc2" fill-opacity="0.501961" points="200,48 214,62 204,61" />
<polygon fill="#02030c" fill-opacity="0.501961" points="103,90 129,83 87,83" />
<polygon fill="#000000" fill-opacity="0.501961" points="101,150 84,146 117,143" />
<polygon fill="#6b85a8" fill-opacity="0.501961" points="130,114 142,116 139,110" />
<polygon fill="#8e8677" fill-opacity="0.501961" points="255,25 264,5 221,29" />
<polygon fill="#3d6a8c" fill-opacity="0.501961" points="182,137 180,109 188,130" />
<polygon fill="#654d3a" fill-opacity="0.501961" points="161,66 176,55 149,56" />
<polygon fill="#a19080" fill-opacity="0.501961" points="109,27 124,55 107,62" />
<polygon fill="#000915" fill-opacity="0.501961" points="84,29 105,29 108,47" />
<polygon fill="#051b08" fill-opacity="0.501961" points="216,18 208,25 215,49" />
<polygon fill="#9ed5ff" fill-opacity="0.501961" points="165,104 154,97 161,98" />
<polygon fill="#89bfe3" fill-opacity="0.501961" points="146,114 156,119 172,107" />
<polygon fill="#8b7c6e" fill-opacity="0.501961" points="147,54 150,20 163,82" />
<polygon fill="#8a8379" fill-opacity="0.501961" points="259,33 265,71 224,64" />
<polygon fill="#000a10" fill-opacity="0.501961" points="167,63 192,62 171,83" />
<polygon fill="#a99c92" fill-opacity="0.501961" points="143,171 110,148 221,148" />
<polygon fill="#86cb36" fill-opacity="0.501961" points="76,123 85,130 82,109" />
<polygon fill="#9f958b" fill-opacity="0.501961" points="253,53 183,103 182,75" />
<polygon fill="#b1d0f7" fill-opacity="0.501961" points="144,103 130,107 137,95" />
<polygon fill="#8c002b" fill-opacity="0.501961" points="88,105 92,102 83,101" />
<polygon fill="#3c3c31" fill-opacity="0.501961" points="33,42 46,41 23,53" />
<polygon fill="#938474" fill-opacity="0.501961" points="81,27 13,52 14,-7" />
<polygon fill="#031019" fill-opacity="0.501961" points="128,51 146,55 126,20" />
<polygon fill="#634e40" fill-opacity="0.501961" points="173,16 154,6 158,17" />
<polygon fill="#ac9a2a" fill-opacity="0.501961" points="152,127 145,144 162,144" />
<polygon fill="#918270" fill-opacity="0.501961" points="107,45 138,61 107,61" />
<polygon fill="#9d9184" fill-opacity="0.501961" points="36,45 81,70 68,45" />
<polygon fill="#344e2c" fill-opacity="0.501961" points="247,5 231,14 230,23" />
<polygon fill="#402f21" fill-opacity="0.501961" points="165,94 168,70 175,85" />
<polygon fill="#18272f" fill-opacity="0.501961" points="57,58 37,60 66,83" />
<polygon fill="#49bac3" fill-opacity="0.501961" points="164,94 165,87 148,88" />
<polygon fill="#000009" fill-opacity="0.501961" points="75,148 83,149 73,133" />
<polygon fill="#a19485" fill-opacity="0.501961" points="219,3 131,0 198,-16" />
<polygon fill="#33566b" fill-opacity="0.501961" points="60,72 44,70 43,63" />
<polygon fill="#98837b" fill-opacity="0.501961" points="190,89 170,94 166,114" />
<polygon fill="#a7c0ec" fill-opacity="0.501961" points="76,95 80,88 92,89" />
<polygon fill="#0f2535" fill-opacity="0.501961" points="177,107 194,127 193,114" />
<polygon fill="#ac9e92" fill-opacity="0.501961" points="271,190 176,139 146,167" />
<polygon fill="#a08b7c" fill-opacity="0.501961" points="158,67 165,78 150,81" />
<polygon fill="#000610" fill-opacity="0.501961" points="173,86 182,90 181,66" />
<polygon fill="#4796ae" fill-opacity="0.501961" points="94,92 109,88 113,100" />
<polygon fill="#000002" fill-opacity="0.501961" points="147,148 150,143 131,146" />
<polygon fill="#00000f" fill-opacity="0.501961" points="104,133 113,119 88,133" />
<polygon fill="#5db342" fill-opacity="0.501961" points="75,117 94,107 93,134" />
<polygon fill="#11161b" fill-opacity="0.501961" points="144,69 132,61 112,73" />
<polygon fill="#917b6b" fill-opacity="0.501961" points="58,149 98,207 105,149" />
<polygon fill="#001012" fill-opacity="0.501961" points="102,83 120,90 140,85" />
<polygon fill="#a09382" fill-opacity="0.501961" points="28,153 11,174 90,168" />
<polygon fill="#000000" fill-opacity="0.501961" points="116,148 131,147 106,140" />
<polygon fill="#877a6f" fill-opacity="0.501961" points="69,95 57,117 59,91" />
<polygon fill="#92dfff" fill-opacity="0.501961" points="188,138 192,130 186,131" />
<polygon fill="#887061" fill-opacity="0.501961" points="173,25 200,62 173,60" />
<polygon fill="#5b422d" fill-opacity="0.501961" points="165,112 173,137 174,109" />
<polygon fill="#0b181e" fill-opacity="0.501961" points="72,49 83,30 109,53" />
<polygon fill="#32352c" fill-opacity="0.501961" points="32,85 20,73 22,66" />
<polygon fill="#081923" fill-opacity="0.501961" points="57,155 57,135 42,155" />
<polygon fill="#41401d" fill-opacity="0.501961" points="158,134 148,127 139,133" />
<polygon fill="#030102" fill-opacity="0.501961" points="126,113 112,116 120,89" />
<polygon fill="#bfdfff" fill-opacity="0.501961" points="93,105 85,109 82,105" />
<polygon fill="#000811" fill-opacity="0.501961" points="61,90 74,93 88,83" />
<polygon fill="#968a79" fill-opacity="0.501961" points="36,100 19,99 19,66" />
<polygon fill="#816454" fill-opacity="0.501961" points="268,15 265,-2 208,9" />
<polygon fill="#7f7264" fill-opacity="0.501961" points="57,82 90,68 109,83" />
<polygon fill="#000000" fill-opacity="0.501961" points="109,131 105,145 113,141" />
<polygon fill="#538baf" fill-opacity="0.501961" points="115,107 114,95 102,121" />
<polygon fill="#999184" fill-opacity="0.501961" points="219,30 226,12 214,12" />
<polygon fill="#ae9d25" fill-opacity="0.501961" points="155,143 133,144 142,133" />
<polygon fill="#928275" fill-opacity="0.501961" points="57,123 67,99 67,157" />
<polygon fill="#708d93" fill-opacity="0.501961" points="126,118 115,115 127,115" />
<polygon fill="#467b87" fill-opacity="0.501961" points="134,87 136,93 124,104" />
<polygon fill="#67584b" fill-opacity="0.501961" points="206,64 190,1 172,36" />
<polygon fill="#000000" fill-opacity="0.501961" points="145,99 151,93 158,94" />
<polygon fill="#705a41" fill-opacity="0.501961" points="43,148 31,118 37,85" />
<polygon fill="#dee350" fill-opacity="0.501961" points="92,130 83,130 84,125" />
<polygon fill="#80d8d0" fill-opacity="0.501961" points="117,128 112,124 111,129" />
<polygon fill="#b3acaa" fill-opacity="0.501961" points="242,128 196,113 271,117" />
<polygon fill="#000a11" fill-opacity="0.501961" points="192,60 178,69 193,71" />
<polygon fill="#435f6d" fill-opacity="0.501961" points="80,74 96,69 108,74" />
<polygon fill="#66a9ea" fill-opacity="0.501961" points="102,145 78,132 78,143" />
<polygon fill="#83786b" fill-opacity="0.501961" points="124,37 127,7 97,26" />
<polygon fill="#c0ae30" fill-opacity="0.501961" points="132,129 154,128 137,122" />
<polygon fill="#070e12" fill-opacity="0.501961" points="152,65 129,79 121,73" />
<polygon fill="#322f28" fill-opacity="0.501961" points="27,50 20,57 21,66" />
<polygon fill="#0c1119" fill-opacity="0.501961" points="153,131 155,134 157,128" />
<polygon fill="#3873a8" fill-opacity="0.501961" points="168,139 163,150 164,125" />
<polygon fill="#c4b02a" fill-opacity="0.501961" points="150,125 157,140 150,135" />
<polygon fill="#97908a" fill-opacity="0.501961" points="230,47 259,70 240,69" />
<polygon fill="#000000" fill-opacity="0.501961" points="73,124 75,118 82,133" />
<polygon fill="#050202" fill-opacity="0.501961" points="207,48 227,46 216,40" />
<polygon fill="#395e79" fill-opacity="0.501961" points="192,120 184,139 177,113" />
<polygon fill="#a4978d" fill-opacity="0.501961" points="180,61 192,60 178,46" />
<polygon fill="#27150b" fill-opacity="0.501961" points="199,58 191,51 195,46" />
<polygon fill="#1b4422" fill-opacity="0.501961" points="232,43 218,40 247,26" />
<polygon fill="#2d6841" fill-opacity="0.501961" points="215,35 202,34 200,46" />
<polygon fill="#00002d" fill-opacity="0.501961" points="91,131 89,135 79,131" />
<polygon fill="#271d19" fill-opacity="0.501961" points="124,123 115,114 104,117" />
<polygon fill="#3b2d54" fill-opacity="0.501961" points="99,112 90,109 95,108" />
<polygon fill="#051216" fill-opacity="0.501961" points="106,31 75,38 76,29" />
<polygon fill="#5e8081" fill-opacity="0.501961" points="158,111 149,105 153,114" />
<polygon fill="#000c1a" fill-opacity="0.501961" points="128,115 130,121 151,119" />
</g>
</svg>