<svg xmlns="http://www.w3.org/2000/svg" version="1.1" width="1024" height="768">
<rect x="0" y="0" width="1024" height="768" fill="#6b635a" />
<g transform="scale(4.000000) translate(0.5 0.5)">
<polygon fill="#e1beb0" fill-opacity="0.501961" points="26,136 -14,-16 194,66" />
<polygon fill="#001e08" fill-opacity="0.501961" points="221,207 271,2 161,-16" />
<polygon fill="#111423" fill-opacity="0.501961" points="237,201 159,107 40,198" />
<polygon fill="#ffffff" fill-opacity="0.501961" points="104,77 100,52 188,64" />
<polygon fill="#b07666" fill-opacity="0.501961" points="91,114 137,56 232,122" />
<polygon fill="#9d8474" fill-opacity="0.501961" points="149,63 153,-16 -16,6" />
<polygon fill="#dab6ad" fill-opacity="0.501961" points="140,174 119,154 125,207" />
<polygon fill="#234027" fill-opacity="0.501961" points="271,7 265,204 144,-6" />
<polygon fill="#ffffff" fill-opacity="0.501961" points="176,52 144,59 167,85" />
<polygon fill="#282c37" fill-opacity="0.501961" points="112,207 61,161 131,83" />
<polygon fill="#040f1b" fill-opacity="0.501961" points="190,207 183,104 142,163" />
<polygon fill="#e29681" fill-opacity="0.501961" points="59,207 14,188 61,152" />
<polygon fill="#d4eaf7" fill-opacity="0.501961" points="75,98 61,144 75,133" />
<polygon fill="#fbb59c" fill-opacity="0.501961" points="195,95 183,126 198,150" />
<polygon fill="#d4c6c2" fill-opacity="0.501961" points="196,155 197,196 182,204" />
<polygon fill="#bba59a" fill-opacity="0.501961" points="73,35 -9,78 112,123" />
<polygon fill="#9c6f54" fill-opacity="0.501961" points="-16,8 10,131 36,-16" />
<polygon fill="#5e3830" fill-opacity="0.501961" points="130,92 180,81 81,74" />
<polygon fill="#09264a" fill-opacity="0.501961" points="70,109 56,156 50,120" />
<polygon fill="#f9b2b4" fill-opacity="0.501961" points="179,90 165,110 141,88" />
<polygon fill="#dd9e8c" fill-opacity="0.501961" points="230,139 192,100 211,105" />
<polygon fill="#655950" fill-opacity="0.501961" points="140,75 154,41 109,33" />
<polygon fill="#8c7c6e" fill-opacity="0.501961" points="46,200 49,118 -3,84" />
<polygon fill="#ffffff" fill-opacity="0.501961" points="90,64 129,62 111,49" />
<polygon fill="#070819" fill-opacity="0.501961" points="210,131 224,170 191,185" />
<polygon fill="#e8a17d" fill-opacity="0.501961" points="208,181 217,205 141,207" />
<polygon fill="#9a734c" fill-opacity="0.501961" points="153,32 122,92 130,150" />
<polygon fill="#ffffff" fill-opacity="0.501961" points="144,75 181,63 164,52" />
<polygon fill="#e8bdd5" fill-opacity="0.501961" points="101,118 83,111 111,79" />
<polygon fill="#343d33" fill-opacity="0.501961" points="210,60 159,-16 154,51" />
<polygon fill="#aca190" fill-opacity="0.501961" points="149,95 153,142 142,130" />
<polygon fill="#978579" fill-opacity="0.501961" points="15,-16 155,7 84,69" />
<polygon fill="#303e55" fill-opacity="0.501961" points="82,105 57,181 110,152" />
<polygon fill="#ece4e2" fill-opacity="0.501961" points="131,185 120,177 119,161" />
<polygon fill="#b8cddd" fill-opacity="0.501961" points="150,179 163,189 153,171" />
<polygon fill="#314332" fill-opacity="0.501961" points="270,40 249,189 216,153" />
<polygon fill="#adb3ba" fill-opacity="0.501961" points="129,145 125,112 134,127" />
<polygon fill="#000004" fill-opacity="0.501961" points="159,207 143,150 139,179" />
<polygon fill="#d3bdb8" fill-opacity="0.501961" points="192,122 206,162 190,146" />
<polygon fill="#18162b" fill-opacity="0.501961" points="195,136 227,165 197,110" />
<polygon fill="#000e18" fill-opacity="0.501961" points="156,105 166,137 150,125" />
<polygon fill="#f57540" fill-opacity="0.501961" points="214,117 227,129 223,143" />
<polygon fill="#000012" fill-opacity="0.501961" points="96,77 98,65 92,66" />
<polygon fill="#ffffff" fill-opacity="0.501961" points="146,67 170,54 183,68" />
<polygon fill="#d5d6d8" fill-opacity="0.501961" points="70,118 63,125 83,137" />
<polygon fill="#815248" fill-opacity="0.501961" points="133,207 126,155 142,150" />
<polygon fill="#ffffff" fill-opacity="0.501961" points="101,58 131,76 122,55" />
<polygon fill="#111313" fill-opacity="0.501961" points="135,160 192,155 189,187" />
<polygon fill="#101a21" fill-opacity="0.501961" points="129,111 145,127 141,150" />
<polygon fill="#ffb8bc" fill-opacity="0.501961" points="170,68 154,81 179,79" />
<polygon fill="#96a8b1" fill-opacity="0.501961" points="232,207 229,169 252,207" />
<polygon fill="#efaeb2" fill-opacity="0.501961" points="108,106 85,73 118,98" />
<polygon fill="#44563a" fill-opacity="0.501961" points="33,151 5,147 8,205" />
<polygon fill="#c5f7ff" fill-opacity="0.501961" points="159,187 202,200 185,207" />
<polygon fill="#7f7066" fill-opacity="0.501961" points="119,-16 66,86 124,30" />
<polygon fill="#a19285" fill-opacity="0.501961" points="128,91 130,-1 156,14" />
<polygon fill="#9b5f39" fill-opacity="0.501961" points="125,86 100,120 161,87" />
<polygon fill="#3d4551" fill-opacity="0.501961" points="120,166 128,115 73,124" />
<polygon fill="#ae9584" fill-opacity="0.501961" points="45,11 9,78 120,13" />
<polygon fill="#2d3440" fill-opacity="0.501961" points="180,100 158,153 189,159" />
<polygon fill="#373f4a" fill-opacity="0.501961" points="129,51 134,33 111,52" />
<polygon fill="#2b3237" fill-opacity="0.501961" points="70,131 131,201 60,199" />
<polygon fill="#747566" fill-opacity="0.501961" points="10,119 -16,169 70,109" />
<polygon fill="#374737" fill-opacity="0.501961" points="193,101 229,87 173,68" />
<polygon fill="#5e4757" fill-opacity="0.501961" points="108,63 116,70 97,63" />
<polygon fill="#c7856d" fill-opacity="0.501961" points="64,182 46,149 44,207" />
<polygon fill="#c29ba0" fill-opacity="0.501961" points="173,117 168,127 165,119" />
<polygon fill="#495163" fill-opacity="0.501961" points="122,150 95,119 63,153" />
<polygon fill="#d1d7e3" fill-opacity="0.501961" points="61,148 66,138 62,159" />
<polygon fill="#050501" fill-opacity="0.501961" points="127,153 142,127 137,152" />
<polygon fill="#f7ffff" fill-opacity="0.501961" points="149,57 144,80 170,53" />
<polygon fill="#c1b0a2" fill-opacity="0.501961" points="195,109 177,96 217,109" />
<polygon fill="#3f3a24" fill-opacity="0.501961" points="138,45 170,42 195,-6" />
<polygon fill="#aea9a8" fill-opacity="0.501961" points="44,115 94,101 92,68" />
<polygon fill="#2d323c" fill-opacity="0.501961" points="65,124 58,161 48,148" />
<polygon fill="#525168" fill-opacity="0.501961" points="144,83 166,69 150,73" />
<polygon fill="#43322f" fill-opacity="0.501961" points="124,85 129,79 120,71" />
<polygon fill="#eeb2bc" fill-opacity="0.501961" points="168,105 164,79 157,106" />
<polygon fill="#af614a" fill-opacity="0.501961" points="179,98 187,68 164,94" />
<polygon fill="#171817" fill-opacity="0.501961" points="113,204 59,190 126,181" />
<polygon fill="#98948f" fill-opacity="0.501961" points="143,124 143,146 150,125" />
<polygon fill="#826361" fill-opacity="0.501961" points="99,106 91,92 116,114" />
<polygon fill="#dff5ff" fill-opacity="0.501961" points="192,164 195,157 195,175" />
<polygon fill="#171a26" fill-opacity="0.501961" points="231,177 225,207 196,130" />
<polygon fill="#4a5f56" fill-opacity="0.501961" points="202,101 267,134 229,132" />
<polygon fill="#916d59" fill-opacity="0.501961" points="1,-16 -9,50 45,6" />
<polygon fill="#dac0c7" fill-opacity="0.501961" points="84,110 104,92 95,119" />
<polygon fill="#1f1f1e" fill-opacity="0.501961" points="119,103 113,120 126,129" />
<polygon fill="#fbffff" fill-opacity="0.501961" points="172,60 186,74 183,65" />
<polygon fill="#472b3b" fill-opacity="0.501961" points="100,73 110,77 102,87" />
<polygon fill="#ffffff" fill-opacity="0.501961" points="131,72 92,59 116,53" />
<polygon fill="#404a43" fill-opacity="0.501961" points="187,75 192,16 171,33" />
<polygon fill="#e3e1df" fill-opacity="0.501961" points="120,164 124,156 124,173" />
<polygon fill="#cd8766" fill-opacity="0.501961" points="186,95 199,105 186,131" />
<polygon fill="#cfe1f0" fill-opacity="0.501961" points="188,130 199,141 190,123" />
<polygon fill="#8e7b72" fill-opacity="0.501961" points="51,119 -8,86 46,164" />
<polygon fill="#181e27" fill-opacity="0.501961" points="162,184 161,125 142,156" />
<polygon fill="#293c5c" fill-opacity="0.501961" points="199,121 197,106 217,126" />
<polygon fill="#572711" fill-opacity="0.501961" points="-16,117 6,125 0,94" />
<polygon fill="#2e0115" fill-opacity="0.501961" points="172,82 165,84 173,88" />
<polygon fill="#1b2329" fill-opacity="0.501961" points="177,97 181,126 185,105" />
<polygon fill="#eac9d5" fill-opacity="0.501961" points="149,80 173,78 160,73" />
<polygon fill="#0e110d" fill-opacity="0.501961" points="197,169 209,162 194,187" />
<polygon fill="#cf6858" fill-opacity="0.501961" points="121,88 103,86 111,94" />
<polygon fill="#dddee8" fill-opacity="0.501961" points="72,120 68,133 63,129" />
<polygon fill="#e17e5b" fill-opacity="0.501961" points="111,118 103,110 113,108" />
<polygon fill="#915d2c" fill-opacity="0.501961" points="142,104 124,115 143,58" />
<polygon fill="#b1a298" fill-opacity="0.501961" points="87,43 112,29 108,44" />
<polygon fill="#2c0e1e" fill-opacity="0.501961" points="163,88 148,77 150,84" />
<polygon fill="#b3bbe5" fill-opacity="0.501961" points="100,78 97,74 106,63" />
<polygon fill="#906260" fill-opacity="0.501961" points="185,78 173,68 165,69" />
<polygon fill="#465d7e" fill-opacity="0.501961" points="66,124 72,108 51,114" />
<polygon fill="#4d5066" fill-opacity="0.501961" points="180,43 143,51 180,54" />
<polygon fill="#7e6c60" fill-opacity="0.501961" points="78,75 93,65 94,31" />
<polygon fill="#403e1d" fill-opacity="0.501961" points="163,22 203,-16 146,-4" />
<polygon fill="#a86868" fill-opacity="0.501961" points="111,66 124,77 118,68" />
<polygon fill="#bcab9c" fill-opacity="0.501961" points="49,75 79,29 49,129" />
<polygon fill="#223c26" fill-opacity="0.501961" points="185,50 234,54 187,97" />
<polygon fill="#191d22" fill-opacity="0.501961" points="195,153 186,138 185,184" />
<polygon fill="#2e6146" fill-opacity="0.501961" points="228,73 245,85 184,91" />
<polygon fill="#ceccac" fill-opacity="0.501961" points="135,83 127,63 128,80" />
<polygon fill="#2b2821" fill-opacity="0.501961" points="108,182 105,163 127,148" />
<polygon fill="#7c625e" fill-opacity="0.501961" points="132,207 127,173 143,143" />
<polygon fill="#b3a69d" fill-opacity="0.501961" points="146,5 106,16 137,16" />
<polygon fill="#7c6a5d" fill-opacity="0.501961" points="111,37 115,8 147,26" />
<polygon fill="#fcfffb" fill-opacity="0.501961" points="175,56 184,69 158,66" />
<polygon fill="#402e1f" fill-opacity="0.501961" points="121,95 129,97 109,109" />
<polygon fill="#cf9d8c" fill-opacity="0.501961" points="63,157 47,161 44,181" />
<polygon fill="#1d2d21" fill-opacity="0.501961" points="240,152 271,166 271,117" />
<polygon fill="#ad8b8c" fill-opacity="0.501961" points="145,98 172,96 143,85" />
<polygon fill="#06000f" fill-opacity="0.501961" points="225,145 227,132 231,141" />
<polygon fill="#565d65" fill-opacity="0.501961" points="126,35 104,37 135,55" />
<polygon fill="#98532f" fill-opacity="0.501961" points="62,162 44,207 57,207" />
<polygon fill="#925c36" fill-opacity="0.501961" points="142,39 157,25 150,54" />
<polygon fill="#e7a08e" fill-opacity="0.501961" points="159,97 182,88 171,104" />
<polygon fill="#4f6049" fill-opacity="0.501961" points="228,176 228,148 271,176" />
<polygon fill="#44211d" fill-opacity="0.501961" points="116,85 125,81 111,79" />
<polygon fill="#a7816a" fill-opacity="0.501961" points="-16,52 12,82 39,7" />
<polygon fill="#977e7b" fill-opacity="0.501961" points="2,207 46,207 37,162" />
<polygon fill="#e5ecf0" fill-opacity="0.501961" points="69,127 79,107 70,114" />
<polygon fill="#0c1318" fill-opacity="0.501961" points="149,207 151,163 137,158" />
<polygon fill="#8ea29e" fill-opacity="0.501961" points="75,104 84,97 75,125" />
<polygon fill="#302628" fill-opacity="0.501961" points="112,123 93,120 117,117" />
<polygon fill="#725f4f" fill-opacity="0.501961" points="94,14 145,-16 122,10" />
<polygon fill="#b3a191" fill-opacity="0.501961" points="96,-5 98,12 125,-8" />
<polygon fill="#354b38" fill-opacity="0.501961" points="-11,201 10,176 22,182" />
<polygon fill="#ffffff" fill-opacity="0.501961" points="152,55 145,76 176,57" />
<polygon fill="#423d37" fill-opacity="0.501961" points="101,32 95,32 108,19" />
<polygon fill="#cd9478" fill-opacity="0.501961" points="202,148 187,136 193,149" />
<polygon fill="#a87459" fill-opacity="0.501961" points="207,190 187,188 206,181" />
<polygon fill="#97877a" fill-opacity="0.501961" points="83,24 60,90 86,60" />
<polygon fill="#2a1812" fill-opacity="0.501961" points="108,109 102,106 109,105" />
<polygon fill="#bca6a7" fill-opacity="0.501961" points="86,102 95,83 91,59" />
<polygon fill="#4b341f" fill-opacity="0.501961" points="169,-11 177,-1 132,6" />
<polygon fill="#6e4d42" fill-opacity="0.501961" points="215,198 205,207 210,167" />
<polygon fill="#2c3644" fill-opacity="0.501961" points="96,97 92,95 93,91" />
<polygon fill="#4d6a4a" fill-opacity="0.501961" points="15,135 2,161 32,129" />
<polygon fill="#292f39" fill-opacity="0.501961" points="178,117 194,159 142,150" />
<polygon fill="#253227" fill-opacity="0.501961" points="271,125 257,-16 237,64" />
<polygon fill="#303d4d" fill-opacity="0.501961" points="72,130 85,106 84,122" />
<polygon fill="#29252e" fill-opacity="0.501961" points="226,188 195,120 229,148" />
<polygon fill="#df8874" fill-opacity="0.501961" points="111,101 109,84 126,91" />
<polygon fill="#707065" fill-opacity="0.501961" points="24,162 20,177 -14,180" />
<polygon fill="#c7caca" fill-opacity="0.501961" points="66,133 70,127 81,132" />
<polygon fill="#b79c88" fill-opacity="0.501961" points="9,103 59,88 36,20" />
<polygon fill="#9f8a84" fill-opacity="0.501961" points="136,64 153,57 126,49" />
<polygon fill="#434844" fill-opacity="0.501961" points="230,29 247,32 228,63" />
<polygon fill="#35404e" fill-opacity="0.501961" points="67,121 47,151 54,123" />
<polygon fill="#1e3825" fill-opacity="0.501961" points="200,101 215,85 255,117" />
<polygon fill="#9b7272" fill-opacity="0.501961" points="137,166 132,184 141,207" />
<polygon fill="#c5b8ad" fill-opacity="0.501961" points="70,105 67,83 54,114" />
<polygon fill="#366e4b" fill-opacity="0.501961" points="242,107 230,101 267,96" />
<polygon fill="#ffffff" fill-opacity="0.501961" points="123,69 98,57 114,51" />
<polygon fill="#bea69e" fill-opacity="0.501961" points="191,96 202,110 183,97" />
<polygon fill="#b5c7d5" fill-opacity="0.501961" points="201,146 192,138 201,153" />
<polygon fill="#8e9faa" fill-opacity="0.501961" points="207,105 219,111 198,108" />
<polygon fill="#9e9592" fill-opacity="0.501961" points="89,80 70,105 93,104" />
<polygon fill="#c7bfbc" fill-opacity="0.501961" points="118,171 129,184 123,157" />
<polygon fill="#544a4b" fill-opacity="0.501961" points="105,65 92,64 81,70" />
<polygon fill="#2d2521" fill-opacity="0.501961" points="185,82 199,82 176,69" />
<polygon fill="#b09e8f" fill-opacity="0.501961" points="84,77 92,53 101,53" />
<polygon fill="#866867" fill-opacity="0.501961" points="178,106 158,108 167,128" />
<polygon fill="#a99994" fill-opacity="0.501961" points="180,207 192,194 193,175" />
<polygon fill="#b39c90" fill-opacity="0.501961" points="145,7 155,9 144,24" />
<polygon fill="#b4aaa9" fill-opacity="0.501961" points="202,184 176,205 208,207" />
<polygon fill="#bed1e1" fill-opacity="0.501961" points="155,178 150,179 153,174" />
<polygon fill="#887a74" fill-opacity="0.501961" points="77,20 82,62 88,33" />
<polygon fill="#f6fbdb" fill-opacity="0.501961" points="126,58 129,78 116,58" />
<polygon fill="#32363e" fill-opacity="0.501961" points="62,196 66,146 116,181" />
<polygon fill="#897466" fill-opacity="0.501961" points="1,144 9,101 35,118" />
<polygon fill="#a16e45" fill-opacity="0.501961" points="137,113 112,104 155,99" />
<polygon fill="#181a1a" fill-opacity="0.501961" points="142,117 139,150 133,130" />
<polygon fill="#6d2d3a" fill-opacity="0.501961" points="161,83 149,88 159,90" />
<polygon fill="#5d3326" fill-opacity="0.501961" points="128,176 138,158 127,169" />
<polygon fill="#8b9191" fill-opacity="0.501961" points="231,190 228,167 248,206" />
<polygon fill="#c7a7b9" fill-opacity="0.501961" points="160,108 164,85 153,99" />
<polygon fill="#cd9ca7" fill-opacity="0.501961" points="93,102 98,84 111,83" />
<polygon fill="#ba6f4f" fill-opacity="0.501961" points="186,116 191,124 197,100" />
<polygon fill="#7c675c" fill-opacity="0.501961" points="90,44 86,58 115,48" />
<polygon fill="#050908" fill-opacity="0.501961" points="151,165 146,144 142,154" />
</g>
</svg>