<svg xmlns="http://www.w3.org/2000/svg" version="1.1" width="1024" height="768">
<rect x="0" y="0" width="1024" height="768" fill="#7f8783" />
<g transform="scale(4.000000) translate(0.5 0.5)">
<polygon fill="#bccad6" fill-opacity="0.501961" points="-16,141 271,0 -16,-3" />
<polygon fill="#41453f" fill-opacity="0.501961" points="250,46 -16,195 271,190" />
<polygon fill="#f1cc02" fill-opacity="0.501961" points="106,97 157,75 194,113" />
<polygon fill="#00256b" fill-opacity="0.501961" points="271,70 271,125 150,75" />
<polygon fill="#c4b8a6" fill-opacity="0.501961" points="28,162 193,138 115,122" />
<polygon fill="#a2b8cd" fill-opacity="0.501961" points="124,73 262,6 271,69" />
<polygon fill="#352d08" fill-opacity="0.501961" points="93,111 218,141 113,81" />
<polygon fill="#928a4d" fill-opacity="0.501961" points="25,81 88,63 182,112" />
<polygon fill="#aca794" fill-opacity="0.501961" points="212,133 228,100 167,109" />
<polygon fill="#aebdc7" fill-opacity="0.501961" points="271,176 260,200 209,174" />
<polygon fill="#47433c" fill-opacity="0.501961" points="271,100 118,201 215,207" />
<polygon fill="#004578" fill-opacity="0.501961" points="207,63 180,101 270,94" />
<polygon fill="#605844" fill-opacity="0.501961" points="24,117 11,147 84,138" />
<polygon fill="#caba9d" fill-opacity="0.501961" points="99,137 -16,97 43,83" />
<polygon fill="#000000" fill-opacity="0.501961" points="213,181 268,205 197,207" />
<polygon fill="#433d2a" fill-opacity="0.501961" points="137,114 61,101 87,122" />
<polygon fill="#e8d54d" fill-opacity="0.501961" points="126,82 187,111 162,74" />
<polygon fill="#839099" fill-opacity="0.501961" points="-16,87 45,46 179,71" />
<polygon fill="#324843" fill-opacity="0.501961" points="205,93 179,84 149,91" />
<polygon fill="#07202b" fill-opacity="0.501961" points="236,102 205,89 186,104" />
<polygon fill="#9fb1c1" fill-opacity="0.501961" points="20,67 -16,0 262,-2" />
<polygon fill="#b6ac98" fill-opacity="0.501961" points="222,116 251,120 209,99" />
<polygon fill="#a39b7f" fill-opacity="0.501961" points="113,95 -10,123 54,131" />
<polygon fill="#403c23" fill-opacity="0.501961" points="239,126 201,119 208,109" />
<polygon fill="#70655a" fill-opacity="0.501961" points="35,207 190,139 -16,170" />
<polygon fill="#9aa8ad" fill-opacity="0.501961" points="271,189 204,179 239,171" />
<polygon fill="#adab92" fill-opacity="0.501961" points="204,134 245,128 187,118" />
<polygon fill="#34362f" fill-opacity="0.501961" points="271,177 237,171 250,98" />
<polygon fill="#d9cca5" fill-opacity="0.501961" points="31,92 80,97 107,79" />
<polygon fill="#94a6ae" fill-opacity="0.501961" points="193,96 167,13 196,13" />
<polygon fill="#170e00" fill-opacity="0.501961" points="37,122 24,121 39,117" />
<polygon fill="#004a7d" fill-opacity="0.501961" points="265,69 271,120 193,74" />
<polygon fill="#99969b" fill-opacity="0.501961" points="189,132 189,99 176,110" />
<polygon fill="#866c00" fill-opacity="0.501961" points="179,110 105,103 142,93" />
<polygon fill="#010000" fill-opacity="0.501961" points="252,110 271,129 232,108" />
<polygon fill="#0e131b" fill-opacity="0.501961" points="137,106 157,121 108,115" />
<polygon fill="#bec9cd" fill-opacity="0.501961" points="34,141 49,139 23,134" />
<polygon fill="#171b15" fill-opacity="0.501961" points="41,126 49,140 39,143" />
<polygon fill="#605336" fill-opacity="0.501961" points="100,99 78,106 56,97" />
<polygon fill="#c2af3c" fill-opacity="0.501961" points="97,89 90,116 85,59" />
<polygon fill="#ffef1f" fill-opacity="0.501961" points="182,105 175,91 149,97" />
<polygon fill="#444a41" fill-opacity="0.501961" points="191,86 169,69 151,78" />
<polygon fill="#9f9685" fill-opacity="0.501961" points="-9,137 -16,168 93,155" />
<polygon fill="#030600" fill-opacity="0.501961" points="207,138 206,129 215,138" />
<polygon fill="#b7b6ad" fill-opacity="0.501961" points="129,108 113,110 103,104" />
<polygon fill="#ddddce" fill-opacity="0.501961" points="62,134 59,138 50,131" />
<polygon fill="#030913" fill-opacity="0.501961" points="203,138 190,138 192,122" />
<polygon fill="#393629" fill-opacity="0.501961" points="60,127 76,129 64,140" />
<polygon fill="#222624" fill-opacity="0.501961" points="13,134 11,140 33,144" />
<polygon fill="#565f4b" fill-opacity="0.501961" points="138,114 174,125 190,115" />
<polygon fill="#979285" fill-opacity="0.501961" points="40,159 192,137 104,116" />
<polygon fill="#b7b09f" fill-opacity="0.501961" points="201,115 214,101 168,112" />
<polygon fill="#000000" fill-opacity="0.501961" points="204,207 211,182 238,191" />
<polygon fill="#dbe0b9" fill-opacity="0.501961" points="98,98 116,94 117,99" />
<polygon fill="#857f72" fill-opacity="0.501961" points="210,120 263,134 231,136" />
<polygon fill="#175c8a" fill-opacity="0.501961" points="209,108 206,73 222,59" />
<polygon fill="#f4df5b" fill-opacity="0.501961" points="150,77 127,87 172,88" />
<polygon fill="#495039" fill-opacity="0.501961" points="97,94 130,84 100,83" />
<polygon fill="#98a5af" fill-opacity="0.501961" points="271,67 123,52 229,0" />
<polygon fill="#625d54" fill-opacity="0.501961" points="-16,194 246,134 141,204" />
<polygon fill="#111312" fill-opacity="0.501961" points="227,122 269,130 267,119" />
<polygon fill="#c8c084" fill-opacity="0.501961" points="136,80 97,78 113,85" />
<polygon fill="#aca18a" fill-opacity="0.501961" points="-9,128 77,108 -12,104" />
<polygon fill="#000000" fill-opacity="0.501961" points="62,138 53,141 51,138" />
<polygon fill="#2b2e1e" fill-opacity="0.501961" points="204,124 216,119 220,106" />
<polygon fill="#8797a2" fill-opacity="0.501961" points="151,79 70,48 217,58" />
<polygon fill="#6f7570" fill-opacity="0.501961" points="47,75 82,88 89,75" />
<polygon fill="#bebcb6" fill-opacity="0.501961" points="63,116 69,125 31,124" />
<polygon fill="#e1cbb4" fill-opacity="0.501961" points="221,113 207,133 216,130" />
<polygon fill="#707772" fill-opacity="0.501961" points="-16,44 -16,84 15,84" />
<polygon fill="#c2beb1" fill-opacity="0.501961" points="91,97 -6,106 52,82" />
<polygon fill="#afbcc1" fill-opacity="0.501961" points="203,5 96,-16 19,18" />
<polygon fill="#92a0ab" fill-opacity="0.501961" points="81,77 62,20 -11,76" />
<polygon fill="#003568" fill-opacity="0.501961" points="184,74 190,85 181,105" />
<polygon fill="#161c21" fill-opacity="0.501961" points="35,82 38,78 28,77" />
<polygon fill="#c8c2b5" fill-opacity="0.501961" points="17,128 4,120 32,125" />
<polygon fill="#4b3e0a" fill-opacity="0.501961" points="147,105 180,105 153,114" />
<polygon fill="#756d60" fill-opacity="0.501961" points="103,115 132,131 163,127" />
<polygon fill="#000000" fill-opacity="0.501961" points="98,104 104,110 94,107" />
<polygon fill="#1e3038" fill-opacity="0.501961" points="209,94 255,97 219,105" />
<polygon fill="#4c4332" fill-opacity="0.501961" points="71,97 57,105 82,105" />
<polygon fill="#000b22" fill-opacity="0.501961" points="205,102 206,75 197,102" />
<polygon fill="#585848" fill-opacity="0.501961" points="56,115 91,109 98,119" />
<polygon fill="#0c1418" fill-opacity="0.501961" points="24,142 26,136 34,143" />
<polygon fill="#34332c" fill-opacity="0.501961" points="223,146 256,146 205,131" />
<polygon fill="#b09c1b" fill-opacity="0.501961" points="179,106 118,99 139,89" />
<polygon fill="#c7d5dd" fill-opacity="0.501961" points="25,135 25,138 17,133" />
<polygon fill="#e6ede7" fill-opacity="0.501961" points="29,136 35,141 41,139" />
<polygon fill="#424636" fill-opacity="0.501961" points="170,64 172,85 163,78" />
<polygon fill="#9d9990" fill-opacity="0.501961" points="81,118 73,154 133,136" />
<polygon fill="#c3d5b7" fill-opacity="0.501961" points="206,128 199,127 201,134" />
<polygon fill="#989d99" fill-opacity="0.501961" points="100,119 106,105 96,117" />
<polygon fill="#181e1f" fill-opacity="0.501961" points="38,125 39,128 48,126" />
<polygon fill="#989387" fill-opacity="0.501961" points="-12,130 33,162 38,148" />
<polygon fill="#595848" fill-opacity="0.501961" points="45,128 58,142 8,129" />
<polygon fill="#414542" fill-opacity="0.501961" points="200,113 203,119 187,116" />
<polygon fill="#57583a" fill-opacity="0.501961" points="123,92 130,81 92,94" />
<polygon fill="#7c883d" fill-opacity="0.501961" points="205,134 214,119 205,115" />
<polygon fill="#a7a18f" fill-opacity="0.501961" points="241,119 222,102 224,118" />
<polygon fill="#a2a195" fill-opacity="0.501961" points="53,133 37,139 60,137" />
<polygon fill="#050a11" fill-opacity="0.501961" points="156,123 149,124 153,109" />
<polygon fill="#0d5488" fill-opacity="0.501961" points="208,108 215,84 206,57" />
<polygon fill="#073153" fill-opacity="0.501961" points="221,73 215,75 218,60" />
<polygon fill="#0f151e" fill-opacity="0.501961" points="183,134 185,126 164,124" />
<polygon fill="#a59e91" fill-opacity="0.501961" points="181,102 172,114 214,112" />
<polygon fill="#000c11" fill-opacity="0.501961" points="207,96 200,104 185,99" />
<polygon fill="#7d7f80" fill-opacity="0.501961" points="179,120 175,128 170,116" />
<polygon fill="#829691" fill-opacity="0.501961" points="195,98 190,76 189,98" />
<polygon fill="#706e67" fill-opacity="0.501961" points="96,177 9,166 173,143" />
<polygon fill="#a9aaa4" fill-opacity="0.501961" points="35,113 60,104 86,111" />
<polygon fill="#bdb69e" fill-opacity="0.501961" points="27,71 -13,94 35,101" />
<polygon fill="#024d81" fill-opacity="0.501961" points="192,96 252,72 252,95" />
<polygon fill="#8f9592" fill-opacity="0.501961" points="219,71 211,60 210,70" />
<polygon fill="#91979b" fill-opacity="0.501961" points="189,128 180,120 197,115" />
<polygon fill="#97a8b4" fill-opacity="0.501961" points="103,65 237,12 10,15" />
<polygon fill="#bbb6a0" fill-opacity="0.501961" points="78,136 69,129 60,129" />
<polygon fill="#818072" fill-opacity="0.501961" points="160,127 164,144 196,138" />
<polygon fill="#ecf0e3" fill-opacity="0.501961" points="64,135 57,135 64,137" />
<polygon fill="#0f5489" fill-opacity="0.501961" points="235,98 256,108 227,106" />
<polygon fill="#d5c149" fill-opacity="0.501961" points="114,90 117,86 116,98" />
<polygon fill="#0d1210" fill-opacity="0.501961" points="60,140 72,136 65,135" />
<polygon fill="#5f605a" fill-opacity="0.501961" points="201,138 259,152 150,175" />
<polygon fill="#c7c5b3" fill-opacity="0.501961" points="38,76 50,72 41,83" />
<polygon fill="#95a2a8" fill-opacity="0.501961" points="223,72 222,10 251,69" />
<polygon fill="#67663b" fill-opacity="0.501961" points="83,69 83,55 90,78" />
<polygon fill="#40413a" fill-opacity="0.501961" points="194,207 177,184 210,176" />
<polygon fill="#606059" fill-opacity="0.501961" points="24,164 60,207 -16,179" />
<polygon fill="#2e3023" fill-opacity="0.501961" points="51,133 39,136 27,129" />
<polygon fill="#8a98a3" fill-opacity="0.501961" points="-16,74 82,73 15,49" />
<polygon fill="#1e1100" fill-opacity="0.501961" points="227,97 233,107 225,105" />
<polygon fill="#8c887a" fill-opacity="0.501961" points="-16,81 13,89 40,81" />
<polygon fill="#0c0d10" fill-opacity="0.501961" points="223,119 224,124 238,120" />
<polygon fill="#d9ca7c" fill-opacity="0.501961" points="154,78 122,91 136,78" />
<polygon fill="#3d3f33" fill-opacity="0.501961" points="179,86 164,89 184,91" />
<polygon fill="#eac662" fill-opacity="0.501961" points="35,119 23,116 37,113" />
<polygon fill="#303124" fill-opacity="0.501961" points="114,105 107,99 93,99" />
<polygon fill="#937f66" fill-opacity="0.501961" points="225,134 218,114 215,135" />
<polygon fill="#786f5b" fill-opacity="0.501961" points="102,125 90,112 124,124" />
<polygon fill="#0b1116" fill-opacity="0.501961" points="101,115 129,115 110,109" />
<polygon fill="#f7e573" fill-opacity="0.501961" points="96,82 92,78 86,86" />
<polygon fill="#151b1c" fill-opacity="0.501961" points="121,89 127,97 122,95" />
<polygon fill="#afa695" fill-opacity="0.501961" points="-2,101 12,134 -16,140" />
<polygon fill="#889396" fill-opacity="0.501961" points="271,192 242,171 210,180" />
<polygon fill="#aeb5b8" fill-opacity="0.501961" points="18,137 13,132 26,135" />
<polygon fill="#78776d" fill-opacity="0.501961" points="33,134 40,134 42,116" />
<polygon fill="#798b91" fill-opacity="0.501961" points="205,71 206,60 168,74" />
<polygon fill="#181200" fill-opacity="0.501961" points="132,116 133,104 143,104" />
<polygon fill="#78705c" fill-opacity="0.501961" points="190,101 190,107 180,99" />
<polygon fill="#2b281c" fill-opacity="0.501961" points="35,122 23,118 23,122" />
<polygon fill="#000002" fill-opacity="0.501961" points="95,104 101,107 95,113" />
<polygon fill="#fff136" fill-opacity="0.501961" points="157,86 170,85 147,80" />
<polygon fill="#b4b1a1" fill-opacity="0.501961" points="196,114 193,105 207,115" />
<polygon fill="#878784" fill-opacity="0.501961" points="158,110 172,115 165,110" />
<polygon fill="#cfc8b4" fill-opacity="0.501961" points="39,103 -16,83 -16,105" />
<polygon fill="#9ea8ae" fill-opacity="0.501961" points="94,97 79,92 97,105" />
<polygon fill="#fff344" fill-opacity="0.501961" points="175,92 180,102 159,91" />
<polygon fill="#002a48" fill-opacity="0.501961" points="205,71 207,97 196,74" />
<polygon fill="#718188" fill-opacity="0.501961" points="207,181 207,191 212,177" />
<polygon fill="#0e0b0b" fill-opacity="0.501961" points="205,140 209,134 190,134" />
<polygon fill="#0c1d17" fill-opacity="0.501961" points="214,116 217,111 204,118" />
<polygon fill="#9b9789" fill-opacity="0.501961" points="26,146 46,162 69,140" />
<polygon fill="#ffefcb" fill-opacity="0.501961" points="45,129 53,128 53,131" />
<polygon fill="#8a99a2" fill-opacity="0.501961" points="101,80 86,57 158,69" />
<polygon fill="#686b61" fill-opacity="0.501961" points="65,83 59,77 47,83" />
<polygon fill="#34423b" fill-opacity="0.501961" points="152,89 167,88 161,92" />
<polygon fill="#1e1e15" fill-opacity="0.501961" points="99,121 95,116 88,117" />
<polygon fill="#a8f536" fill-opacity="0.501961" points="160,114 156,114 158,121" />
<polygon fill="#514a31" fill-opacity="0.501961" points="161,77 181,92 180,79" />
<polygon fill="#c9cfca" fill-opacity="0.501961" points="31,141 40,139 32,135" />
<polygon fill="#827c62" fill-opacity="0.501961" points="38,112 52,114 32,119" />
<polygon fill="#87969f" fill-opacity="0.501961" points="185,133 188,127 187,121" />
<polygon fill="#00254d" fill-opacity="0.501961" points="254,102 253,72 271,62" />
<polygon fill="#0f1013" fill-opacity="0.501961" points="156,108 149,115 160,115" />
<polygon fill="#3c3f3d" fill-opacity="0.501961" points="154,111 171,120 187,116" />
<polygon fill="#1c201e" fill-opacity="0.501961" points="86,102 91,102 88,99" />
<polygon fill="#d8c33d" fill-opacity="0.501961" points="157,83 131,85 149,94" />
<polygon fill="#94a2ae" fill-opacity="0.501961" points="85,73 82,48 10,53" />
<polygon fill="#989990" fill-opacity="0.501961" points="64,127 47,104 81,104" />
<polygon fill="#675934" fill-opacity="0.501961" points="59,128 51,125 51,129" />
<polygon fill="#939285" fill-opacity="0.501961" points="115,106 135,106 125,110" />
<polygon fill="#cdb621" fill-opacity="0.501961" points="115,97 122,96 126,104" />
<polygon fill="#000000" fill-opacity="0.501961" points="199,207 213,182 241,195" />
<polygon fill="#b4986d" fill-opacity="0.501961" points="73,101 81,98 62,98" />
<polygon fill="#0e0f0a" fill-opacity="0.501961" points="49,140 37,142 44,144" />
<polygon fill="#121410" fill-opacity="0.501961" points="69,137 54,138 63,140" />
<polygon fill="#6e6058" fill-opacity="0.501961" points="110,130 97,131 98,127" />
<polygon fill="#15160d" fill-opacity="0.501961" points="271,111 271,125 233,111" />
<polygon fill="#bfbeb3" fill-opacity="0.501961" points="87,94 82,103 81,86" />
<polygon fill="#b8ad9b" fill-opacity="0.501961" points="225,100 221,111 221,99" />
<polygon fill="#525947" fill-opacity="0.501961" points="128,82 124,87 107,84" />
<polygon fill="#5d5f58" fill-opacity="0.501961" points="216,132 248,142 271,124" />
<polygon fill="#36382e" fill-opacity="0.501961" points="87,102 87,97 82,97" />
<polygon fill="#121817" fill-opacity="0.501961" points="217,99 220,106 223,95" />
<polygon fill="#6e787b" fill-opacity="0.501961" points="186,120 196,122 184,127" />
<polygon fill="#006fae" fill-opacity="0.501961" points="175,78 188,76 184,73" />
<polygon fill="#006bbf" fill-opacity="0.501961" points="183,98 179,99 181,94" />
<polygon fill="#004175" fill-opacity="0.501961" points="195,104 194,76 204,82" />
<polygon fill="#a48d61" fill-opacity="0.501961" points="224,127 219,117 204,117" />
<polygon fill="#b3b2a6" fill-opacity="0.501961" points="53,126 42,116 80,121" />
<polygon fill="#95a0a1" fill-opacity="0.501961" points="235,172 257,180 211,177" />
</g>
</svg>