<svg xmlns="http://www.w3.org/2000/svg" version="1.1" width="1024" height="768">
<rect x="0" y="0" width="1024" height="768" fill="#7c857b" />
<g transform="scale(4.000000) translate(0.5 0.5)">
<polygon fill="#fffdfb" fill-opacity="0.501961" points="265,1 4,-7 269,78" />
<polygon fill="#002e26" fill-opacity="0.501961" points="259,116 271,195 3,202" />
<polygon fill="#2b4c36" fill-opacity="0.501961" points="9,53 -16,192 113,168" />
<polygon fill="#743c30" fill-opacity="0.501961" points="198,58 212,18 106,25" />
<polygon fill="#ffffff" fill-opacity="0.501961" points="78,-16 244,9 68,29" />
<polygon fill="#4ef6ff" fill-opacity="0.501961" points="175,90 88,161 145,158" />
<polygon fill="#b27e71" fill-opacity="0.501961" points="271,68 -14,-7 -6,81" />
<polygon fill="#e7cca7" fill-opacity="0.501961" points="271,103 197,69 243,-16" />
<polygon fill="#1c0000" fill-opacity="0.501961" points="141,133 137,146 116,146" />
<polygon fill="#ffffff" fill-opacity="0.501961" points="154,24 228,-16 41,5" />
<polygon fill="#6f3432" fill-opacity="0.501961" points="128,73 166,20 134,114" />
<polygon fill="#537978" fill-opacity="0.501961" points="160,180 159,127 271,107" />
<polygon fill="#fffff0" fill-opacity="0.501961" points="265,9 233,12 246,58" />
<polygon fill="#597872" fill-opacity="0.501961" points="106,160 73,53 32,207" />
<polygon fill="#888a85" fill-opacity="0.501961" points="239,33 128,99 203,129" />
<polygon fill="#284931" fill-opacity="0.501961" points="64,158 1,177 -11,112" />
<polygon fill="#0e3a2e" fill-opacity="0.501961" points="271,184 111,162 154,207" />
<polygon fill="#a5d6ff" fill-opacity="0.501961" points="169,14 238,-16 212,17" />
<polygon fill="#82ffff" fill-opacity="0.501961" points="100,156 154,143 128,161" />
<polygon fill="#0e2d0f" fill-opacity="0.501961" points="153,147 119,169 144,162" />
<polygon fill="#ffffff" fill-opacity="0.501961" points="78,-15 117,25 52,10" />
<polygon fill="#8b5a3e" fill-opacity="0.501961" points="230,4 222,-16 271,9" />
<polygon fill="#85ffff" fill-opacity="0.501961" points="139,154 163,127 157,110" />
<polygon fill="#62624d" fill-opacity="0.501961" points="-16,88 104,67 27,151" />
<polygon fill="#a48679" fill-opacity="0.501961" points="98,29 -1,63 7,-13" />
<polygon fill="#774f3a" fill-opacity="0.501961" points="224,48 237,48 238,22" />
<polygon fill="#fffffc" fill-opacity="0.501961" points="209,74 200,64 207,54" />
<polygon fill="#3dffff" fill-opacity="0.501961" points="106,142 112,162 134,151" />
<polygon fill="#0efbff" fill-opacity="0.501961" points="146,136 119,130 156,128" />
<polygon fill="#577e7b" fill-opacity="0.501961" points="115,113 102,170 14,207" />
<polygon fill="#fff1e3" fill-opacity="0.501961" points="209,43 230,12 233,44" />
<polygon fill="#8b7670" fill-opacity="0.501961" points="120,18 105,78 208,51" />
<polygon fill="#dacfc7" fill-opacity="0.501961" points="-7,26 -8,38 36,41" />
<polygon fill="#82989a" fill-opacity="0.501961" points="121,57 76,127 136,125" />
<polygon fill="#002d0a" fill-opacity="0.501961" points="112,175 104,162 136,162" />
<polygon fill="#a19576" fill-opacity="0.501961" points="216,48 202,82 271,118" />
<polygon fill="#23222c" fill-opacity="0.501961" points="127,148 129,134 145,139" />
<polygon fill="#1e0b0d" fill-opacity="0.501961" points="130,88 137,72 140,94" />
<polygon fill="#5a7c7e" fill-opacity="0.501961" points="137,158 213,146 207,88" />
<polygon fill="#fffffb" fill-opacity="0.501961" points="230,63 246,55 236,46" />
<polygon fill="#694238" fill-opacity="0.501961" points="182,15 208,30 212,19" />
<polygon fill="#1f3f34" fill-opacity="0.501961" points="271,117 271,190 194,207" />
<polygon fill="#ffffff" fill-opacity="0.501961" points="104,156 106,161 121,160" />
<polygon fill="#445560" fill-opacity="0.501961" points="138,146 126,133 117,147" />
<polygon fill="#f8fdff" fill-opacity="0.501961" points="212,-16 63,13 173,21" />
<polygon fill="#97adb8" fill-opacity="0.501961" points="-16,176 18,177 -13,192" />
<polygon fill="#687d72" fill-opacity="0.501961" points="24,142 94,143 83,68" />
<polygon fill="#72ffff" fill-opacity="0.501961" points="105,153 110,161 123,132" />
<polygon fill="#7d6156" fill-opacity="0.501961" points="153,66 157,18 175,29" />
<polygon fill="#fefeff" fill-opacity="0.501961" points="159,14 91,25 120,-16" />
<polygon fill="#5c6c5a" fill-opacity="0.501961" points="271,108 219,155 221,112" />
<polygon fill="#828d8b" fill-opacity="0.501961" points="170,135 144,64 241,80" />
<polygon fill="#928982" fill-opacity="0.501961" points="208,37 187,102 156,29" />
<polygon fill="#714f38" fill-opacity="0.501961" points="-16,54 -16,96 38,83" />
<polygon fill="#58ffff" fill-opacity="0.501961" points="138,128 150,141 140,108" />
<polygon fill="#6a5c56" fill-opacity="0.501961" points="123,69 96,70 146,45" />
<polygon fill="#3f6d65" fill-opacity="0.501961" points="92,172 78,207 149,170" />
<polygon fill="#da8b89" fill-opacity="0.501961" points="125,52 134,62 127,91" />
<polygon fill="#957c73" fill-opacity="0.501961" points="120,20 103,75 144,22" />
<polygon fill="#8d5d4c" fill-opacity="0.501961" points="47,38 -11,2 -16,22" />
<polygon fill="#9d685c" fill-opacity="0.501961" points="136,94 151,128 145,82" />
<polygon fill="#755c55" fill-opacity="0.501961" points="69,28 55,18 89,23" />
<polygon fill="#c6a788" fill-opacity="0.501961" points="234,-9 237,8 204,34" />
<polygon fill="#416864" fill-opacity="0.501961" points="152,154 157,179 238,163" />
<polygon fill="#d5d6f3" fill-opacity="0.501961" points="56,-16 74,19 44,5" />
<polygon fill="#431322" fill-opacity="0.501961" points="148,130 151,129 148,121" />
<polygon fill="#47573e" fill-opacity="0.501961" points="-7,136 40,133 -9,72" />
<polygon fill="#b2a186" fill-opacity="0.501961" points="222,104 233,29 201,73" />
<polygon fill="#eec59d" fill-opacity="0.501961" points="160,125 147,145 158,137" />
<polygon fill="#ffded3" fill-opacity="0.501961" points="147,152 131,157 146,146" />
<polygon fill="#4b5c4f" fill-opacity="0.501961" points="102,159 109,144 89,163" />
<polygon fill="#325a4e" fill-opacity="0.501961" points="86,207 127,207 157,141" />
<polygon fill="#6d8b8e" fill-opacity="0.501961" points="104,152 94,115 140,108" />
<polygon fill="#76ffff" fill-opacity="0.501961" points="157,130 161,114 149,111" />
<polygon fill="#261e2e" fill-opacity="0.501961" points="137,127 136,120 130,129" />
<polygon fill="#912e34" fill-opacity="0.501961" points="126,77 139,60 144,81" />
<polygon fill="#979a97" fill-opacity="0.501961" points="124,69 134,98 78,77" />
<polygon fill="#476d63" fill-opacity="0.501961" points="59,188 71,129 -9,207" />
<polygon fill="#9e9a9b" fill-opacity="0.501961" points="116,125 161,108 133,109" />
<polygon fill="#faebdb" fill-opacity="0.501961" points="210,23 228,26 207,54" />
<polygon fill="#31ffff" fill-opacity="0.501961" points="111,148 144,147 109,161" />
<polygon fill="#fff1d2" fill-opacity="0.501961" points="218,65 200,66 202,56" />
<polygon fill="#858065" fill-opacity="0.501961" points="231,70 212,65 247,114" />
<polygon fill="#856460" fill-opacity="0.501961" points="21,-8 36,-16 46,11" />
<polygon fill="#fffff6" fill-opacity="0.501961" points="238,28 260,6 271,37" />
<polygon fill="#a08980" fill-opacity="0.501961" points="22,79 104,23 150,37" />
<polygon fill="#dbb7a2" fill-opacity="0.501961" points="103,31 116,24 122,33" />
<polygon fill="#103722" fill-opacity="0.501961" points="148,157 135,207 160,185" />
<polygon fill="#fff6de" fill-opacity="0.501961" points="231,53 258,40 241,63" />
<polygon fill="#b3dcff" fill-opacity="0.501961" points="167,22 156,16 187,13" />
<polygon fill="#d1be9f" fill-opacity="0.501961" points="238,72 243,98 259,37" />
<polygon fill="#1dffff" fill-opacity="0.501961" points="141,147 146,129 154,132" />
<polygon fill="#5a534f" fill-opacity="0.501961" points="127,96 134,95 122,116" />
<polygon fill="#618381" fill-opacity="0.501961" points="59,150 112,143 122,118" />
<polygon fill="#63ffff" fill-opacity="0.501961" points="119,137 127,137 133,124" />
<polygon fill="#2f4c35" fill-opacity="0.501961" points="-16,182 10,144 62,145" />
<polygon fill="#748e8e" fill-opacity="0.501961" points="18,188 29,196 60,173" />
<polygon fill="#779793" fill-opacity="0.501961" points="40,140 36,147 18,143" />
<polygon fill="#6f8584" fill-opacity="0.501961" points="206,119 151,145 198,55" />
<polygon fill="#ac998b" fill-opacity="0.501961" points="80,69 43,65 35,39" />
<polygon fill="#735949" fill-opacity="0.501961" points="238,36 229,49 237,21" />
<polygon fill="#e7caad" fill-opacity="0.501961" points="223,50 221,66 232,44" />
<polygon fill="#844e3e" fill-opacity="0.501961" points="175,23 189,15 196,19" />
<polygon fill="#b38d71" fill-opacity="0.501961" points="251,14 241,18 238,24" />
<polygon fill="#665a72" fill-opacity="0.501961" points="129,133 117,144 142,135" />
<polygon fill="#869594" fill-opacity="0.501961" points="147,96 171,127 192,95" />
<polygon fill="#846e63" fill-opacity="0.501961" points="66,27 60,48 85,83" />
<polygon fill="#aad0ff" fill-opacity="0.501961" points="217,11 241,-16 178,16" />
<polygon fill="#765a4d" fill-opacity="0.501961" points="169,65 152,31 146,63" />
<polygon fill="#93765f" fill-opacity="0.501961" points="-10,86 63,68 18,67" />
<polygon fill="#416967" fill-opacity="0.501961" points="217,120 182,171 238,150" />
<polygon fill="#e1d5cc" fill-opacity="0.501961" points="30,37 38,42 15,39" />
<polygon fill="#846b5a" fill-opacity="0.501961" points="230,52 234,32 241,43" />
<polygon fill="#83857f" fill-opacity="0.501961" points="163,115 151,75 209,48" />
<polygon fill="#003a20" fill-opacity="0.501961" points="109,165 143,157 106,178" />
<polygon fill="#a8d8ff" fill-opacity="0.501961" points="96,4 148,-12 77,-16" />
<polygon fill="#f0f0fa" fill-opacity="0.501961" points="192,-4 125,13 150,24" />
<polygon fill="#29231f" fill-opacity="0.501961" points="144,70 141,90 133,92" />
<polygon fill="#2dfdff" fill-opacity="0.501961" points="152,119 158,116 154,135" />
<polygon fill="#5b7979" fill-opacity="0.501961" points="203,106 188,141 236,135" />
<polygon fill="#957c74" fill-opacity="0.501961" points="145,69 101,26 55,19" />
<polygon fill="#ffffff" fill-opacity="0.501961" points="98,9 100,28 75,3" />
<polygon fill="#aca187" fill-opacity="0.501961" points="271,78 249,64 244,101" />
<polygon fill="#fffef8" fill-opacity="0.501961" points="126,160 130,155 140,153" />
<polygon fill="#676f5c" fill-opacity="0.501961" points="30,82 34,116 101,106" />
<polygon fill="#341a1f" fill-opacity="0.501961" points="136,48 131,57 137,56" />
<polygon fill="#0f311d" fill-opacity="0.501961" points="32,183 13,183 24,180" />
<polygon fill="#98a1a0" fill-opacity="0.501961" points="146,66 192,66 160,76" />
<polygon fill="#8e7d6d" fill-opacity="0.501961" points="-16,88 26,43 -1,34" />
<polygon fill="#51726c" fill-opacity="0.501961" points="194,146 158,135 151,175" />
<polygon fill="#32544c" fill-opacity="0.501961" points="260,140 174,188 246,174" />
<polygon fill="#b6988e" fill-opacity="0.501961" points="168,37 175,46 205,34" />
<polygon fill="#51746c" fill-opacity="0.501961" points="64,189 30,157 104,168" />
<polygon fill="#395a4a" fill-opacity="0.501961" points="45,163 95,151 67,150" />
<polygon fill="#6fffff" fill-opacity="0.501961" points="144,114 138,123 148,120" />
<polygon fill="#3a5840" fill-opacity="0.501961" points="55,133 57,126 31,132" />
<polygon fill="#1a3a33" fill-opacity="0.501961" points="265,171 137,199 265,207" />
<polygon fill="#6b7783" fill-opacity="0.501961" points="127,137 126,145 116,144" />
<polygon fill="#284640" fill-opacity="0.501961" points="128,148 143,140 124,143" />
<polygon fill="#79958f" fill-opacity="0.501961" points="86,119 60,117 55,127" />
<polygon fill="#5d6244" fill-opacity="0.501961" points="271,153 271,100 236,120" />
<polygon fill="#34ffff" fill-opacity="0.501961" points="146,145 129,157 123,150" />
<polygon fill="#d6a88d" fill-opacity="0.501961" points="187,22 178,30 173,22" />
<polygon fill="#edf9f5" fill-opacity="0.501961" points="105,161 109,147 104,155" />
<polygon fill="#7a847f" fill-opacity="0.501961" points="109,70 93,117 68,78" />
<polygon fill="#f4f6ff" fill-opacity="0.501961" points="208,17 217,13 194,13" />
<polygon fill="#52422f" fill-opacity="0.501961" points="17,90 -12,86 40,78" />
<polygon fill="#61857e" fill-opacity="0.501961" points="68,155 103,156 56,172" />
<polygon fill="#e3b6ad" fill-opacity="0.501961" points="136,59 128,61 125,69" />
<polygon fill="#755851" fill-opacity="0.501961" points="215,17 183,33 199,18" />
<polygon fill="#634743" fill-opacity="0.501961" points="168,33 165,26 180,26" />
<polygon fill="#c76a67" fill-opacity="0.501961" points="145,65 136,67 131,57" />
<polygon fill="#a08b84" fill-opacity="0.501961" points="90,19 68,34 113,69" />
<polygon fill="#a58671" fill-opacity="0.501961" points="69,76 81,62 35,76" />
<polygon fill="#385c55" fill-opacity="0.501961" points="152,163 157,182 227,158" />
<polygon fill="#cfb9a2" fill-opacity="0.501961" points="213,20 212,35 221,10" />
<polygon fill="#82a09a" fill-opacity="0.501961" points="36,128 46,124 49,128" />
<polygon fill="#794038" fill-opacity="0.501961" points="127,84 134,94 129,73" />
<polygon fill="#837f77" fill-opacity="0.501961" points="156,71 131,97 202,73" />
<polygon fill="#a68a74" fill-opacity="0.501961" points="208,64 228,45 213,46" />
<polygon fill="#876d64" fill-opacity="0.501961" points="93,34 120,34 143,52" />
<polygon fill="#2a323c" fill-opacity="0.501961" points="139,144 143,137 132,135" />
<polygon fill="#9d847a" fill-opacity="0.501961" points="212,36 197,56 139,54" />
<polygon fill="#7f5a4c" fill-opacity="0.501961" points="172,44 134,43 152,55" />
<polygon fill="#a4a79e" fill-opacity="0.501961" points="211,67 215,105 205,80" />
<polygon fill="#a3857a" fill-opacity="0.501961" points="21,38 73,33 22,-16" />
<polygon fill="#b6a69c" fill-opacity="0.501961" points="114,73 123,73 133,98" />
<polygon fill="#604230" fill-opacity="0.501961" points="87,70 79,75 70,72" />
<polygon fill="#818067" fill-opacity="0.501961" points="243,115 261,101 214,93" />
<polygon fill="#688a86" fill-opacity="0.501961" points="8,183 10,174 38,176" />
<polygon fill="#dfc4ae" fill-opacity="0.501961" points="271,25 234,45 260,42" />
<polygon fill="#f9e7d4" fill-opacity="0.501961" points="256,15 217,27 248,5" />
<polygon fill="#79675b" fill-opacity="0.501961" points="44,58 25,54 15,60" />
<polygon fill="#d5d7ee" fill-opacity="0.501961" points="49,11 40,-8 113,-16" />
<polygon fill="#f0d8db" fill-opacity="0.501961" points="163,116 159,115 159,128" />
<polygon fill="#457068" fill-opacity="0.501961" points="105,161 92,157 110,183" />
<polygon fill="#25ffff" fill-opacity="0.501961" points="138,135 130,131 142,130" />
<polygon fill="#7a7870" fill-opacity="0.501961" points="194,49 206,95 187,89" />
<polygon fill="#bf9984" fill-opacity="0.501961" points="181,31 200,22 192,21" />
<polygon fill="#928681" fill-opacity="0.501961" points="115,36 68,55 135,61" />
<polygon fill="#1a3823" fill-opacity="0.501961" points="26,177 41,178 20,184" />
<polygon fill="#f0ae7c" fill-opacity="0.501961" points="150,147 143,151 152,142" />
<polygon fill="#fcffff" fill-opacity="0.501961" points="63,11 164,-8 112,25" />
<polygon fill="#88a1a1" fill-opacity="0.501961" points="127,103 113,129 115,102" />
<polygon fill="#a2856f" fill-opacity="0.501961" points="266,-12 225,1 261,10" />
<polygon fill="#2b4f3c" fill-opacity="0.501961" points="142,155 151,146 141,170" />
<polygon fill="#95a7aa" fill-opacity="0.501961" points="188,103 159,102 187,95" />
<polygon fill="#cde2fe" fill-opacity="0.501961" points="174,20 204,7 204,-8" />
<polygon fill="#7c4f45" fill-opacity="0.501961" points="132,25 140,21 150,27" />
<polygon fill="#62807c" fill-opacity="0.501961" points="157,136 151,154 171,155" />
<polygon fill="#6a5745" fill-opacity="0.501961" points="36,78 62,77 31,87" />
<polygon fill="#a08a81" fill-opacity="0.501961" points="74,18 55,11 43,22" />
<polygon fill="#aa9689" fill-opacity="0.501961" points="24,57 40,68 14,64" />
<polygon fill="#001e12" fill-opacity="0.501961" points="12,190 -16,204 33,194" />
<polygon fill="#788e8d" fill-opacity="0.501961" points="162,110 203,96 161,133" />
<polygon fill="#5ef5ff" fill-opacity="0.501961" points="130,126 123,137 123,129" />
<polygon fill="#9c7f65" fill-opacity="0.501961" points="235,27 245,19 235,23" />
<polygon fill="#fffdf0" fill-opacity="0.501961" points="237,28 262,8 243,39" />
<polygon fill="#fbf4e7" fill-opacity="0.501961" points="216,30 233,26 204,50" />
<polygon fill="#1f412b" fill-opacity="0.501961" points="6,174 26,170 23,164" />
</g>
</svg>