<svg xmlns="http://www.w3.org/2000/svg" version="1.1" width="1024" height="768">
<rect x="0" y="0" width="1024" height="768" fill="#42382f" />
<g transform="scale(4.000000) translate(0.5 0.5)">
<polygon fill="#000000" fill-opacity="0.501961" points="210,95 271,-16 -16,7" />
<polygon fill="#bba3ab" fill-opacity="0.501961" points="104,100 62,142 256,206" />
<polygon fill="#fffff1" fill-opacity="0.501961" points="-3,158 -16,199 64,154" />
<polygon fill="#e4ac33" fill-opacity="0.501961" points="239,28 271,141 209,167" />
<polygon fill="#95aae0" fill-opacity="0.501961" points="58,78 18,132 -16,63" />
<polygon fill="#000000" fill-opacity="0.501961" points="-16,66 271,37 5,-16" />
<polygon fill="#ffd4cd" fill-opacity="0.501961" points="125,178 137,137 190,153" />
<polygon fill="#339eec" fill-opacity="0.501961" points="266,166 231,160 177,207" />
<polygon fill="#000000" fill-opacity="0.501961" points="-16,-1 218,77 271,-1" />
<polygon fill="#a07517" fill-opacity="0.501961" points="143,137 194,65 142,61" />
<polygon fill="#140002" fill-opacity="0.501961" points="149,157 97,144 35,191" />
<polygon fill="#d49a1a" fill-opacity="0.501961" points="229,54 271,44 222,133" />
<polygon fill="#422400" fill-opacity="0.501961" points="229,142 187,197 197,65" />
<polygon fill="#2b3471" fill-opacity="0.501961" points="231,89 254,93 241,155" />
<polygon fill="#be9b6a" fill-opacity="0.501961" points="56,70 44,54 0,71" />
<polygon fill="#fffdc1" fill-opacity="0.501961" points="-6,183 41,172 -1,151" />
<polygon fill="#ffed8e" fill-opacity="0.501961" points="271,103 251,93 247,157" />
<polygon fill="#9c5e6b" fill-opacity="0.501961" points="76,207 137,150 180,162" />
<polygon fill="#431e00" fill-opacity="0.501961" points="145,141 210,153 184,60" />
<polygon fill="#ffffff" fill-opacity="0.501961" points="106,133 105,151 118,143" />
<polygon fill="#47463d" fill-opacity="0.501961" points="87,126 10,118 44,176" />
<polygon fill="#2850ab" fill-opacity="0.501961" points="188,207 271,184 197,175" />
<polygon fill="#376aac" fill-opacity="0.501961" points="31,207 -14,187 37,174" />
<polygon fill="#140000" fill-opacity="0.501961" points="130,162 94,171 133,131" />
<polygon fill="#24a2c0" fill-opacity="0.501961" points="92,112 114,96 108,142" />
<polygon fill="#d79400" fill-opacity="0.501961" points="237,148 190,125 231,121" />
<polygon fill="#c19ca1" fill-opacity="0.501961" points="171,193 187,151 189,205" />
<polygon fill="#fffff2" fill-opacity="0.501961" points="129,134 140,153 182,156" />
<polygon fill="#0f0c09" fill-opacity="0.501961" points="62,122 125,46 50,-2" />
<polygon fill="#906f24" fill-opacity="0.501961" points="78,16 73,99 88,57" />
<polygon fill="#7799ad" fill-opacity="0.501961" points="19,60 12,138 -16,113" />
<polygon fill="#000005" fill-opacity="0.501961" points="-16,-3 -5,75 133,-7" />
<polygon fill="#0d0100" fill-opacity="0.501961" points="222,107 222,132 183,97" />
<polygon fill="#1e1236" fill-opacity="0.501961" points="23,74 62,66 31,87" />
<polygon fill="#000000" fill-opacity="0.501961" points="253,-16 264,40 49,9" />
<polygon fill="#81621e" fill-opacity="0.501961" points="193,124 119,139 123,111" />
<polygon fill="#03000b" fill-opacity="0.501961" points="93,134 107,134 97,176" />
<polygon fill="#9a9663" fill-opacity="0.501961" points="242,182 215,149 204,164" />
<polygon fill="#070009" fill-opacity="0.501961" points="187,179 191,166 224,175" />
<polygon fill="#dbb435" fill-opacity="0.501961" points="194,95 227,101 226,92" />
<polygon fill="#7ed8ff" fill-opacity="0.501961" points="19,79 -16,96 28,89" />
<polygon fill="#000000" fill-opacity="0.501961" points="142,108 122,120 118,96" />
<polygon fill="#e2d9bb" fill-opacity="0.501961" points="37,154 28,148 32,183" />
<polygon fill="#9bf0dd" fill-opacity="0.501961" points="115,105 123,118 110,132" />
<polygon fill="#ae6c52" fill-opacity="0.501961" points="58,137 93,153 92,107" />
<polygon fill="#bd232e" fill-opacity="0.501961" points="167,169 181,150 177,194" />
<polygon fill="#102027" fill-opacity="0.501961" points="-14,106 30,143 66,143" />
<polygon fill="#97695b" fill-opacity="0.501961" points="58,67 15,100 51,101" />
<polygon fill="#000826" fill-opacity="0.501961" points="111,100 98,76 80,109" />
<polygon fill="#08131d" fill-opacity="0.501961" points="5,131 0,156 32,157" />
<polygon fill="#220613" fill-opacity="0.501961" points="202,135 215,159 130,132" />
<polygon fill="#5c4723" fill-opacity="0.501961" points="271,39 240,57 228,43" />
<polygon fill="#34d1ff" fill-opacity="0.501961" points="250,172 231,164 256,163" />
<polygon fill="#fffff2" fill-opacity="0.501961" points="161,144 176,164 174,149" />
<polygon fill="#49340f" fill-opacity="0.501961" points="249,152 197,129 233,160" />
<polygon fill="#000000" fill-opacity="0.501961" points="11,-16 234,-16 225,83" />
<polygon fill="#000209" fill-opacity="0.501961" points="74,69 79,-16 -16,27" />
<polygon fill="#000010" fill-opacity="0.501961" points="248,107 231,103 241,95" />
<polygon fill="#ffd200" fill-opacity="0.501961" points="229,101 223,127 231,147" />
<polygon fill="#000004" fill-opacity="0.501961" points="57,33 181,50 104,63" />
<polygon fill="#9d8345" fill-opacity="0.501961" points="143,62 159,68 146,120" />
<polygon fill="#d99800" fill-opacity="0.501961" points="227,71 271,81 226,97" />
<polygon fill="#6a98c1" fill-opacity="0.501961" points="180,155 185,169 201,166" />
<polygon fill="#dde0bd" fill-opacity="0.501961" points="257,62 260,56 237,61" />
<polygon fill="#717ac1" fill-opacity="0.501961" points="14,109 38,102 36,123" />
<polygon fill="#221600" fill-opacity="0.501961" points="193,126 164,92 151,111" />
<polygon fill="#030d1b" fill-opacity="0.501961" points="-3,188 -16,205 20,181" />
<polygon fill="#43606c" fill-opacity="0.501961" points="7,106 52,156 27,151" />
<polygon fill="#0d0b08" fill-opacity="0.501961" points="58,144 30,121 45,113" />
<polygon fill="#3e302d" fill-opacity="0.501961" points="89,120 28,109 99,102" />
<polygon fill="#ffb22e" fill-opacity="0.501961" points="108,116 120,112 96,113" />
<polygon fill="#ffffff" fill-opacity="0.501961" points="105,141 119,139 109,148" />
<polygon fill="#3c1e1e" fill-opacity="0.501961" points="109,197 36,184 57,144" />
<polygon fill="#8c7127" fill-opacity="0.501961" points="77,49 84,29 79,11" />
<polygon fill="#cd8900" fill-opacity="0.501961" points="193,125 215,120 189,136" />
<polygon fill="#574839" fill-opacity="0.501961" points="189,63 108,60 106,100" />
<polygon fill="#4c59a6" fill-opacity="0.501961" points="40,68 56,86 56,112" />
<polygon fill="#ffd400" fill-opacity="0.501961" points="115,124 99,123 107,126" />
<polygon fill="#81425b" fill-opacity="0.501961" points="127,165 91,186 147,207" />
<polygon fill="#ffd221" fill-opacity="0.501961" points="247,139 253,154 257,121" />
<polygon fill="#0378cb" fill-opacity="0.501961" points="30,207 27,182 -16,197" />
<polygon fill="#000000" fill-opacity="0.501961" points="250,43 232,50 271,47" />
<polygon fill="#008bff" fill-opacity="0.501961" points="113,126 101,126 107,138" />
<polygon fill="#cfa6a9" fill-opacity="0.501961" points="37,204 31,188 35,175" />
<polygon fill="#589fd4" fill-opacity="0.501961" points="9,89 31,85 -3,70" />
<polygon fill="#979390" fill-opacity="0.501961" points="121,171 138,149 160,167" />
<polygon fill="#de9496" fill-opacity="0.501961" points="96,121 73,147 101,131" />
<polygon fill="#12235f" fill-opacity="0.501961" points="123,174 134,185 148,174" />
<polygon fill="#4f8dad" fill-opacity="0.501961" points="215,95 225,97 220,83" />
<polygon fill="#5f1c23" fill-opacity="0.501961" points="161,133 154,148 138,125" />
<polygon fill="#c9cad3" fill-opacity="0.501961" points="17,88 1,89 12,103" />
<polygon fill="#000000" fill-opacity="0.501961" points="194,201 193,170 184,207" />
<polygon fill="#524556" fill-opacity="0.501961" points="20,105 -16,126 -3,97" />
<polygon fill="#b89f49" fill-opacity="0.501961" points="27,66 37,53 49,69" />
<polygon fill="#140a07" fill-opacity="0.501961" points="121,114 140,114 142,71" />
<polygon fill="#160000" fill-opacity="0.501961" points="271,151 271,189 248,176" />
<polygon fill="#b39872" fill-opacity="0.501961" points="37,158 17,173 -16,173" />
<polygon fill="#e1ffff" fill-opacity="0.501961" points="152,161 146,156 146,163" />
<polygon fill="#ffb700" fill-opacity="0.501961" points="219,147 208,145 218,144" />
<polygon fill="#755c21" fill-opacity="0.501961" points="90,100 75,81 81,44" />
<polygon fill="#836933" fill-opacity="0.501961" points="120,114 116,147 159,120" />
<polygon fill="#fffceb" fill-opacity="0.501961" points="136,135 153,146 132,150" />
<polygon fill="#ffffdf" fill-opacity="0.501961" points="12,169 36,170 2,182" />
<polygon fill="#b28e58" fill-opacity="0.501961" points="271,48 228,53 232,66" />
<polygon fill="#caab39" fill-opacity="0.501961" points="28,98 49,99 49,91" />
<polygon fill="#000914" fill-opacity="0.501961" points="43,16 10,73 4,34" />
<polygon fill="#665a4a" fill-opacity="0.501961" points="53,140 85,150 35,168" />
<polygon fill="#5e450b" fill-opacity="0.501961" points="160,62 155,114 195,78" />
<polygon fill="#162655" fill-opacity="0.501961" points="47,86 23,69 21,82" />
<polygon fill="#d3868e" fill-opacity="0.501961" points="32,126 28,112 36,112" />
<polygon fill="#a58996" fill-opacity="0.501961" points="245,136 251,96 271,78" />
<polygon fill="#a9c8ba" fill-opacity="0.501961" points="-2,118 -5,130 10,128" />
<polygon fill="#270e21" fill-opacity="0.501961" points="83,128 72,128 86,138" />
<polygon fill="#c7e436" fill-opacity="0.501961" points="116,104 102,107 118,108" />
<polygon fill="#250e49" fill-opacity="0.501961" points="114,136 100,133 94,142" />
<polygon fill="#000000" fill-opacity="0.501961" points="211,90 191,32 194,92" />
<polygon fill="#ffedcc" fill-opacity="0.501961" points="21,71 20,78 16,69" />
<polygon fill="#b3a245" fill-opacity="0.501961" points="161,135 170,124 162,125" />
<polygon fill="#0597e3" fill-opacity="0.501961" points="236,162 232,173 247,179" />
<polygon fill="#d1d097" fill-opacity="0.501961" points="210,165 202,160 222,160" />
<polygon fill="#8d6f7a" fill-opacity="0.501961" points="170,201 177,147 192,151" />
<polygon fill="#fb0f23" fill-opacity="0.501961" points="176,159 173,172 168,160" />
<polygon fill="#629cff" fill-opacity="0.501961" points="16,108 29,103 39,109" />
<polygon fill="#4163a5" fill-opacity="0.501961" points="195,177 242,184 200,204" />
<polygon fill="#0d0a11" fill-opacity="0.501961" points="179,135 199,141 208,177" />
<polygon fill="#3e0716" fill-opacity="0.501961" points="133,148 111,149 133,137" />
<polygon fill="#ca9b18" fill-opacity="0.501961" points="152,122 162,117 134,114" />
<polygon fill="#0059eb" fill-opacity="0.501961" points="95,115 98,122 108,117" />
<polygon fill="#120c00" fill-opacity="0.501961" points="224,116 222,101 181,102" />
<polygon fill="#869dad" fill-opacity="0.501961" points="64,206 47,182 50,207" />
<polygon fill="#351206" fill-opacity="0.501961" points="127,201 114,179 122,182" />
<polygon fill="#977433" fill-opacity="0.501961" points="249,48 254,40 228,44" />
<polygon fill="#b0bea8" fill-opacity="0.501961" points="221,164 233,151 212,164" />
<polygon fill="#dee4c7" fill-opacity="0.501961" points="34,162 45,154 16,161" />
<polygon fill="#000000" fill-opacity="0.501961" points="246,44 260,47 232,49" />
<polygon fill="#0f0300" fill-opacity="0.501961" points="220,156 224,140 230,150" />
<polygon fill="#ffffff" fill-opacity="0.501961" points="115,146 108,140 115,138" />
<polygon fill="#2b3035" fill-opacity="0.501961" points="46,129 20,114 15,158" />
<polygon fill="#cb4a2c" fill-opacity="0.501961" points="60,74 54,81 52,66" />
<polygon fill="#070918" fill-opacity="0.501961" points="58,38 59,108 75,97" />
<polygon fill="#a58237" fill-opacity="0.501961" points="270,152 251,142 241,156" />
<polygon fill="#000005" fill-opacity="0.501961" points="78,24 100,74 125,24" />
<polygon fill="#17ebff" fill-opacity="0.501961" points="101,102 113,103 110,106" />
<polygon fill="#827894" fill-opacity="0.501961" points="259,97 235,90 234,97" />
<polygon fill="#ba6b78" fill-opacity="0.501961" points="110,195 102,178 145,207" />
<polygon fill="#bc8200" fill-opacity="0.501961" points="189,97 205,95 186,92" />
<polygon fill="#1d1b27" fill-opacity="0.501961" points="121,114 110,97 153,123" />
<polygon fill="#0086ff" fill-opacity="0.501961" points="110,110 119,110 117,107" />
<polygon fill="#b26ca1" fill-opacity="0.501961" points="84,56 87,54 95,61" />
<polygon fill="#149ee7" fill-opacity="0.501961" points="13,84 26,83 1,95" />
<polygon fill="#dc9626" fill-opacity="0.501961" points="-8,101 6,97 5,92" />
<polygon fill="#604c39" fill-opacity="0.501961" points="252,178 260,190 221,175" />
<polygon fill="#000000" fill-opacity="0.501961" points="258,37 251,-16 199,48" />
<polygon fill="#fff7d8" fill-opacity="0.501961" points="167,146 137,145 167,156" />
<polygon fill="#725511" fill-opacity="0.501961" points="29,61 57,65 45,55" />
<polygon fill="#aa8e59" fill-opacity="0.501961" points="137,175 160,154 171,165" />
<polygon fill="#a3822f" fill-opacity="0.501961" points="158,91 147,112 151,58" />
<polygon fill="#040000" fill-opacity="0.501961" points="0,133 8,154 20,152" />
<polygon fill="#21231e" fill-opacity="0.501961" points="228,156 242,152 224,165" />
<polygon fill="#d9022a" fill-opacity="0.501961" points="154,145 152,156 155,154" />
<polygon fill="#9e6636" fill-opacity="0.501961" points="65,129 51,129 57,119" />
<polygon fill="#331b14" fill-opacity="0.501961" points="228,178 200,170 219,169" />
<polygon fill="#49615e" fill-opacity="0.501961" points="214,97 220,83 210,83" />
<polygon fill="#7c6544" fill-opacity="0.501961" points="107,90 106,63 117,72" />
<polygon fill="#7b5713" fill-opacity="0.501961" points="236,64 246,85 248,63" />
<polygon fill="#efaf1e" fill-opacity="0.501961" points="232,52 238,78 229,102" />
<polygon fill="#054dd2" fill-opacity="0.501961" points="56,106 59,97 50,104" />
<polygon fill="#bfbf62" fill-opacity="0.501961" points="139,124 125,124 116,133" />
<polygon fill="#6e3d38" fill-opacity="0.501961" points="161,207 153,169 174,184" />
<polygon fill="#6b4356" fill-opacity="0.501961" points="137,166 131,155 146,154" />
<polygon fill="#0031d9" fill-opacity="0.501961" points="75,117 73,113 68,117" />
<polygon fill="#3f5354" fill-opacity="0.501961" points="16,158 29,158 24,125" />
<polygon fill="#9b9968" fill-opacity="0.501961" points="29,54 35,58 46,57" />
<polygon fill="#594221" fill-opacity="0.501961" points="192,65 190,99 164,67" />
<polygon fill="#000206" fill-opacity="0.501961" points="86,-12 83,54 136,64" />
<polygon fill="#cf9b8e" fill-opacity="0.501961" points="121,168 128,163 140,173" />
<polygon fill="#ffebfc" fill-opacity="0.501961" points="112,118 118,117 112,125" />
<polygon fill="#3c2509" fill-opacity="0.501961" points="193,105 157,140 222,113" />
<polygon fill="#0e0000" fill-opacity="0.501961" points="28,188 31,190 30,178" />
<polygon fill="#bba475" fill-opacity="0.501961" points="-8,174 23,172 42,157" />
<polygon fill="#bbac95" fill-opacity="0.501961" points="-9,173 2,162 0,136" />
<polygon fill="#3b291f" fill-opacity="0.501961" points="62,112 95,115 80,70" />
<polygon fill="#1a1739" fill-opacity="0.501961" points="51,103 26,112 37,113" />
<polygon fill="#ffefda" fill-opacity="0.501961" points="134,135 139,144 147,139" />
<polygon fill="#11101e" fill-opacity="0.501961" points="106,71 90,100 84,59" />
<polygon fill="#472d00" fill-opacity="0.501961" points="254,163 271,176 255,141" />
<polygon fill="#d8c7ae" fill-opacity="0.501961" points="82,139 92,140 72,147" />
<polygon fill="#ffffee" fill-opacity="0.501961" points="10,179 25,169 38,171" />
<polygon fill="#040c1b" fill-opacity="0.501961" points="-16,60 31,62 30,38" />
<polygon fill="#079eff" fill-opacity="0.501961" points="113,133 102,135 104,128" />
<polygon fill="#937314" fill-opacity="0.501961" points="75,72 85,73 82,41" />
<polygon fill="#281e1d" fill-opacity="0.501961" points="96,193 36,186 39,167" />
<polygon fill="#ffee00" fill-opacity="0.501961" points="250,143 258,122 271,140" />
<polygon fill="#a192a6" fill-opacity="0.501961" points="18,176 32,176 5,184" />
<polygon fill="#b7a883" fill-opacity="0.501961" points="50,63 22,63 45,70" />
<polygon fill="#95838e" fill-opacity="0.501961" points="22,77 20,84 -2,77" />
<polygon fill="#583200" fill-opacity="0.501961" points="194,136 207,127 221,145" />
<polygon fill="#89aab2" fill-opacity="0.501961" points="190,150 181,153 183,173" />
<polygon fill="#473728" fill-opacity="0.501961" points="37,101 66,139 50,98" />
<polygon fill="#c7182a" fill-opacity="0.501961" points="180,149 157,142 169,142" />
</g>
</svg>