<svg xmlns="http://www.w3.org/2000/svg" version="1.1" width="1024" height="768">
<rect x="0" y="0" width="1024" height="768" fill="#616d73" />
<g transform="scale(4.000000) translate(0.5 0.5)">
<polygon fill="#d4e0d9" fill-opacity="0.501961" points="104,97 160,199 271,142" />
<polygon fill="#051114" fill-opacity="0.501961" points="1,-16 -16,165 136,11" />
<polygon fill="#5093df" fill-opacity="0.501961" points="84,0 136,93 271,41" />
<polygon fill="#ae9e87" fill-opacity="0.501961" points="105,119 5,157 260,205" />
<polygon fill="#39230e" fill-opacity="0.501961" points="-16,157 163,189 35,207" />
<polygon fill="#1c559a" fill-opacity="0.501961" points="79,-16 271,8 104,56" />
<polygon fill="#131715" fill-opacity="0.501961" points="8,50 86,-16 88,101" />
<polygon fill="#8f8e77" fill-opacity="0.501961" points="99,109 -13,119 4,71" />
<polygon fill="#343417" fill-opacity="0.501961" points="269,157 256,186 164,177" />
<polygon fill="#a2a395" fill-opacity="0.501961" points="88,111 112,57 271,65" />
<polygon fill="#261b11" fill-opacity="0.501961" points="227,76 271,116 186,103" />
<polygon fill="#a9ccd3" fill-opacity="0.501961" points="61,137 241,170 175,107" />
<polygon fill="#49423f" fill-opacity="0.501961" points="81,149 159,149 158,171" />
<polygon fill="#030300" fill-opacity="0.501961" points="101,31 88,68 107,75" />
<polygon fill="#000000" fill-opacity="0.501961" points="67,115 99,121 125,107" />
<polygon fill="#433d29" fill-opacity="0.501961" points="43,64 110,98 42,100" />
<polygon fill="#b5b8a7" fill-opacity="0.501961" points="218,58 271,112 271,54" />
<polygon fill="#8b7e65" fill-opacity="0.501961" points="82,77 125,118 224,95" />
<polygon fill="#ac9e86" fill-opacity="0.501961" points="23,84 54,73 90,82" />
<polygon fill="#4e473e" fill-opacity="0.501961" points="115,207 87,143 51,141" />
<polygon fill="#967a6c" fill-opacity="0.501961" points="255,160 228,149 221,78" />
<polygon fill="#5d3e1b" fill-opacity="0.501961" points="193,92 205,30 210,90" />
<polygon fill="#366cae" fill-opacity="0.501961" points="270,0 196,-16 228,81" />
<polygon fill="#afa081" fill-opacity="0.501961" points="77,176 -9,143 35,132" />
<polygon fill="#000000" fill-opacity="0.501961" points="44,123 81,120 72,113" />
<polygon fill="#000412" fill-opacity="0.501961" points="142,177 177,207 104,197" />
<polygon fill="#000000" fill-opacity="0.501961" points="56,63 -16,61 17,73" />
<polygon fill="#281506" fill-opacity="0.501961" points="-16,137 27,111 53,124" />
<polygon fill="#d0ccbd" fill-opacity="0.501961" points="53,107 90,107 27,124" />
<polygon fill="#699dd6" fill-opacity="0.501961" points="133,84 133,50 248,58" />
<polygon fill="#3a4036" fill-opacity="0.501961" points="131,68 109,82 133,106" />
<polygon fill="#c3bcaa" fill-opacity="0.501961" points="187,176 124,181 99,158" />
<polygon fill="#ecdcd8" fill-opacity="0.501961" points="85,119 106,127 64,123" />
<polygon fill="#000000" fill-opacity="0.501961" points="226,90 233,72 244,113" />
<polygon fill="#272c02" fill-opacity="0.501961" points="250,152 271,190 228,185" />
<polygon fill="#d3dacf" fill-opacity="0.501961" points="239,161 229,173 197,136" />
<polygon fill="#7d7363" fill-opacity="0.501961" points="17,118 48,129 1,202" />
<polygon fill="#454b3c" fill-opacity="0.501961" points="135,134 132,162 148,182" />
<polygon fill="#ffe9b2" fill-opacity="0.501961" points="135,67 111,68 115,55" />
<polygon fill="#4e4c49" fill-opacity="0.501961" points="215,158 239,186 194,180" />
<polygon fill="#f8f1e4" fill-opacity="0.501961" points="65,95 60,88 70,83" />
<polygon fill="#030000" fill-opacity="0.501961" points="62,112 59,122 98,116" />
<polygon fill="#639fb3" fill-opacity="0.501961" points="100,98 135,129 190,129" />
<polygon fill="#d4bea4" fill-opacity="0.501961" points="160,78 189,88 165,97" />
<polygon fill="#ffd7b3" fill-opacity="0.501961" points="17,85 6,79 36,79" />
<polygon fill="#000000" fill-opacity="0.501961" points="56,87 42,99 63,96" />
<polygon fill="#bdcbcf" fill-opacity="0.501961" points="165,130 240,151 161,175" />
<polygon fill="#000000" fill-opacity="0.501961" points="-16,107 15,94 -16,91" />
<polygon fill="#000000" fill-opacity="0.501961" points="72,4 62,-16 0,0" />
<polygon fill="#dedbcd" fill-opacity="0.501961" points="117,148 119,118 133,153" />
<polygon fill="#4d4133" fill-opacity="0.501961" points="90,127 81,134 112,133" />
<polygon fill="#dac7a0" fill-opacity="0.501961" points="107,73 96,96 94,77" />
<polygon fill="#001120" fill-opacity="0.501961" points="269,96 237,95 271,145" />
<polygon fill="#0a1720" fill-opacity="0.501961" points="51,10 74,107 91,-16" />
<polygon fill="#b6b1a3" fill-opacity="0.501961" points="268,197 163,206 159,173" />
<polygon fill="#3573bb" fill-opacity="0.501961" points="86,54 101,12 89,15" />
<polygon fill="#ead7bd" fill-opacity="0.501961" points="115,168 98,159 85,165" />
<polygon fill="#0d0216" fill-opacity="0.501961" points="223,135 245,132 240,126" />
<polygon fill="#2a2721" fill-opacity="0.501961" points="62,83 6,85 35,95" />
<polygon fill="#b7a983" fill-opacity="0.501961" points="271,95 238,91 238,48" />
<polygon fill="#64766a" fill-opacity="0.501961" points="30,51 57,42 -3,42" />
<polygon fill="#645b52" fill-opacity="0.501961" points="121,140 101,158 64,145" />
<polygon fill="#4e504c" fill-opacity="0.501961" points="208,185 184,165 237,171" />
<polygon fill="#e8f2e7" fill-opacity="0.501961" points="59,139 78,131 104,140" />
<polygon fill="#d5dace" fill-opacity="0.501961" points="17,87 23,90 22,106" />
<polygon fill="#000000" fill-opacity="0.501961" points="-16,150 6,118 17,133" />
<polygon fill="#989886" fill-opacity="0.501961" points="238,115 227,92 213,134" />
<polygon fill="#647971" fill-opacity="0.501961" points="57,30 34,38 4,29" />
<polygon fill="#4e84b9" fill-opacity="0.501961" points="194,62 106,57 103,21" />
<polygon fill="#000000" fill-opacity="0.501961" points="47,16 9,15 34,9" />
<polygon fill="#778c85" fill-opacity="0.501961" points="25,59 45,55 65,62" />
<polygon fill="#88683d" fill-opacity="0.501961" points="210,57 204,22 199,76" />
<polygon fill="#dbd4bc" fill-opacity="0.501961" points="55,156 37,140 40,163" />
<polygon fill="#11110f" fill-opacity="0.501961" points="38,178 58,197 -16,207" />
<polygon fill="#000000" fill-opacity="0.501961" points="-11,20 30,25 3,29" />
<polygon fill="#000000" fill-opacity="0.501961" points="16,55 41,48 -4,48" />
<polygon fill="#0d0f06" fill-opacity="0.501961" points="65,83 96,86 92,100" />
<polygon fill="#7b695b" fill-opacity="0.501961" points="116,92 118,123 134,108" />
<polygon fill="#282420" fill-opacity="0.501961" points="109,169 75,171 96,178" />
<polygon fill="#758a8b" fill-opacity="0.501961" points="15,100 53,113 78,101" />
<polygon fill="#5c6157" fill-opacity="0.501961" points="41,143 38,158 -16,148" />
<polygon fill="#161c1e" fill-opacity="0.501961" points="106,45 92,81 91,35" />
<polygon fill="#000000" fill-opacity="0.501961" points="-16,35 14,45 45,37" />
<polygon fill="#140903" fill-opacity="0.501961" points="216,93 226,84 191,89" />
<polygon fill="#ccd4c4" fill-opacity="0.501961" points="83,103 57,112 111,109" />
<polygon fill="#698fb0" fill-opacity="0.501961" points="84,67 89,42 91,69" />
<polygon fill="#cec7bb" fill-opacity="0.501961" points="188,64 180,90 187,95" />
<polygon fill="#e6e8dc" fill-opacity="0.501961" points="61,117 41,111 37,119" />
<polygon fill="#afa596" fill-opacity="0.501961" points="42,127 -2,144 21,148" />
<polygon fill="#f2d7a9" fill-opacity="0.501961" points="139,91 133,68 131,94" />
<polygon fill="#21262d" fill-opacity="0.501961" points="161,91 156,77 155,108" />
<polygon fill="#000000" fill-opacity="0.501961" points="26,131 29,124 19,125" />
<polygon fill="#5e7169" fill-opacity="0.501961" points="56,27 53,16 17,18" />
<polygon fill="#150000" fill-opacity="0.501961" points="121,86 105,88 107,82" />
<polygon fill="#d7c8c3" fill-opacity="0.501961" points="247,149 257,120 257,152" />
<polygon fill="#a89681" fill-opacity="0.501961" points="92,187 110,177 82,182" />
<polygon fill="#313132" fill-opacity="0.501961" points="192,68 191,81 218,91" />
<polygon fill="#515648" fill-opacity="0.501961" points="10,162 24,139 -16,154" />
<polygon fill="#2e5788" fill-opacity="0.501961" points="107,32 271,1 80,-16" />
<polygon fill="#d1c3a4" fill-opacity="0.501961" points="124,88 121,96 96,88" />
<polygon fill="#2b2927" fill-opacity="0.501961" points="45,135 28,111 62,135" />
<polygon fill="#596863" fill-opacity="0.501961" points="57,70 57,81 18,72" />
<polygon fill="#a5c5ce" fill-opacity="0.501961" points="171,158 117,123 232,135" />
<polygon fill="#f5e9d0" fill-opacity="0.501961" points="172,76 161,75 162,89" />
<polygon fill="#617c7a" fill-opacity="0.501961" points="38,2 17,7 59,10" />
<polygon fill="#474d54" fill-opacity="0.501961" points="168,180 186,183 169,173" />
<polygon fill="#4b3427" fill-opacity="0.501961" points="42,109 61,106 63,112" />
<polygon fill="#000000" fill-opacity="0.501961" points="53,61 12,66 88,77" />
<polygon fill="#1e1a15" fill-opacity="0.501961" points="196,119 207,98 224,98" />
<polygon fill="#7f7266" fill-opacity="0.501961" points="176,119 213,110 177,102" />
<polygon fill="#aaa895" fill-opacity="0.501961" points="43,87 41,102 35,87" />
<polygon fill="#afd4cc" fill-opacity="0.501961" points="110,97 95,108 121,107" />
<polygon fill="#3e5c56" fill-opacity="0.501961" points="98,96 73,106 111,104" />
<polygon fill="#120c00" fill-opacity="0.501961" points="82,121 101,111 66,113" />
<polygon fill="#000000" fill-opacity="0.501961" points="-13,5 23,14 -7,16" />
<polygon fill="#8c6b58" fill-opacity="0.501961" points="271,169 238,154 223,127" />
<polygon fill="#9c9f9e" fill-opacity="0.501961" points="188,103 141,105 168,122" />
<polygon fill="#a99aae" fill-opacity="0.501961" points="56,167 49,177 57,178" />
<polygon fill="#92b8a6" fill-opacity="0.501961" points="14,100 8,110 -16,105" />
<polygon fill="#5d8fc3" fill-opacity="0.501961" points="206,47 271,24 217,69" />
<polygon fill="#42584e" fill-opacity="0.501961" points="124,90 163,103 112,104" />
<polygon fill="#67766b" fill-opacity="0.501961" points="0,61 40,61 26,54" />
<polygon fill="#505352" fill-opacity="0.501961" points="55,135 55,159 82,164" />
<polygon fill="#a29287" fill-opacity="0.501961" points="197,76 228,84 224,71" />
<polygon fill="#987369" fill-opacity="0.501961" points="180,143 194,149 174,151" />
<polygon fill="#fff5f5" fill-opacity="0.501961" points="198,120 197,124 186,118" />
<polygon fill="#d2b892" fill-opacity="0.501961" points="120,80 95,73 119,73" />
<polygon fill="#b19074" fill-opacity="0.501961" points="2,178 13,174 16,203" />
<polygon fill="#b8b6af" fill-opacity="0.501961" points="223,98 223,90 211,98" />
<polygon fill="#000000" fill-opacity="0.501961" points="55,2 12,-10 -16,3" />
<polygon fill="#c3c3b5" fill-opacity="0.501961" points="271,199 217,182 226,207" />
<polygon fill="#100c06" fill-opacity="0.501961" points="84,113 112,119 115,109" />
<polygon fill="#3b0c4c" fill-opacity="0.501961" points="162,168 147,168 164,163" />
<polygon fill="#26282e" fill-opacity="0.501961" points="142,178 165,197 115,188" />
<polygon fill="#000000" fill-opacity="0.501961" points="57,24 41,30 22,25" />
<polygon fill="#3d4038" fill-opacity="0.501961" points="233,65 220,70 237,85" />
<polygon fill="#846e4c" fill-opacity="0.501961" points="209,22 201,47 202,7" />
<polygon fill="#3c2218" fill-opacity="0.501961" points="216,116 219,134 212,123" />
<polygon fill="#656351" fill-opacity="0.501961" points="271,156 265,91 239,126" />
<polygon fill="#d4e0d9" fill-opacity="0.501961" points="127,140 135,127 99,141" />
<polygon fill="#e3dab9" fill-opacity="0.501961" points="114,207 -1,206 54,189" />
<polygon fill="#637c7b" fill-opacity="0.501961" points="34,22 21,15 -4,21" />
<polygon fill="#bdaf85" fill-opacity="0.501961" points="78,68 71,68 66,63" />
<polygon fill="#5c2d11" fill-opacity="0.501961" points="229,149 224,157 227,157" />
<polygon fill="#dde5f1" fill-opacity="0.501961" points="229,117 226,126 233,125" />
<polygon fill="#d9c4a8" fill-opacity="0.501961" points="143,174 104,164 124,182" />
<polygon fill="#607169" fill-opacity="0.501961" points="-4,45 37,41 20,49" />
<polygon fill="#000700" fill-opacity="0.501961" points="71,144 65,141 55,145" />
<polygon fill="#936546" fill-opacity="0.501961" points="96,116 90,125 92,111" />
<polygon fill="#a2967c" fill-opacity="0.501961" points="54,81 70,77 86,82" />
<polygon fill="#84917c" fill-opacity="0.501961" points="46,173 27,180 23,175" />
<polygon fill="#d3cec0" fill-opacity="0.501961" points="58,87 69,89 66,96" />
<polygon fill="#bbb9a7" fill-opacity="0.501961" points="28,136 26,160 19,161" />
<polygon fill="#b9a284" fill-opacity="0.501961" points="76,174 78,162 36,161" />
<polygon fill="#8d8c7b" fill-opacity="0.501961" points="71,56 80,65 86,64" />
<polygon fill="#160403" fill-opacity="0.501961" points="206,125 199,122 200,112" />
<polygon fill="#e9e1d6" fill-opacity="0.501961" points="180,159 169,171 150,173" />
<polygon fill="#000000" fill-opacity="0.501961" points="4,49 -10,55 13,54" />
<polygon fill="#000000" fill-opacity="0.501961" points="-16,70 42,71 23,60" />
<polygon fill="#aca7a5" fill-opacity="0.501961" points="125,117 97,129 96,121" />
<polygon fill="#645040" fill-opacity="0.501961" points="49,174 66,166 23,163" />
<polygon fill="#000000" fill-opacity="0.501961" points="22,118 36,113 35,119" />
<polygon fill="#d3bfa5" fill-opacity="0.501961" points="187,207 137,172 223,197" />
<polygon fill="#000000" fill-opacity="0.501961" points="114,147 111,146 113,143" />
<polygon fill="#454b44" fill-opacity="0.501961" points="40,79 48,70 79,79" />
<polygon fill="#7a6f62" fill-opacity="0.501961" points="186,78 184,121 168,79" />
<polygon fill="#fad9b8" fill-opacity="0.501961" points="11,80 -1,80 9,83" />
<polygon fill="#7cadbd" fill-opacity="0.501961" points="24,101 41,106 15,107" />
<polygon fill="#6e7d6f" fill-opacity="0.501961" points="3,36 22,36 -16,23" />
<polygon fill="#4c4c44" fill-opacity="0.501961" points="106,136 115,131 97,129" />
<polygon fill="#1e1e1b" fill-opacity="0.501961" points="-1,84 24,86 7,90" />
<polygon fill="#443c36" fill-opacity="0.501961" points="135,134 139,155 132,148" />
<polygon fill="#58a6bd" fill-opacity="0.501961" points="132,116 173,111 143,128" />
<polygon fill="#5b5952" fill-opacity="0.501961" points="205,168 176,163 198,174" />
<polygon fill="#6a8379" fill-opacity="0.501961" points="-6,1 21,8 -16,9" />
<polygon fill="#60625a" fill-opacity="0.501961" points="140,172 167,154 143,156" />
<polygon fill="#060100" fill-opacity="0.501961" points="83,81 83,66 69,71" />
<polygon fill="#35362d" fill-opacity="0.501961" points="47,101 29,89 18,100" />
<polygon fill="#b6a6be" fill-opacity="0.501961" points="180,179 162,172 183,168" />
<polygon fill="#252214" fill-opacity="0.501961" points="97,195 72,179 58,184" />
<polygon fill="#0c3232" fill-opacity="0.501961" points="20,109 11,101 11,111" />
<polygon fill="#b3b187" fill-opacity="0.501961" points="254,184 262,194 236,207" />
<polygon fill="#000000" fill-opacity="0.501961" points="19,54 51,54 37,48" />
<polygon fill="#d5cdc1" fill-opacity="0.501961" points="190,78 164,78 186,72" />
<polygon fill="#dbc0a2" fill-opacity="0.501961" points="41,83 31,79 45,80" />
<polygon fill="#d9cbd3" fill-opacity="0.501961" points="199,125 222,133 202,133" />
<polygon fill="#e7cc96" fill-opacity="0.501961" points="129,85 124,85 124,78" />
<polygon fill="#7a6754" fill-opacity="0.501961" points="97,181 129,190 108,166" />
<polygon fill="#3d4238" fill-opacity="0.501961" points="14,71 6,79 43,78" />
<polygon fill="#0d0900" fill-opacity="0.501961" points="90,34 97,41 100,31" />
<polygon fill="#e2e8e2" fill-opacity="0.501961" points="184,162 162,160 187,151" />
<polygon fill="#3f2c2f" fill-opacity="0.501961" points="10,185 -1,183 -13,207" />
<polygon fill="#3e73ab" fill-opacity="0.501961" points="271,9 208,28 268,59" />
<polygon fill="#736e65" fill-opacity="0.501961" points="103,140 124,159 55,152" />
<polygon fill="#3e6c9b" fill-opacity="0.501961" points="195,43 85,30 204,8" />
<polygon fill="#1a2917" fill-opacity="0.501961" points="5,172 24,166 40,172" />
<polygon fill="#607574" fill-opacity="0.501961" points="57,47 50,42 33,48" />
<polygon fill="#747678" fill-opacity="0.501961" points="201,180 219,167 171,174" />
<polygon fill="#000000" fill-opacity="0.501961" points="29,13 46,16 54,10" />
<polygon fill="#eaeaf2" fill-opacity="0.501961" points="247,149 271,153 251,141" />
</g>
</svg>