<svg xmlns="http://www.w3.org/2000/svg" version="1.1" width="1024" height="768">
<rect x="0" y="0" width="1024" height="768" fill="#5b5b51" />
<g transform="scale(4.000000) translate(0.5 0.5)">
<polygon fill="#a9f8ff" fill-opacity="0.501961" points="77,-16 163,6 123,59" />
<polygon fill="#cdd15a" fill-opacity="0.501961" points="4,99 -16,1 44,-4" />
<polygon fill="#171d09" fill-opacity="0.501961" points="251,-16 229,95 153,7" />
<polygon fill="#dab6a0" fill-opacity="0.501961" points="-16,122 -4,207 63,186" />
<polygon fill="#131800" fill-opacity="0.501961" points="105,10 7,71 102,75" />
<polygon fill="#352c2b" fill-opacity="0.501961" points="234,153 121,146 168,6" />
<polygon fill="#8dc5ff" fill-opacity="0.501961" points="87,10 144,50 148,-16" />
<polygon fill="#dab496" fill-opacity="0.501961" points="13,122 35,125 39,75" />
<polygon fill="#f2e27b" fill-opacity="0.501961" points="261,95 235,75 227,100" />
<polygon fill="#befcff" fill-opacity="0.501961" points="241,61 271,40 242,46" />
<polygon fill="#514f65" fill-opacity="0.501961" points="82,115 271,207 9,168" />
<polygon fill="#ecc7a4" fill-opacity="0.501961" points="39,148 9,142 -16,175" />
<polygon fill="#7f895b" fill-opacity="0.501961" points="88,18 103,-13 -16,4" />
<polygon fill="#ffe5b0" fill-opacity="0.501961" points="239,126 271,117 265,137" />
<polygon fill="#131215" fill-opacity="0.501961" points="186,149 153,147 173,81" />
<polygon fill="#191900" fill-opacity="0.501961" points="204,65 252,57 271,87" />
<polygon fill="#928d4e" fill-opacity="0.501961" points="90,44 134,37 128,63" />
<polygon fill="#a4aa48" fill-opacity="0.501961" points="-16,51 44,56 39,32" />
<polygon fill="#8ec2ff" fill-opacity="0.501961" points="108,-5 106,40 159,24" />
<polygon fill="#323819" fill-opacity="0.501961" points="61,76 109,22 33,14" />
<polygon fill="#cec998" fill-opacity="0.501961" points="-6,91 12,96 14,67" />
<polygon fill="#624e47" fill-opacity="0.501961" points="6,183 227,58 75,74" />
<polygon fill="#e9caa2" fill-opacity="0.501961" points="-16,182 8,207 56,185" />
<polygon fill="#242334" fill-opacity="0.501961" points="5,143 -16,128 52,133" />
<polygon fill="#000000" fill-opacity="0.501961" points="13,109 -16,108 19,95" />
<polygon fill="#94745e" fill-opacity="0.501961" points="71,128 16,106 23,78" />
<polygon fill="#87beff" fill-opacity="0.501961" points="249,26 248,14 271,1" />
<polygon fill="#23291e" fill-opacity="0.501961" points="148,66 233,19 271,36" />
<polygon fill="#5078a1" fill-opacity="0.501961" points="146,-1 164,4 146,43" />
<polygon fill="#9aad97" fill-opacity="0.501961" points="67,15 38,-14 94,14" />
<polygon fill="#001936" fill-opacity="0.501961" points="189,77 178,123 165,80" />
<polygon fill="#231f00" fill-opacity="0.501961" points="261,50 265,89 246,120" />
<polygon fill="#060000" fill-opacity="0.501961" points="224,60 231,82 220,113" />
<polygon fill="#789bb8" fill-opacity="0.501961" points="231,59 255,43 232,49" />
<polygon fill="#74584a" fill-opacity="0.501961" points="220,75 179,49 222,149" />
<polygon fill="#6d6973" fill-opacity="0.501961" points="59,189 159,207 23,140" />
<polygon fill="#8c614e" fill-opacity="0.501961" points="168,113 164,138 151,112" />
<polygon fill="#ddcfbb" fill-opacity="0.501961" points="25,128 20,110 36,111" />
<polygon fill="#4c4c57" fill-opacity="0.501961" points="201,106 164,207 271,159" />
<polygon fill="#ffe0a5" fill-opacity="0.501961" points="32,75 49,75 36,81" />
<polygon fill="#454c30" fill-opacity="0.501961" points="208,-16 259,4 108,87" />
<polygon fill="#b8a797" fill-opacity="0.501961" points="158,179 161,186 176,178" />
<polygon fill="#514f51" fill-opacity="0.501961" points="2,167 46,155 23,182" />
<polygon fill="#6c6b2c" fill-opacity="0.501961" points="80,2 44,20 13,4" />
<polygon fill="#150d00" fill-opacity="0.501961" points="244,108 256,115 227,117" />
<polygon fill="#89b9ff" fill-opacity="0.501961" points="88,-16 122,43 147,4" />
<polygon fill="#000000" fill-opacity="0.501961" points="182,114 148,109 180,103" />
<polygon fill="#565c43" fill-opacity="0.501961" points="90,57 94,14 105,17" />
<polygon fill="#69594d" fill-opacity="0.501961" points="144,141 68,131 110,47" />
<polygon fill="#cacb67" fill-opacity="0.501961" points="-1,0 26,42 5,29" />
<polygon fill="#455971" fill-opacity="0.501961" points="170,108 148,104 167,77" />
<polygon fill="#debf9d" fill-opacity="0.501961" points="28,144 -2,142 -16,159" />
<polygon fill="#574034" fill-opacity="0.501961" points="45,68 104,99 42,103" />
<polygon fill="#1b1d12" fill-opacity="0.501961" points="25,73 87,74 112,48" />
<polygon fill="#7dabf6" fill-opacity="0.501961" points="83,14 123,-16 145,0" />
<polygon fill="#dbbd9f" fill-opacity="0.501961" points="53,169 31,174 43,180" />
<polygon fill="#15230f" fill-opacity="0.501961" points="145,41 171,49 176,34" />
<polygon fill="#8a8c4f" fill-opacity="0.501961" points="78,48 124,40 117,52" />
<polygon fill="#716349" fill-opacity="0.501961" points="197,107 175,135 257,105" />
<polygon fill="#81b3b4" fill-opacity="0.501961" points="148,20 138,46 145,55" />
<polygon fill="#504c55" fill-opacity="0.501961" points="23,181 44,184 60,176" />
<polygon fill="#95a073" fill-opacity="0.501961" points="38,40 8,75 1,62" />
<polygon fill="#6a513c" fill-opacity="0.501961" points="-9,123 21,106 19,124" />
<polygon fill="#4e6c80" fill-opacity="0.501961" points="166,10 144,-6 158,39" />
<polygon fill="#5e6735" fill-opacity="0.501961" points="82,36 65,12 19,28" />
<polygon fill="#837a57" fill-opacity="0.501961" points="162,89 158,67 173,60" />
<polygon fill="#413f44" fill-opacity="0.501961" points="-9,143 105,141 50,124" />
<polygon fill="#262e1a" fill-opacity="0.501961" points="162,21 220,54 161,-8" />
<polygon fill="#91848d" fill-opacity="0.501961" points="203,85 202,69 192,82" />
<polygon fill="#444230" fill-opacity="0.501961" points="7,-16 7,7 23,8" />
<polygon fill="#74664d" fill-opacity="0.501961" points="48,129 2,51 35,78" />
<polygon fill="#3b4323" fill-opacity="0.501961" points="44,29 99,13 37,53" />
<polygon fill="#7b98a9" fill-opacity="0.501961" points="220,51 222,63 224,47" />
<polygon fill="#524539" fill-opacity="0.501961" points="109,112 155,114 133,43" />
<polygon fill="#e8c7a4" fill-opacity="0.501961" points="237,132 271,119 271,131" />
<polygon fill="#1c2211" fill-opacity="0.501961" points="183,52 214,65 213,35" />
<polygon fill="#403416" fill-opacity="0.501961" points="90,9 93,-5 111,-16" />
<polygon fill="#a69591" fill-opacity="0.501961" points="238,182 226,177 247,176" />
<polygon fill="#000000" fill-opacity="0.501961" points="58,48 49,46 54,70" />
<polygon fill="#a3ddff" fill-opacity="0.501961" points="103,30 121,40 151,21" />
<polygon fill="#060b00" fill-opacity="0.501961" points="19,85 14,74 17,98" />
<polygon fill="#beb160" fill-opacity="0.501961" points="229,109 230,103 249,106" />
<polygon fill="#ffdea9" fill-opacity="0.501961" points="0,207 12,181 -16,183" />
<polygon fill="#baa38e" fill-opacity="0.501961" points="0,192 31,199 73,178" />
<polygon fill="#b9b871" fill-opacity="0.501961" points="220,102 222,83 217,96" />
<polygon fill="#8c8b55" fill-opacity="0.501961" points="103,67 139,56 121,71" />
<polygon fill="#838349" fill-opacity="0.501961" points="231,81 255,85 239,72" />
<polygon fill="#817469" fill-opacity="0.501961" points="110,110 66,124 109,128" />
<polygon fill="#272314" fill-opacity="0.501961" points="228,109 228,93 215,105" />
<polygon fill="#d4b898" fill-opacity="0.501961" points="36,151 -16,141 4,154" />
<polygon fill="#4b4c41" fill-opacity="0.501961" points="171,-16 223,44 229,-2" />
<polygon fill="#070305" fill-opacity="0.501961" points="233,46 227,64 226,34" />
<polygon fill="#c2be70" fill-opacity="0.501961" points="25,23 2,8 31,12" />
<polygon fill="#c6b29c" fill-opacity="0.501961" points="125,158 128,154 118,155" />
<polygon fill="#39291b" fill-opacity="0.501961" points="212,73 205,94 182,109" />
<polygon fill="#545765" fill-opacity="0.501961" points="165,158 152,207 10,153" />
<polygon fill="#636662" fill-opacity="0.501961" points="237,2 271,22 245,-16" />
<polygon fill="#b7e4ff" fill-opacity="0.501961" points="265,52 263,45 240,49" />
<polygon fill="#fbd4a8" fill-opacity="0.501961" points="-16,154 18,161 -16,172" />
<polygon fill="#b5d4c7" fill-opacity="0.501961" points="8,65 7,59 -6,71" />
<polygon fill="#cbc07c" fill-opacity="0.501961" points="235,100 231,85 251,83" />
<polygon fill="#90a09b" fill-opacity="0.501961" points="95,1 67,20 68,8" />
<polygon fill="#94924f" fill-opacity="0.501961" points="121,42 118,54 96,30" />
<polygon fill="#525c3e" fill-opacity="0.501961" points="159,51 197,26 175,62" />
<polygon fill="#47422d" fill-opacity="0.501961" points="34,80 34,49 22,82" />
<polygon fill="#669dbb" fill-opacity="0.501961" points="158,35 149,38 137,28" />
<polygon fill="#64574c" fill-opacity="0.501961" points="81,116 48,135 77,57" />
<polygon fill="#a2cfec" fill-opacity="0.501961" points="194,93 190,93 191,97" />
<polygon fill="#a6ab77" fill-opacity="0.501961" points="52,-1 36,9 73,0" />
<polygon fill="#a7ae6a" fill-opacity="0.501961" points="149,63 153,69 142,70" />
<polygon fill="#212417" fill-opacity="0.501961" points="106,46 77,30 77,12" />
<polygon fill="#8f7c6e" fill-opacity="0.501961" points="38,195 32,178 -3,198" />
<polygon fill="#8a7561" fill-opacity="0.501961" points="17,85 23,107 70,116" />
<polygon fill="#dabe9e" fill-opacity="0.501961" points="-7,170 -16,179 17,174" />
<polygon fill="#8d6e58" fill-opacity="0.501961" points="153,114 146,115 155,90" />
<polygon fill="#110602" fill-opacity="0.501961" points="164,124 160,112 159,130" />
<polygon fill="#474658" fill-opacity="0.501961" points="229,207 259,207 265,108" />
<polygon fill="#a58d6f" fill-opacity="0.501961" points="11,120 17,113 -2,114" />
<polygon fill="#3d3433" fill-opacity="0.501961" points="76,117 40,96 41,81" />
<polygon fill="#7b6853" fill-opacity="0.501961" points="53,78 43,65 51,105" />
<polygon fill="#3f473f" fill-opacity="0.501961" points="87,43 107,22 102,11" />
<polygon fill="#222c11" fill-opacity="0.501961" points="155,69 165,55 145,56" />
<polygon fill="#87b6f0" fill-opacity="0.501961" points="165,28 104,15 88,-16" />
<polygon fill="#7f544b" fill-opacity="0.501961" points="175,58 211,88 207,58" />
<polygon fill="#beb4a6" fill-opacity="0.501961" points="37,126 34,111 20,124" />
<polygon fill="#878a46" fill-opacity="0.501961" points="21,17 49,57 11,27" />
<polygon fill="#17160b" fill-opacity="0.501961" points="229,77 237,52 241,67" />
<polygon fill="#f7e17e" fill-opacity="0.501961" points="6,87 6,95 -16,91" />
<polygon fill="#bdbe5f" fill-opacity="0.501961" points="1,60 27,57 11,47" />
<polygon fill="#786b60" fill-opacity="0.501961" points="2,158 -11,154 15,153" />
<polygon fill="#8bb2ca" fill-opacity="0.501961" points="230,55 235,52 237,44" />
<polygon fill="#4b4b53" fill-opacity="0.501961" points="114,154 144,122 24,148" />
<polygon fill="#2b2f2f" fill-opacity="0.501961" points="258,24 230,41 249,46" />
<polygon fill="#2c4158" fill-opacity="0.501961" points="168,107 189,71 155,88" />
<polygon fill="#938248" fill-opacity="0.501961" points="271,96 257,79 251,130" />
<polygon fill="#62693c" fill-opacity="0.501961" points="2,40 -12,63 1,85" />
<polygon fill="#81807a" fill-opacity="0.501961" points="57,54 58,60 63,57" />
<polygon fill="#887974" fill-opacity="0.501961" points="153,157 161,149 185,154" />
<polygon fill="#584f44" fill-opacity="0.501961" points="180,101 199,143 248,140" />
<polygon fill="#bcc761" fill-opacity="0.501961" points="37,22 34,19 30,29" />
<polygon fill="#6b5f5a" fill-opacity="0.501961" points="105,130 165,132 138,141" />
<polygon fill="#282220" fill-opacity="0.501961" points="1,127 13,121 -16,120" />
<polygon fill="#191811" fill-opacity="0.501961" points="71,57 55,29 80,48" />
<polygon fill="#19200f" fill-opacity="0.501961" points="162,28 176,2 186,13" />
<polygon fill="#eeffff" fill-opacity="0.501961" points="247,54 243,58 242,56" />
<polygon fill="#a4ad4f" fill-opacity="0.501961" points="38,48 41,27 26,49" />
<polygon fill="#323a28" fill-opacity="0.501961" points="64,6 83,2 89,-7" />
<polygon fill="#1e1e0f" fill-opacity="0.501961" points="225,115 242,111 242,119" />
<polygon fill="#22331d" fill-opacity="0.501961" points="143,54 132,46 130,55" />
<polygon fill="#121d24" fill-opacity="0.501961" points="181,-10 147,3 143,-16" />
<polygon fill="#7e6760" fill-opacity="0.501961" points="114,102 58,100 80,112" />
<polygon fill="#657987" fill-opacity="0.501961" points="251,46 271,33 246,40" />
<polygon fill="#c2ad9c" fill-opacity="0.501961" points="91,188 85,206 72,192" />
<polygon fill="#272e1c" fill-opacity="0.501961" points="151,37 154,50 196,46" />
<polygon fill="#a57865" fill-opacity="0.501961" points="182,67 170,71 178,76" />
<polygon fill="#34422c" fill-opacity="0.501961" points="16,73 14,58 8,62" />
<polygon fill="#473a33" fill-opacity="0.501961" points="128,81 153,136 150,84" />
<polygon fill="#00070b" fill-opacity="0.501961" points="154,138 151,147 168,147" />
<polygon fill="#82625a" fill-opacity="0.501961" points="124,73 95,81 144,81" />
<polygon fill="#27291a" fill-opacity="0.501961" points="271,54 225,77 249,55" />
<polygon fill="#7b7f5d" fill-opacity="0.501961" points="69,22 58,33 68,31" />
<polygon fill="#8abbf6" fill-opacity="0.501961" points="130,23 101,20 155,8" />
<polygon fill="#40352a" fill-opacity="0.501961" points="60,81 88,83 67,90" />
<polygon fill="#333809" fill-opacity="0.501961" points="271,96 265,106 231,102" />
<polygon fill="#4f4e52" fill-opacity="0.501961" points="54,134 25,173 48,168" />
<polygon fill="#b09776" fill-opacity="0.501961" points="233,127 247,122 243,120" />
<polygon fill="#59582c" fill-opacity="0.501961" points="19,30 25,40 34,40" />
<polygon fill="#adba9b" fill-opacity="0.501961" points="123,49 136,60 124,57" />
<polygon fill="#534944" fill-opacity="0.501961" points="239,122 191,113 163,139" />
<polygon fill="#7c7168" fill-opacity="0.501961" points="206,118 201,135 193,118" />
<polygon fill="#4e4f29" fill-opacity="0.501961" points="106,51 109,78 115,53" />
<polygon fill="#6390c0" fill-opacity="0.501961" points="85,17 80,15 86,1" />
<polygon fill="#515b2e" fill-opacity="0.501961" points="211,31 199,42 189,-16" />
<polygon fill="#c3b86d" fill-opacity="0.501961" points="230,87 246,98 236,100" />
<polygon fill="#8a8288" fill-opacity="0.501961" points="199,76 206,71 187,70" />
<polygon fill="#5f5552" fill-opacity="0.501961" points="3,179 20,182 25,173" />
<polygon fill="#020000" fill-opacity="0.501961" points="170,96 177,124 181,113" />
<polygon fill="#bdae9e" fill-opacity="0.501961" points="-16,123 9,128 -15,130" />
<polygon fill="#a09461" fill-opacity="0.501961" points="249,107 225,110 228,104" />
<polygon fill="#c6ab8f" fill-opacity="0.501961" points="-16,160 37,144 -11,144" />
<polygon fill="#758383" fill-opacity="0.501961" points="79,38 75,32 82,32" />
<polygon fill="#282111" fill-opacity="0.501961" points="187,106 189,96 208,106" />
<polygon fill="#686c4a" fill-opacity="0.501961" points="83,57 80,47 95,36" />
<polygon fill="#544d38" fill-opacity="0.501961" points="9,49 16,48 15,42" />
<polygon fill="#3d3f28" fill-opacity="0.501961" points="141,68 114,59 127,58" />
<polygon fill="#b6b54b" fill-opacity="0.501961" points="17,24 2,27 9,51" />
<polygon fill="#696c30" fill-opacity="0.501961" points="49,41 68,47 56,37" />
<polygon fill="#806a64" fill-opacity="0.501961" points="103,90 111,109 118,90" />
<polygon fill="#21221e" fill-opacity="0.501961" points="200,84 198,98 189,84" />
<polygon fill="#252612" fill-opacity="0.501961" points="49,22 42,25 37,15" />
<polygon fill="#93c8ff" fill-opacity="0.501961" points="90,9 98,17 95,8" />
<polygon fill="#747445" fill-opacity="0.501961" points="233,84 250,76 245,85" />
<polygon fill="#312e2a" fill-opacity="0.501961" points="154,132 153,122 118,126" />
<polygon fill="#30332f" fill-opacity="0.501961" points="255,8 186,13 214,23" />
<polygon fill="#909f7b" fill-opacity="0.501961" points="130,33 147,54 127,40" />
<polygon fill="#000000" fill-opacity="0.501961" points="162,113 154,109 176,106" />
<polygon fill="#3d414b" fill-opacity="0.501961" points="229,174 254,177 216,122" />
<polygon fill="#7e844c" fill-opacity="0.501961" points="53,27 45,29 52,7" />
<polygon fill="#7a7672" fill-opacity="0.501961" points="252,158 234,154 245,148" />
<polygon fill="#5f684b" fill-opacity="0.501961" points="168,25 185,45 186,36" />
</g>
</svg>