<svg xmlns="http://www.w3.org/2000/svg" version="1.1" width="1024" height="768">
<rect x="0" y="0" width="1024" height="768" fill="#737370" />
<g transform="scale(4.000000) translate(0.5 0.5)">
<polygon fill="#000000" fill-opacity="0.501961" points="253,-16 271,127 33,51" />
<polygon fill="#f3f2ed" fill-opacity="0.501961" points="4,207 271,179 -15,86" />
<polygon fill="#110400" fill-opacity="0.501961" points="271,22 183,-16 -16,108" />
<polygon fill="#000000" fill-opacity="0.501961" points="60,-16 61,59 -10,3" />
<polygon fill="#abb6bd" fill-opacity="0.501961" points="271,126 43,78 217,207" />
<polygon fill="#896d64" fill-opacity="0.501961" points="139,174 173,52 97,55" />
<polygon fill="#a6b4ce" fill-opacity="0.501961" points="182,110 22,114 144,77" />
<polygon fill="#0c1312" fill-opacity="0.501961" points="45,53 133,88 52,87" />
<polygon fill="#05071e" fill-opacity="0.501961" points="151,131 123,116 157,99" />
<polygon fill="#020100" fill-opacity="0.501961" points="137,-8 233,70 271,0" />
<polygon fill="#b5c9e0" fill-opacity="0.501961" points="116,-16 98,39 168,-16" />
<polygon fill="#c0b4b1" fill-opacity="0.501961" points="7,72 48,65 20,15" />
<polygon fill="#030000" fill-opacity="0.501961" points="62,20 16,-16 51,69" />
<polygon fill="#796b58" fill-opacity="0.501961" points="105,71 213,59 242,92" />
<polygon fill="#adaea9" fill-opacity="0.501961" points="178,95 271,188 115,207" />
<polygon fill="#c3c2c0" fill-opacity="0.501961" points="-16,179 225,207 2,92" />
<polygon fill="#6e97bc" fill-opacity="0.501961" points="97,0 61,63 64,7" />
<polygon fill="#000000" fill-opacity="0.501961" points="22,98 55,94 46,76" />
<polygon fill="#a0cae5" fill-opacity="0.501961" points="156,98 220,110 154,122" />
<polygon fill="#9bbbc8" fill-opacity="0.501961" points="116,88 126,134 31,100" />
<polygon fill="#55504b" fill-opacity="0.501961" points="114,148 166,156 148,139" />
<polygon fill="#09141b" fill-opacity="0.501961" points="89,20 75,12 109,6" />
<polygon fill="#838f8f" fill-opacity="0.501961" points="37,107 77,71 78,134" />
<polygon fill="#4b3819" fill-opacity="0.501961" points="123,19 202,60 85,64" />
<polygon fill="#3f5e83" fill-opacity="0.501961" points="113,152 115,179 103,203" />
<polygon fill="#211f22" fill-opacity="0.501961" points="-16,12 8,-16 1,89" />
<polygon fill="#292118" fill-opacity="0.501961" points="188,74 213,95 134,96" />
<polygon fill="#8e9998" fill-opacity="0.501961" points="271,127 243,207 169,110" />
<polygon fill="#5c85a8" fill-opacity="0.501961" points="91,18 108,35 61,41" />
<polygon fill="#e3af9b" fill-opacity="0.501961" points="135,120 111,118 137,146" />
<polygon fill="#674e35" fill-opacity="0.501961" points="57,72 -16,75 -4,98" />
<polygon fill="#bebbb5" fill-opacity="0.501961" points="152,81 166,207 178,129" />
<polygon fill="#000000" fill-opacity="0.501961" points="89,38 91,87 71,52" />
<polygon fill="#c1bccf" fill-opacity="0.501961" points="134,113 134,85 101,97" />
<polygon fill="#0c1110" fill-opacity="0.501961" points="196,75 213,111 180,94" />
<polygon fill="#afb7bf" fill-opacity="0.501961" points="49,72 40,44 20,43" />
<polygon fill="#6a5751" fill-opacity="0.501961" points="-10,61 16,-3 28,15" />
<polygon fill="#8c867c" fill-opacity="0.501961" points="137,1 93,38 133,21" />
<polygon fill="#83694f" fill-opacity="0.501961" points="129,90 88,72 161,57" />
<polygon fill="#201a0c" fill-opacity="0.501961" points="143,-16 158,54 252,52" />
<polygon fill="#97a2a6" fill-opacity="0.501961" points="70,65 61,59 63,33" />
<polygon fill="#696d6d" fill-opacity="0.501961" points="193,65 235,78 215,104" />
<polygon fill="#99a6b3" fill-opacity="0.501961" points="82,15 59,15 61,-6" />
<polygon fill="#21202d" fill-opacity="0.501961" points="137,125 154,91 151,126" />
<polygon fill="#040400" fill-opacity="0.501961" points="271,-4 247,57 216,-16" />
<polygon fill="#110800" fill-opacity="0.501961" points="33,42 25,16 54,-16" />
<polygon fill="#95a4ab" fill-opacity="0.501961" points="126,124 113,165 54,83" />
<polygon fill="#867c6e" fill-opacity="0.501961" points="187,76 175,73 179,92" />
<polygon fill="#0e0400" fill-opacity="0.501961" points="153,72 149,83 148,59" />
<polygon fill="#030504" fill-opacity="0.501961" points="247,112 263,126 221,111" />
<polygon fill="#010000" fill-opacity="0.501961" points="53,35 54,-2 65,32" />
<polygon fill="#dcd5cc" fill-opacity="0.501961" points="-14,152 13,96 -16,98" />
<polygon fill="#b29e8d" fill-opacity="0.501961" points="143,127 184,134 135,147" />
<polygon fill="#476071" fill-opacity="0.501961" points="67,73 83,79 47,106" />
<polygon fill="#cbd2d7" fill-opacity="0.501961" points="111,171 81,126 91,207" />
<polygon fill="#050900" fill-opacity="0.501961" points="213,76 210,95 199,101" />
<polygon fill="#b4cbe8" fill-opacity="0.501961" points="154,-4 109,13 132,-16" />
<polygon fill="#765444" fill-opacity="0.501961" points="120,113 123,91 125,106" />
<polygon fill="#92bdda" fill-opacity="0.501961" points="68,116 114,89 78,88" />
<polygon fill="#050000" fill-opacity="0.501961" points="122,113 134,117 119,118" />
<polygon fill="#0a0d0c" fill-opacity="0.501961" points="92,71 71,87 95,86" />
<polygon fill="#ffffff" fill-opacity="0.501961" points="34,147 46,141 20,143" />
<polygon fill="#9dbfd6" fill-opacity="0.501961" points="152,116 157,93 190,103" />
<polygon fill="#443420" fill-opacity="0.501961" points="128,19 121,91 147,31" />
<polygon fill="#80694e" fill-opacity="0.501961" points="23,150 36,152 50,145" />
<polygon fill="#a2988f" fill-opacity="0.501961" points="13,79 4,39 38,41" />
<polygon fill="#f79e9f" fill-opacity="0.501961" points="138,76 144,77 148,93" />
<polygon fill="#28251c" fill-opacity="0.501961" points="221,112 271,75 230,84" />
<polygon fill="#26241f" fill-opacity="0.501961" points="52,97 60,66 16,96" />
<polygon fill="#999b91" fill-opacity="0.501961" points="15,207 -16,205 50,160" />
<polygon fill="#bcb4ab" fill-opacity="0.501961" points="254,207 167,144 124,192" />
<polygon fill="#635033" fill-opacity="0.501961" points="166,54 136,35 160,85" />
<polygon fill="#5b6164" fill-opacity="0.501961" points="232,95 228,107 262,117" />
<polygon fill="#e3d1c3" fill-opacity="0.501961" points="104,207 124,157 139,207" />
<polygon fill="#734f56" fill-opacity="0.501961" points="133,80 142,76 140,112" />
<polygon fill="#171405" fill-opacity="0.501961" points="119,90 124,85 106,85" />
<polygon fill="#24242d" fill-opacity="0.501961" points="130,151 126,144 134,141" />
<polygon fill="#424b5d" fill-opacity="0.501961" points="271,43 234,61 235,88" />
<polygon fill="#262626" fill-opacity="0.501961" points="97,19 84,15 107,0" />
<polygon fill="#1a0f05" fill-opacity="0.501961" points="59,86 59,32 38,36" />
<polygon fill="#c8b6d5" fill-opacity="0.501961" points="131,84 130,113 139,113" />
<polygon fill="#a6a59e" fill-opacity="0.501961" points="60,101 41,125 144,143" />
<polygon fill="#899fb3" fill-opacity="0.501961" points="174,96 197,121 236,119" />
<polygon fill="#050d1b" fill-opacity="0.501961" points="147,147 144,141 141,152" />
<polygon fill="#4b443a" fill-opacity="0.501961" points="44,10 55,4 50,41" />
<polygon fill="#1c1d25" fill-opacity="0.501961" points="138,126 155,128 138,102" />
<polygon fill="#978d82" fill-opacity="0.501961" points="214,66 196,86 206,86" />
<polygon fill="#ab8f77" fill-opacity="0.501961" points="129,155 119,125 118,156" />
<polygon fill="#9f7384" fill-opacity="0.501961" points="156,95 147,108 127,110" />
<polygon fill="#679cd2" fill-opacity="0.501961" points="94,-10 125,-16 80,15" />
<polygon fill="#513e24" fill-opacity="0.501961" points="172,-4 158,19 139,14" />
<polygon fill="#141004" fill-opacity="0.501961" points="137,11 192,44 138,30" />
<polygon fill="#93867b" fill-opacity="0.501961" points="34,52 19,75 49,75" />
<polygon fill="#a8a7a1" fill-opacity="0.501961" points="132,202 152,201 138,130" />
<polygon fill="#6d6b66" fill-opacity="0.501961" points="20,51 6,94 -14,92" />
<polygon fill="#332329" fill-opacity="0.501961" points="152,151 157,154 153,138" />
<polygon fill="#b3c6e2" fill-opacity="0.501961" points="33,96 44,101 25,103" />
<polygon fill="#969996" fill-opacity="0.501961" points="251,207 271,120 207,170" />
<polygon fill="#9fa1a5" fill-opacity="0.501961" points="109,-16 147,-16 145,12" />
<polygon fill="#080f0e" fill-opacity="0.501961" points="88,74 69,73 95,51" />
<polygon fill="#a99076" fill-opacity="0.501961" points="59,114 56,101 24,105" />
<polygon fill="#2d2929" fill-opacity="0.501961" points="211,78 253,52 224,45" />
<polygon fill="#020604" fill-opacity="0.501961" points="104,36 75,44 83,59" />
<polygon fill="#97bfd8" fill-opacity="0.501961" points="130,113 106,90 65,89" />
<polygon fill="#c0bdb8" fill-opacity="0.501961" points="0,97 24,97 24,165" />
<polygon fill="#cbcdcb" fill-opacity="0.501961" points="111,147 37,147 72,133" />
<polygon fill="#dfc0d4" fill-opacity="0.501961" points="127,83 124,108 133,93" />
<polygon fill="#23111c" fill-opacity="0.501961" points="147,96 137,96 145,90" />
<polygon fill="#757d83" fill-opacity="0.501961" points="216,85 229,93 224,68" />
<polygon fill="#789aba" fill-opacity="0.501961" points="91,19 75,19 63,48" />
<polygon fill="#403526" fill-opacity="0.501961" points="224,7 216,14 199,-16" />
<polygon fill="#304a5a" fill-opacity="0.501961" points="100,23 70,38 66,54" />
<polygon fill="#433420" fill-opacity="0.501961" points="142,64 169,31 94,57" />
<polygon fill="#c9c7c4" fill-opacity="0.501961" points="-16,127 42,124 44,104" />
<polygon fill="#000000" fill-opacity="0.501961" points="64,83 57,84 59,65" />
<polygon fill="#493825" fill-opacity="0.501961" points="58,89 37,74 15,81" />
<polygon fill="#090f0a" fill-opacity="0.501961" points="161,93 176,96 163,81" />
<polygon fill="#13110d" fill-opacity="0.501961" points="225,115 220,104 252,117" />
<polygon fill="#070906" fill-opacity="0.501961" points="50,84 50,93 26,97" />
<polygon fill="#677e9c" fill-opacity="0.501961" points="103,148 113,152 115,167" />
<polygon fill="#464145" fill-opacity="0.501961" points="19,17 -16,15 21,32" />
<polygon fill="#71614d" fill-opacity="0.501961" points="99,85 129,65 94,69" />
<polygon fill="#141008" fill-opacity="0.501961" points="69,-8 28,29 27,-16" />
<polygon fill="#6f8497" fill-opacity="0.501961" points="76,85 79,75 63,75" />
<polygon fill="#56514f" fill-opacity="0.501961" points="96,18 115,2 96,10" />
<polygon fill="#99a5a7" fill-opacity="0.501961" points="221,133 221,110 144,140" />
<polygon fill="#847979" fill-opacity="0.501961" points="25,30 11,47 24,4" />
<polygon fill="#000000" fill-opacity="0.501961" points="220,109 227,108 231,91" />
<polygon fill="#0f1113" fill-opacity="0.501961" points="150,91 154,95 155,103" />
<polygon fill="#050400" fill-opacity="0.501961" points="246,118 265,110 257,125" />
<polygon fill="#b8927c" fill-opacity="0.501961" points="154,127 165,154 141,127" />
<polygon fill="#e3a0c5" fill-opacity="0.501961" points="147,97 147,106 137,101" />
<polygon fill="#df9689" fill-opacity="0.501961" points="156,100 162,96 154,88" />
<polygon fill="#f5ab98" fill-opacity="0.501961" points="137,83 147,77 142,74" />
<polygon fill="#b298cf" fill-opacity="0.501961" points="156,84 145,82 142,91" />
<polygon fill="#13120b" fill-opacity="0.501961" points="174,55 241,25 163,-16" />
<polygon fill="#adb2b1" fill-opacity="0.501961" points="92,151 118,147 122,99" />
<polygon fill="#343f58" fill-opacity="0.501961" points="154,112 153,125 133,107" />
<polygon fill="#546980" fill-opacity="0.501961" points="104,185 117,175 104,196" />
<polygon fill="#1d1814" fill-opacity="0.501961" points="67,79 40,30 50,74" />
<polygon fill="#ce9b88" fill-opacity="0.501961" points="122,155 137,119 126,119" />
<polygon fill="#302c25" fill-opacity="0.501961" points="215,63 196,23 200,63" />
<polygon fill="#a8a39c" fill-opacity="0.501961" points="150,187 150,151 125,152" />
<polygon fill="#120f07" fill-opacity="0.501961" points="135,33 110,34 123,25" />
<polygon fill="#a58e75" fill-opacity="0.501961" points="124,66 117,70 118,85" />
<polygon fill="#6b747b" fill-opacity="0.501961" points="62,17 64,34 88,8" />
<polygon fill="#1e1508" fill-opacity="0.501961" points="236,108 244,93 239,79" />
<polygon fill="#8b99a4" fill-opacity="0.501961" points="59,7 70,-16 75,31" />
<polygon fill="#34373a" fill-opacity="0.501961" points="99,-3 105,-16 71,4" />
<polygon fill="#1e1609" fill-opacity="0.501961" points="248,77 271,120 267,50" />
<polygon fill="#161513" fill-opacity="0.501961" points="-16,3 -16,44 16,-5" />
<polygon fill="#8999a0" fill-opacity="0.501961" points="122,118 80,101 91,122" />
<polygon fill="#6a6e65" fill-opacity="0.501961" points="40,96 60,100 72,93" />
<polygon fill="#abe0ff" fill-opacity="0.501961" points="160,112 162,105 185,110" />
<polygon fill="#afa8a4" fill-opacity="0.501961" points="22,72 36,44 23,26" />
<polygon fill="#080607" fill-opacity="0.501961" points="218,107 211,109 203,106" />
<polygon fill="#65788d" fill-opacity="0.501961" points="100,36 108,9 83,37" />
<polygon fill="#99b3c8" fill-opacity="0.501961" points="89,90 55,101 137,113" />
<polygon fill="#57616c" fill-opacity="0.501961" points="48,84 46,76 66,88" />
<polygon fill="#191a15" fill-opacity="0.501961" points="200,102 176,95 197,76" />
<polygon fill="#a0c6e1" fill-opacity="0.501961" points="118,126 119,117 100,124" />
<polygon fill="#33271f" fill-opacity="0.501961" points="49,56 61,40 53,92" />
<polygon fill="#5d7182" fill-opacity="0.501961" points="236,117 271,129 271,143" />
<polygon fill="#70747c" fill-opacity="0.501961" points="128,76 127,82 143,82" />
<polygon fill="#78664c" fill-opacity="0.501961" points="172,50 164,71 170,90" />
<polygon fill="#86a2bc" fill-opacity="0.501961" points="199,104 184,110 165,98" />
<polygon fill="#bfc1c0" fill-opacity="0.501961" points="43,145 75,126 116,159" />
<polygon fill="#4d4f52" fill-opacity="0.501961" points="53,13 42,14 52,3" />
<polygon fill="#9fcae2" fill-opacity="0.501961" points="92,102 99,89 125,90" />
<polygon fill="#9ba7b4" fill-opacity="0.501961" points="120,25 131,12 123,1" />
<polygon fill="#565d5f" fill-opacity="0.501961" points="206,100 228,96 221,104" />
<polygon fill="#262719" fill-opacity="0.501961" points="219,94 210,90 216,84" />
<polygon fill="#211203" fill-opacity="0.501961" points="110,73 106,88 105,78" />
<polygon fill="#665e53" fill-opacity="0.501961" points="115,20 125,18 107,36" />
<polygon fill="#574d3b" fill-opacity="0.501961" points="243,69 247,103 264,118" />
<polygon fill="#1b2424" fill-opacity="0.501961" points="77,58 68,50 74,80" />
<polygon fill="#6c594b" fill-opacity="0.501961" points="115,105 123,104 125,107" />
<polygon fill="#29291c" fill-opacity="0.501961" points="160,74 156,80 158,91" />
<polygon fill="#9c7e6f" fill-opacity="0.501961" points="126,87 134,66 138,87" />
<polygon fill="#424749" fill-opacity="0.501961" points="65,73 73,70 60,59" />
<polygon fill="#b0b2aa" fill-opacity="0.501961" points="47,120 -16,158 -16,194" />
<polygon fill="#5a442d" fill-opacity="0.501961" points="38,152 30,149 41,150" />
<polygon fill="#f3efe7" fill-opacity="0.501961" points="96,140 101,144 85,141" />
<polygon fill="#ecd3af" fill-opacity="0.501961" points="40,147 27,146 27,150" />
<polygon fill="#1f1d20" fill-opacity="0.501961" points="145,113 151,129 129,113" />
<polygon fill="#80603d" fill-opacity="0.501961" points="29,78 7,68 15,92" />
<polygon fill="#162023" fill-opacity="0.501961" points="94,8 92,15 76,19" />
<polygon fill="#a3aebb" fill-opacity="0.501961" points="42,65 26,39 42,51" />
<polygon fill="#e3cdac" fill-opacity="0.501961" points="37,105 44,110 56,109" />
<polygon fill="#4d4845" fill-opacity="0.501961" points="54,93 50,105 46,105" />
<polygon fill="#7f6c52" fill-opacity="0.501961" points="147,57 156,80 158,57" />
<polygon fill="#917259" fill-opacity="0.501961" points="113,97 124,93 124,98" />
<polygon fill="#c0c4c5" fill-opacity="0.501961" points="109,176 -3,196 96,207" />
<polygon fill="#1d160d" fill-opacity="0.501961" points="44,-16 44,42 25,26" />
<polygon fill="#b8b7af" fill-opacity="0.501961" points="229,194 160,204 156,127" />
<polygon fill="#b6b6b0" fill-opacity="0.501961" points="22,164 101,145 44,186" />
<polygon fill="#644f34" fill-opacity="0.501961" points="120,24 140,32 133,20" />
<polygon fill="#322b1f" fill-opacity="0.501961" points="236,74 246,112 251,89" />
<polygon fill="#160e06" fill-opacity="0.501961" points="98,83 92,87 97,75" />
<polygon fill="#cfc4ba" fill-opacity="0.501961" points="135,170 112,148 128,207" />
</g>
</svg>