<svg xmlns="http://www.w3.org/2000/svg" version="1.1" width="1024" height="764">
<rect x="0" y="0" width="1024" height="764" fill="#908282" />
<g transform="scale(4.000000) translate(0.5 0.5)">
<polygon fill="#278dff" fill-opacity="0.501961" points="-16,74 271,6 4,-16" />
<polygon fill="#2e1e00" fill-opacity="0.501961" points="-16,60 105,103 -16,186" />
<polygon fill="#eab99a" fill-opacity="0.501961" points="271,23 28,58 168,105" />
<polygon fill="#da9e6f" fill-opacity="0.501961" points="271,206 202,-9 122,123" />
<polygon fill="#5396f3" fill-opacity="0.501961" points="-16,54 139,55 243,-16" />
<polygon fill="#a26c4a" fill-opacity="0.501961" points="-16,186 151,206 153,55" />
<polygon fill="#ffffff" fill-opacity="0.501961" points="158,6 205,-16 171,16" />
<polygon fill="#63a2ff" fill-opacity="0.501961" points="257,32 192,14 256,-16" />
<polygon fill="#31321b" fill-opacity="0.501961" points="59,63 -16,76 9,148" />
<polygon fill="#ffd674" fill-opacity="0.501961" points="71,139 18,198 -12,193" />
<polygon fill="#f7c3a3" fill-opacity="0.501961" points="196,128 263,191 108,108" />
<polygon fill="#7a6950" fill-opacity="0.501961" points="220,71 185,128 145,86" />
<polygon fill="#e3e9ea" fill-opacity="0.501961" points="140,49 50,53 130,71" />
<polygon fill="#2c5eb3" fill-opacity="0.501961" points="7,33 -14,-16 172,24" />
<polygon fill="#ffffff" fill-opacity="0.501961" points="119,-10 68,-12 112,14" />
<polygon fill="#f7c4a4" fill-opacity="0.501961" points="186,17 237,3 161,48" />
<polygon fill="#644848" fill-opacity="0.501961" points="77,192 105,112 23,190" />
<polygon fill="#2d3a1d" fill-opacity="0.501961" points="123,88 142,112 102,105" />
<polygon fill="#d4a58e" fill-opacity="0.501961" points="66,99 58,61 166,69" />
<polygon fill="#ffe6b6" fill-opacity="0.501961" points="45,121 21,114 29,124" />
<polygon fill="#b07e55" fill-opacity="0.501961" points="213,47 271,192 267,32" />
<polygon fill="#eac19c" fill-opacity="0.501961" points="262,165 203,131 221,108" />
<polygon fill="#3b77cc" fill-opacity="0.501961" points="86,55 171,39 154,-15" />
<polygon fill="#000001" fill-opacity="0.501961" points="49,127 -16,114 -16,136" />
<polygon fill="#b1755e" fill-opacity="0.501961" points="264,206 153,204 154,136" />
<polygon fill="#6c3115" fill-opacity="0.501961" points="210,151 258,170 236,150" />
<polygon fill="#72b1ff" fill-opacity="0.501961" points="8,66 64,49 -15,32" />
<polygon fill="#908069" fill-opacity="0.501961" points="121,96 79,90 40,124" />
<polygon fill="#3d4224" fill-opacity="0.501961" points="176,100 203,107 177,122" />
<polygon fill="#1e5ab4" fill-opacity="0.501961" points="258,-16 203,-3 271,20" />
<polygon fill="#925d3e" fill-opacity="0.501961" points="217,155 222,146 186,134" />
<polygon fill="#ecbb74" fill-opacity="0.501961" points="61,158 21,173 89,119" />
<polygon fill="#599cef" fill-opacity="0.501961" points="99,58 68,43 158,34" />
<polygon fill="#655d41" fill-opacity="0.501961" points="-16,92 35,59 68,96" />
<polygon fill="#4c4130" fill-opacity="0.501961" points="271,122 271,146 233,91" />
<polygon fill="#ffe9c3" fill-opacity="0.501961" points="271,191 225,161 255,170" />
<polygon fill="#ffd3ab" fill-opacity="0.501961" points="220,42 250,37 213,24" />
<polygon fill="#b99077" fill-opacity="0.501961" points="247,27 265,78 129,116" />
<polygon fill="#ffe7bc" fill-opacity="0.501961" points="245,145 271,166 268,139" />
<polygon fill="#406db3" fill-opacity="0.501961" points="59,37 140,0 186,21" />
<polygon fill="#ffffff" fill-opacity="0.501961" points="189,-4 166,0 170,14" />
<polygon fill="#bda57c" fill-opacity="0.501961" points="52,104 34,105 68,115" />
<polygon fill="#b78578" fill-opacity="0.501961" points="166,206 87,193 111,145" />
<polygon fill="#0f110d" fill-opacity="0.501961" points="53,115 -2,109 22,101" />
<polygon fill="#c6d4ee" fill-opacity="0.501961" points="181,19 226,1 228,15" />
<polygon fill="#3264b3" fill-opacity="0.501961" points="244,-2 176,17 221,-16" />
<polygon fill="#84715a" fill-opacity="0.501961" points="271,79 231,70 235,137" />
<polygon fill="#805959" fill-opacity="0.501961" points="-16,206 73,122 6,139" />
<polygon fill="#4e88dc" fill-opacity="0.501961" points="112,27 -16,19 12,49" />
<polygon fill="#4f93ee" fill-opacity="0.501961" points="218,26 240,9 265,27" />
<polygon fill="#c47f5c" fill-opacity="0.501961" points="186,39 183,18 216,18" />
<polygon fill="#fbdeba" fill-opacity="0.501961" points="223,161 201,141 176,139" />
<polygon fill="#f6d9bd" fill-opacity="0.501961" points="127,49 74,71 144,62" />
<polygon fill="#325ca2" fill-opacity="0.501961" points="67,-15 103,14 -16,6" />
<polygon fill="#93c1fd" fill-opacity="0.501961" points="-16,54 18,70 31,57" />
<polygon fill="#e5b891" fill-opacity="0.501961" points="195,98 215,111 230,94" />
<polygon fill="#836864" fill-opacity="0.501961" points="138,178 111,117 212,206" />
<polygon fill="#549cf5" fill-opacity="0.501961" points="138,52 123,43 179,30" />
<polygon fill="#333f19" fill-opacity="0.501961" points="55,101 66,112 71,93" />
<polygon fill="#d58765" fill-opacity="0.501961" points="271,150 254,165 212,147" />
<polygon fill="#fad6b4" fill-opacity="0.501961" points="169,136 121,112 151,118" />
<polygon fill="#312e1e" fill-opacity="0.501961" points="29,62 34,87 42,68" />
<polygon fill="#423f2c" fill-opacity="0.501961" points="94,99 136,99 134,112" />
<polygon fill="#776a4f" fill-opacity="0.501961" points="221,108 226,125 220,129" />
<polygon fill="#ab956f" fill-opacity="0.501961" points="113,112 127,82 99,110" />
<polygon fill="#90765c" fill-opacity="0.501961" points="200,64 217,83 208,125" />
<polygon fill="#fdc5a1" fill-opacity="0.501961" points="229,136 197,130 233,149" />
<polygon fill="#f6dbc2" fill-opacity="0.501961" points="92,54 84,74 70,57" />
<polygon fill="#e0e2f2" fill-opacity="0.501961" points="103,12 113,-16 117,13" />
<polygon fill="#f9ffff" fill-opacity="0.501961" points="210,13 203,19 189,11" />
<polygon fill="#c78f80" fill-opacity="0.501961" points="269,187 235,206 143,125" />
<polygon fill="#150000" fill-opacity="0.501961" points="244,166 264,169 269,163" />
<polygon fill="#bf998a" fill-opacity="0.501961" points="16,63 16,83 23,72" />
<polygon fill="#cbaa93" fill-opacity="0.501961" points="45,66 52,51 29,60" />
<polygon fill="#2d579d" fill-opacity="0.501961" points="180,-9 137,17 136,-4" />
<polygon fill="#5a9aec" fill-opacity="0.501961" points="69,57 54,42 84,46" />
<polygon fill="#fbf8f9" fill-opacity="0.501961" points="177,11 177,-16 160,12" />
<polygon fill="#fff0c1" fill-opacity="0.501961" points="218,89 236,92 224,86" />
<polygon fill="#b88a74" fill-opacity="0.501961" points="140,89 80,92 167,50" />
<polygon fill="#58533e" fill-opacity="0.501961" points="240,97 235,77 230,99" />
<polygon fill="#b18471" fill-opacity="0.501961" points="178,51 198,57 139,98" />
<polygon fill="#656446" fill-opacity="0.501961" points="191,113 160,107 179,125" />
<polygon fill="#735650" fill-opacity="0.501961" points="94,119 49,165 59,206" />
<polygon fill="#9a9464" fill-opacity="0.501961" points="-1,80 -16,97 10,86" />
<polygon fill="#272d10" fill-opacity="0.501961" points="4,64 -7,86 13,72" />
<polygon fill="#000003" fill-opacity="0.501961" points="45,127 60,122 43,123" />
<polygon fill="#d8b59c" fill-opacity="0.501961" points="146,48 209,52 175,35" />
<polygon fill="#76432a" fill-opacity="0.501961" points="202,141 215,152 206,149" />
<polygon fill="#8a675e" fill-opacity="0.501961" points="109,137 144,133 55,86" />
<polygon fill="#4b7dc6" fill-opacity="0.501961" points="163,42 192,12 109,11" />
<polygon fill="#dcad90" fill-opacity="0.501961" points="139,99 151,103 156,127" />
<polygon fill="#ebb293" fill-opacity="0.501961" points="120,109 98,109 137,121" />
<polygon fill="#69534f" fill-opacity="0.501961" points="87,88 86,118 46,144" />
<polygon fill="#675759" fill-opacity="0.501961" points="206,24 218,16 206,17" />
<polygon fill="#72565b" fill-opacity="0.501961" points="61,59 49,87 48,62" />
<polygon fill="#3e6fb8" fill-opacity="0.501961" points="88,18 103,38 102,4" />
<polygon fill="#b59173" fill-opacity="0.501961" points="57,118 47,110 69,114" />
<polygon fill="#968e76" fill-opacity="0.501961" points="246,143 271,124 214,131" />
<polygon fill="#b9987b" fill-opacity="0.501961" points="25,124 15,114 56,120" />
<polygon fill="#ce9a80" fill-opacity="0.501961" points="258,60 231,76 249,36" />
<polygon fill="#d6ac99" fill-opacity="0.501961" points="135,82 112,60 54,74" />
<polygon fill="#c39f87" fill-opacity="0.501961" points="71,109 87,109 71,103" />
<polygon fill="#dca48d" fill-opacity="0.501961" points="251,106 245,84 245,104" />
<polygon fill="#4275c2" fill-opacity="0.501961" points="244,19 271,5 200,-16" />
<polygon fill="#ffffe8" fill-opacity="0.501961" points="167,106 164,103 160,106" />
<polygon fill="#a77a6a" fill-opacity="0.501961" points="-16,200 46,154 8,165" />
<polygon fill="#4473bb" fill-opacity="0.501961" points="228,-7 188,7 214,10" />
<polygon fill="#e0e6f9" fill-opacity="0.501961" points="232,22 240,18 233,17" />
<polygon fill="#796e4b" fill-opacity="0.501961" points="208,117 197,105 220,113" />
<polygon fill="#e8f3ff" fill-opacity="0.501961" points="247,20 271,7 271,18" />
<polygon fill="#c4a175" fill-opacity="0.501961" points="90,108 100,107 85,121" />
<polygon fill="#c19b7e" fill-opacity="0.501961" points="234,100 239,122 241,93" />
<polygon fill="#e1caab" fill-opacity="0.501961" points="210,116 224,139 207,131" />
<polygon fill="#a0ab94" fill-opacity="0.501961" points="187,126 199,112 219,134" />
<polygon fill="#8b7858" fill-opacity="0.501961" points="132,103 144,119 147,106" />
<polygon fill="#ffceac" fill-opacity="0.501961" points="220,139 242,139 262,152" />
<polygon fill="#fffcfd" fill-opacity="0.501961" points="96,3 70,-16 109,-1" />
<polygon fill="#d49f84" fill-opacity="0.501961" points="162,62 211,32 187,15" />
<polygon fill="#575637" fill-opacity="0.501961" points="132,93 122,89 100,107" />
<polygon fill="#e6c4ab" fill-opacity="0.501961" points="245,38 237,26 209,31" />
<polygon fill="#4e4735" fill-opacity="0.501961" points="253,91 258,103 247,97" />
<polygon fill="#e5bfa9" fill-opacity="0.501961" points="76,86 75,79 57,76" />
<polygon fill="#4482d9" fill-opacity="0.501961" points="233,28 215,20 226,14" />
<polygon fill="#633017" fill-opacity="0.501961" points="220,141 205,142 225,147" />
<polygon fill="#5c6244" fill-opacity="0.501961" points="107,104 83,108 87,92" />
<polygon fill="#c5815d" fill-opacity="0.501961" points="183,139 162,126 214,137" />
<polygon fill="#977b6e" fill-opacity="0.501961" points="112,102 123,82 108,80" />
<polygon fill="#daa888" fill-opacity="0.501961" points="213,111 189,95 226,96" />
<polygon fill="#dbb08f" fill-opacity="0.501961" points="121,116 108,105 100,109" />
<polygon fill="#ffe271" fill-opacity="0.501961" points="19,179 -16,198 1,197" />
<polygon fill="#fffff9" fill-opacity="0.501961" points="84,53 74,54 94,60" />
<polygon fill="#27251d" fill-opacity="0.501961" points="28,122 8,114 29,131" />
<polygon fill="#f5fffd" fill-opacity="0.501961" points="100,65 105,54 114,56" />
<polygon fill="#494732" fill-opacity="0.501961" points="42,106 63,82 16,91" />
<polygon fill="#9b8177" fill-opacity="0.501961" points="94,74 49,93 94,87" />
<polygon fill="#5499ef" fill-opacity="0.501961" points="144,46 139,58 130,37" />
<polygon fill="#5a93e0" fill-opacity="0.501961" points="97,60 95,41 136,38" />
<polygon fill="#dfb594" fill-opacity="0.501961" points="32,94 31,89 36,89" />
<polygon fill="#3866ae" fill-opacity="0.501961" points="167,14 115,2 128,17" />
<polygon fill="#7e6953" fill-opacity="0.501961" points="213,76 195,78 226,85" />
<polygon fill="#f2caa9" fill-opacity="0.501961" points="165,133 213,145 191,148" />
<polygon fill="#936561" fill-opacity="0.501961" points="27,176 7,191 8,201" />
<polygon fill="#9aadda" fill-opacity="0.501961" points="130,7 119,-3 147,-16" />
<polygon fill="#b78a70" fill-opacity="0.501961" points="162,39 140,106 142,52" />
<polygon fill="#5792e2" fill-opacity="0.501961" points="130,41 165,41 182,25" />
<polygon fill="#694b46" fill-opacity="0.501961" points="9,167 26,131 -16,133" />
<polygon fill="#504a31" fill-opacity="0.501961" points="190,125 184,99 176,107" />
<polygon fill="#2c2c19" fill-opacity="0.501961" points="13,83 22,116 36,117" />
<polygon fill="#dfb370" fill-opacity="0.501961" points="45,172 50,152 13,192" />
<polygon fill="#0d0e0d" fill-opacity="0.501961" points="36,129 -16,108 -3,128" />
<polygon fill="#976b60" fill-opacity="0.501961" points="104,159 112,103 63,203" />
<polygon fill="#fbddbe" fill-opacity="0.501961" points="66,58 62,51 46,58" />
<polygon fill="#c9cee4" fill-opacity="0.501961" points="175,5 169,14 186,8" />
<polygon fill="#4c8ade" fill-opacity="0.501961" points="266,41 242,9 239,20" />
<polygon fill="#382e23" fill-opacity="0.501961" points="257,121 271,123 243,104" />
<polygon fill="#807963" fill-opacity="0.501961" points="22,120 29,116 9,109" />
<polygon fill="#e2b7a0" fill-opacity="0.501961" points="105,92 93,91 104,61" />
<polygon fill="#d7e0f6" fill-opacity="0.501961" points="230,11 216,16 224,5" />
<polygon fill="#be8b6f" fill-opacity="0.501961" points="214,104 186,105 186,82" />
<polygon fill="#c2976a" fill-opacity="0.501961" points="26,175 66,141 50,166" />
<polygon fill="#f2caa9" fill-opacity="0.501961" points="215,154 265,176 231,174" />
<polygon fill="#eac0a0" fill-opacity="0.501961" points="156,42 161,52 177,58" />
<polygon fill="#361a06" fill-opacity="0.501961" points="243,165 252,168 243,162" />
<polygon fill="#614742" fill-opacity="0.501961" points="81,119 34,146 15,134" />
<polygon fill="#dbc4ae" fill-opacity="0.501961" points="240,138 223,128 228,125" />
<polygon fill="#69684c" fill-opacity="0.501961" points="251,142 254,134 241,142" />
<polygon fill="#774a33" fill-opacity="0.501961" points="225,157 225,145 241,164" />
<polygon fill="#ffc8a3" fill-opacity="0.501961" points="217,147 225,155 223,149" />
<polygon fill="#3f3d28" fill-opacity="0.501961" points="253,120 243,122 247,119" />
<polygon fill="#9c6855" fill-opacity="0.501961" points="200,45 189,41 209,42" />
<polygon fill="#8e765b" fill-opacity="0.501961" points="236,123 228,102 236,105" />
<polygon fill="#fbfbff" fill-opacity="0.501961" points="118,7 103,12 110,5" />
<polygon fill="#e8bd75" fill-opacity="0.501961" points="79,132 56,143 44,167" />
<polygon fill="#a0725e" fill-opacity="0.501961" points="139,63 164,56 132,75" />
<polygon fill="#a7816a" fill-opacity="0.501961" points="163,44 178,46 187,61" />
<polygon fill="#fecca7" fill-opacity="0.501961" points="168,131 198,131 181,126" />
<polygon fill="#a67864" fill-opacity="0.501961" points="243,66 229,60 229,26" />
<polygon fill="#663b25" fill-opacity="0.501961" points="200,139 201,142 210,143" />
<polygon fill="#d5af94" fill-opacity="0.501961" points="233,91 229,72 225,77" />
<polygon fill="#ab7e71" fill-opacity="0.501961" points="204,200 195,160 129,118" />
<polygon fill="#e9c3a9" fill-opacity="0.501961" points="195,40 213,37 208,32" />
<polygon fill="#ffe6cc" fill-opacity="0.501961" points="120,49 132,53 110,58" />
<polygon fill="#7e5d4c" fill-opacity="0.501961" points="246,46 269,28 262,47" />
<polygon fill="#897261" fill-opacity="0.501961" points="222,62 221,77 229,84" />
<polygon fill="#fbd3aa" fill-opacity="0.501961" points="240,104 229,103 221,95" />
<polygon fill="#8e725b" fill-opacity="0.501961" points="172,78 173,85 195,79" />
<polygon fill="#574d3a" fill-opacity="0.501961" points="236,108 229,102 230,108" />
<polygon fill="#6aacfa" fill-opacity="0.501961" points="23,65 -16,59 39,52" />
<polygon fill="#e0d1bb" fill-opacity="0.501961" points="171,38 184,41 155,46" />
<polygon fill="#685d43" fill-opacity="0.501961" points="185,126 190,99 179,102" />
<polygon fill="#67563c" fill-opacity="0.501961" points="160,104 155,110 157,111" />
<polygon fill="#d0a086" fill-opacity="0.501961" points="251,73 271,65 226,67" />
<polygon fill="#486cab" fill-opacity="0.501961" points="187,17 185,3 195,-2" />
<polygon fill="#9c944e" fill-opacity="0.501961" points="5,96 10,96 9,91" />
<polygon fill="#926c61" fill-opacity="0.501961" points="7,206 61,155 30,206" />
<polygon fill="#a57a64" fill-opacity="0.501961" points="195,98 193,67 205,64" />
<polygon fill="#71614a" fill-opacity="0.501961" points="212,92 200,96 220,96" />
<polygon fill="#403827" fill-opacity="0.501961" points="112,102 134,112 135,99" />
<polygon fill="#8d7774" fill-opacity="0.501961" points="95,78 91,78 93,63" />
<polygon fill="#e2b18d" fill-opacity="0.501961" points="12,67 18,66 19,75" />
</g>
</svg>