<svg xmlns="http://www.w3.org/2000/svg" version="1.1" width="1024" height="768">
<rect x="0" y="0" width="1024" height="768" fill="#775c4c" />
<g transform="scale(4.000000) translate(0.5 0.5)">
<polygon fill="#baffff" fill-opacity="0.501961" points="268,1 132,29 -1,-16" />
<polygon fill="#ffedb1" fill-opacity="0.501961" points="184,134 107,207 271,120" />
<polygon fill="#c1f3ff" fill-opacity="0.501961" points="-16,7 147,16 52,-16" />
<polygon fill="#2c1111" fill-opacity="0.501961" points="11,14 -16,131 119,101" />
<polygon fill="#120600" fill-opacity="0.501961" points="255,207 271,141 151,188" />
<polygon fill="#421e0c" fill-opacity="0.501961" points="121,169 248,76 104,74" />
<polygon fill="#b5dbff" fill-opacity="0.501961" points="271,23 103,7 239,-16" />
<polygon fill="#33323a" fill-opacity="0.501961" points="203,16 -16,18 98,48" />
<polygon fill="#1c0000" fill-opacity="0.501961" points="56,203 -16,187 72,166" />
<polygon fill="#ce9c70" fill-opacity="0.501961" points="253,148 271,76 186,142" />
<polygon fill="#cc8157" fill-opacity="0.501961" points="107,67 99,128 35,174" />
<polygon fill="#ffde54" fill-opacity="0.501961" points="182,207 242,194 205,180" />
<polygon fill="#000000" fill-opacity="0.501961" points="165,151 182,132 154,105" />
<polygon fill="#ffca96" fill-opacity="0.501961" points="81,174 106,207 63,178" />
<polygon fill="#bb7f64" fill-opacity="0.501961" points="268,33 111,24 150,62" />
<polygon fill="#572612" fill-opacity="0.501961" points="223,95 169,137 211,131" />
<polygon fill="#c07d59" fill-opacity="0.501961" points="152,93 192,136 194,100" />
<polygon fill="#241700" fill-opacity="0.501961" points="228,181 200,182 226,132" />
<polygon fill="#e4af8e" fill-opacity="0.501961" points="28,150 29,134 -14,124" />
<polygon fill="#fbd6a4" fill-opacity="0.501961" points="134,174 126,207 160,184" />
<polygon fill="#af6e4d" fill-opacity="0.501961" points="152,92 164,166 132,98" />
<polygon fill="#2c1c1f" fill-opacity="0.501961" points="-16,107 29,66 43,144" />
<polygon fill="#bbcad9" fill-opacity="0.501961" points="25,-8 74,-16 46,26" />
<polygon fill="#a76744" fill-opacity="0.501961" points="36,152 155,207 53,99" />
<polygon fill="#d18e66" fill-opacity="0.501961" points="223,54 204,62 249,99" />
<polygon fill="#da9e71" fill-opacity="0.501961" points="85,45 103,72 100,107" />
<polygon fill="#3a1a15" fill-opacity="0.501961" points="13,102 113,110 74,81" />
<polygon fill="#6c3930" fill-opacity="0.501961" points="165,41 185,66 261,40" />
<polygon fill="#acd9ff" fill-opacity="0.501961" points="74,1 14,-10 -16,12" />
<polygon fill="#383a39" fill-opacity="0.501961" points="93,14 183,24 80,42" />
<polygon fill="#180e05" fill-opacity="0.501961" points="151,142 133,112 139,171" />
<polygon fill="#e0ba96" fill-opacity="0.501961" points="89,45 46,51 67,39" />
<polygon fill="#2a484e" fill-opacity="0.501961" points="240,13 190,26 270,33" />
<polygon fill="#1d1118" fill-opacity="0.501961" points="124,67 130,49 107,17" />
<polygon fill="#160900" fill-opacity="0.501961" points="243,207 216,160 271,163" />
<polygon fill="#663b2a" fill-opacity="0.501961" points="-3,137 78,165 25,189" />
<polygon fill="#ab9b70" fill-opacity="0.501961" points="245,122 211,160 265,142" />
<polygon fill="#775542" fill-opacity="0.501961" points="38,77 -16,45 93,51" />
<polygon fill="#d18a62" fill-opacity="0.501961" points="189,58 168,69 226,75" />
<polygon fill="#391e11" fill-opacity="0.501961" points="75,128 88,170 70,157" />
<polygon fill="#a7bcdc" fill-opacity="0.501961" points="118,-16 62,11 229,22" />
<polygon fill="#080000" fill-opacity="0.501961" points="98,144 104,124 111,140" />
<polygon fill="#dea37d" fill-opacity="0.501961" points="41,195 48,175 41,158" />
<polygon fill="#bcd3ed" fill-opacity="0.501961" points="262,13 271,-14 177,12" />
<polygon fill="#2c2f36" fill-opacity="0.501961" points="-16,24 90,34 -15,52" />
<polygon fill="#1d1815" fill-opacity="0.501961" points="126,71 127,89 190,90" />
<polygon fill="#d78055" fill-opacity="0.501961" points="-16,129 9,181 12,157" />
<polygon fill="#d07c55" fill-opacity="0.501961" points="134,101 125,146 123,118" />
<polygon fill="#20211b" fill-opacity="0.501961" points="170,104 176,79 231,79" />
<polygon fill="#2c1f02" fill-opacity="0.501961" points="184,176 203,161 162,177" />
<polygon fill="#d99771" fill-opacity="0.501961" points="98,107 98,132 63,116" />
<polygon fill="#443833" fill-opacity="0.501961" points="16,7 22,18 49,12" />
<polygon fill="#000000" fill-opacity="0.501961" points="30,167 42,179 29,207" />
<polygon fill="#b68667" fill-opacity="0.501961" points="34,159 22,196 19,160" />
<polygon fill="#000000" fill-opacity="0.501961" points="29,207 16,155 15,190" />
<polygon fill="#d4a886" fill-opacity="0.501961" points="172,25 226,32 189,38" />
<polygon fill="#381a11" fill-opacity="0.501961" points="128,92 104,93 120,153" />
<polygon fill="#000000" fill-opacity="0.501961" points="161,141 173,129 154,116" />
<polygon fill="#e0c499" fill-opacity="0.501961" points="204,161 146,172 215,127" />
<polygon fill="#d7946b" fill-opacity="0.501961" points="266,113 228,111 219,91" />
<polygon fill="#995a40" fill-opacity="0.501961" points="71,88 61,54 59,100" />
<polygon fill="#686d74" fill-opacity="0.501961" points="124,13 61,14 97,31" />
<polygon fill="#201c22" fill-opacity="0.501961" points="99,52 74,30 122,40" />
<polygon fill="#dda783" fill-opacity="0.501961" points="268,32 264,45 218,32" />
<polygon fill="#aa8875" fill-opacity="0.501961" points="28,122 43,113 50,126" />
<polygon fill="#c89668" fill-opacity="0.501961" points="163,147 150,122 159,163" />
<polygon fill="#ae6a4a" fill-opacity="0.501961" points="188,131 208,88 168,125" />
<polygon fill="#140300" fill-opacity="0.501961" points="7,161 -11,207 4,194" />
<polygon fill="#59291b" fill-opacity="0.501961" points="195,99 260,118 207,117" />
<polygon fill="#96593d" fill-opacity="0.501961" points="155,106 131,155 149,138" />
<polygon fill="#a35d41" fill-opacity="0.501961" points="112,42 118,104 126,74" />
<polygon fill="#b87a5a" fill-opacity="0.501961" points="246,79 235,43 264,66" />
<polygon fill="#5b3920" fill-opacity="0.501961" points="170,149 149,170 148,152" />
<polygon fill="#b7774e" fill-opacity="0.501961" points="117,198 113,142 81,162" />
<polygon fill="#d09873" fill-opacity="0.501961" points="61,207 80,166 103,207" />
<polygon fill="#2c0d09" fill-opacity="0.501961" points="100,106 103,120 122,81" />
<polygon fill="#453632" fill-opacity="0.501961" points="61,9 50,9 70,22" />
<polygon fill="#bbb5aa" fill-opacity="0.501961" points="-1,5 12,9 9,26" />
<polygon fill="#c6ad86" fill-opacity="0.501961" points="234,152 271,127 227,122" />
<polygon fill="#5f4a2f" fill-opacity="0.501961" points="257,115 245,132 234,132" />
<polygon fill="#90654b" fill-opacity="0.501961" points="176,84 138,94 149,112" />
<polygon fill="#ee956c" fill-opacity="0.501961" points="58,125 63,110 53,110" />
<polygon fill="#95794f" fill-opacity="0.501961" points="167,168 152,192 180,174" />
<polygon fill="#271718" fill-opacity="0.501961" points="13,129 57,102 -1,119" />
<polygon fill="#57412d" fill-opacity="0.501961" points="189,146 239,93 219,81" />
<polygon fill="#341407" fill-opacity="0.501961" points="88,134 97,145 89,119" />
<polygon fill="#4b261e" fill-opacity="0.501961" points="175,132 165,112 172,86" />
<polygon fill="#1f111a" fill-opacity="0.501961" points="224,55 231,39 217,42" />
<polygon fill="#38130f" fill-opacity="0.501961" points="191,133 198,100 204,131" />
<polygon fill="#4a241b" fill-opacity="0.501961" points="85,52 62,81 97,110" />
<polygon fill="#363225" fill-opacity="0.501961" points="229,76 233,61 249,71" />
<polygon fill="#000000" fill-opacity="0.501961" points="225,140 213,152 224,146" />
<polygon fill="#707e90" fill-opacity="0.501961" points="188,21 215,13 244,21" />
<polygon fill="#d9c29c" fill-opacity="0.501961" points="230,135 258,116 200,134" />
<polygon fill="#e9cca3" fill-opacity="0.501961" points="174,153 142,174 135,207" />
<polygon fill="#f4a97f" fill-opacity="0.501961" points="271,123 244,87 271,91" />
<polygon fill="#0e090a" fill-opacity="0.501961" points="77,207 48,207 50,167" />
<polygon fill="#c79474" fill-opacity="0.501961" points="137,27 140,45 160,40" />
<polygon fill="#32180a" fill-opacity="0.501961" points="128,152 132,115 150,114" />
<polygon fill="#3b161b" fill-opacity="0.501961" points="263,29 243,63 262,51" />
<polygon fill="#caaa6d" fill-opacity="0.501961" points="197,173 187,172 207,162" />
<polygon fill="#c19779" fill-opacity="0.501961" points="114,23 130,32 134,45" />
<polygon fill="#241b17" fill-opacity="0.501961" points="187,72 128,80 147,93" />
<polygon fill="#e6a870" fill-opacity="0.501961" points="40,20 53,9 50,25" />
<polygon fill="#bc805b" fill-opacity="0.501961" points="216,91 228,96 228,118" />
<polygon fill="#ab866b" fill-opacity="0.501961" points="70,54 96,51 77,41" />
<polygon fill="#492a0b" fill-opacity="0.501961" points="92,177 90,205 103,188" />
<polygon fill="#cca646" fill-opacity="0.501961" points="255,207 216,207 220,182" />
<polygon fill="#4e3d22" fill-opacity="0.501961" points="256,149 240,149 258,139" />
<polygon fill="#8b4c38" fill-opacity="0.501961" points="169,75 102,76 140,52" />
<polygon fill="#bb7759" fill-opacity="0.501961" points="197,57 186,77 188,38" />
<polygon fill="#a2865a" fill-opacity="0.501961" points="205,165 224,149 194,156" />
<polygon fill="#531b0d" fill-opacity="0.501961" points="100,159 91,166 102,170" />
<polygon fill="#372107" fill-opacity="0.501961" points="206,181 168,201 222,151" />
<polygon fill="#4a231c" fill-opacity="0.501961" points="80,69 59,100 64,127" />
<polygon fill="#f6c493" fill-opacity="0.501961" points="174,147 182,152 172,136" />
<polygon fill="#000000" fill-opacity="0.501961" points="151,145 139,163 143,138" />
<polygon fill="#b3805f" fill-opacity="0.501961" points="86,131 38,140 49,156" />
<polygon fill="#d9c095" fill-opacity="0.501961" points="205,133 185,133 169,151" />
<polygon fill="#492a28" fill-opacity="0.501961" points="209,64 197,51 195,70" />
<polygon fill="#dba279" fill-opacity="0.501961" points="5,207 8,180 11,199" />
<polygon fill="#0a000b" fill-opacity="0.501961" points="186,39 183,43 189,50" />
<polygon fill="#341712" fill-opacity="0.501961" points="13,149 35,153 14,161" />
<polygon fill="#dd9466" fill-opacity="0.501961" points="107,121 113,149 116,136" />
<polygon fill="#cb8761" fill-opacity="0.501961" points="205,129 201,111 208,120" />
<polygon fill="#bb8267" fill-opacity="0.501961" points="143,59 167,50 182,64" />
<polygon fill="#bd9d7a" fill-opacity="0.501961" points="57,43 50,53 47,43" />
<polygon fill="#a9c4db" fill-opacity="0.501961" points="28,5 159,-16 129,16" />
<polygon fill="#be694c" fill-opacity="0.501961" points="109,111 114,107 118,121" />
<polygon fill="#efb086" fill-opacity="0.501961" points="-16,156 -15,122 8,165" />
<polygon fill="#cd9367" fill-opacity="0.501961" points="165,152 164,142 151,159" />
<polygon fill="#020104" fill-opacity="0.501961" points="168,143 150,122 171,131" />
<polygon fill="#594734" fill-opacity="0.501961" points="187,117 168,58 164,87" />
<polygon fill="#2b1708" fill-opacity="0.501961" points="130,165 137,131 120,161" />
<polygon fill="#271a16" fill-opacity="0.501961" points="204,120 217,112 210,74" />
<polygon fill="#a26c4b" fill-opacity="0.501961" points="205,101 225,111 204,92" />
<polygon fill="#482214" fill-opacity="0.501961" points="258,88 243,89 271,59" />
<polygon fill="#d3926e" fill-opacity="0.501961" points="103,132 93,126 99,94" />
<polygon fill="#74462c" fill-opacity="0.501961" points="106,150 109,175 134,181" />
<polygon fill="#d38e65" fill-opacity="0.501961" points="25,149 48,147 46,139" />
<polygon fill="#7f6956" fill-opacity="0.501961" points="36,48 -2,43 29,57" />
<polygon fill="#33201e" fill-opacity="0.501961" points="60,90 46,54 41,117" />
<polygon fill="#311a00" fill-opacity="0.501961" points="193,191 189,168 139,204" />
<polygon fill="#e0a077" fill-opacity="0.501961" points="79,132 84,128 92,151" />
<polygon fill="#7e503b" fill-opacity="0.501961" points="127,87 133,105 164,97" />
<polygon fill="#2c1614" fill-opacity="0.501961" points="124,104 131,82 124,60" />
<polygon fill="#000000" fill-opacity="0.501961" points="227,134 219,148 226,142" />
<polygon fill="#200d0f" fill-opacity="0.501961" points="28,131 43,126 35,141" />
<polygon fill="#dcab88" fill-opacity="0.501961" points="32,159 26,166 24,157" />
<polygon fill="#be9983" fill-opacity="0.501961" points="25,146 -12,131 28,131" />
<polygon fill="#c6844f" fill-opacity="0.501961" points="134,153 137,170 128,177" />
<polygon fill="#d1b589" fill-opacity="0.501961" points="262,112 258,132 220,153" />
<polygon fill="#717e95" fill-opacity="0.501961" points="271,12 243,23 212,16" />
<polygon fill="#49241c" fill-opacity="0.501961" points="97,70 107,63 96,57" />
<polygon fill="#c88c67" fill-opacity="0.501961" points="114,202 118,157 103,198" />
<polygon fill="#d79d75" fill-opacity="0.501961" points="228,75 198,70 231,64" />
<polygon fill="#00110a" fill-opacity="0.501961" points="194,93 186,98 202,96" />
<polygon fill="#d5a982" fill-opacity="0.501961" points="91,68 91,77 111,75" />
<polygon fill="#9a8254" fill-opacity="0.501961" points="271,149 271,137 234,161" />
<polygon fill="#b57759" fill-opacity="0.501961" points="130,75 128,57 145,71" />
<polygon fill="#7b4e3d" fill-opacity="0.501961" points="70,109 82,115 83,126" />
<polygon fill="#56433e" fill-opacity="0.501961" points="60,34 33,15 -10,33" />
<polygon fill="#be835e" fill-opacity="0.501961" points="185,116 197,121 195,96" />
<polygon fill="#293123" fill-opacity="0.501961" points="209,30 194,23 229,26" />
<polygon fill="#d69d76" fill-opacity="0.501961" points="68,118 67,127 97,116" />
<polygon fill="#a66c4c" fill-opacity="0.501961" points="84,67 80,53 79,83" />
<polygon fill="#8a6850" fill-opacity="0.501961" points="245,82 213,86 249,71" />
<polygon fill="#331c1c" fill-opacity="0.501961" points="114,66 111,93 119,75" />
<polygon fill="#522922" fill-opacity="0.501961" points="162,37 171,51 165,51" />
<polygon fill="#8d7058" fill-opacity="0.501961" points="97,31 80,22 116,25" />
<polygon fill="#d6a17d" fill-opacity="0.501961" points="69,170 76,191 92,186" />
<polygon fill="#2d3223" fill-opacity="0.501961" points="97,25 116,22 90,19" />
<polygon fill="#93786d" fill-opacity="0.501961" points="32,122 31,115 25,117" />
<polygon fill="#85361c" fill-opacity="0.501961" points="24,143 9,142 4,162" />
<polygon fill="#1b1105" fill-opacity="0.501961" points="122,145 115,130 117,156" />
<polygon fill="#130d01" fill-opacity="0.501961" points="271,153 260,144 243,152" />
<polygon fill="#e1a072" fill-opacity="0.501961" points="105,119 108,131 112,126" />
<polygon fill="#644a38" fill-opacity="0.501961" points="76,179 80,163 64,142" />
<polygon fill="#673b2d" fill-opacity="0.501961" points="-5,123 -16,96 15,136" />
<polygon fill="#452e29" fill-opacity="0.501961" points="17,47 57,126 3,77" />
<polygon fill="#ad7b5d" fill-opacity="0.501961" points="164,104 169,90 149,95" />
<polygon fill="#ebad82" fill-opacity="0.501961" points="259,114 251,103 232,100" />
<polygon fill="#e59969" fill-opacity="0.501961" points="226,123 229,107 217,120" />
<polygon fill="#b08364" fill-opacity="0.501961" points="29,69 35,73 30,52" />
<polygon fill="#c58e6a" fill-opacity="0.501961" points="205,43 203,54 194,41" />
<polygon fill="#ddc6a0" fill-opacity="0.501961" points="219,130 202,135 223,143" />
<polygon fill="#000000" fill-opacity="0.501961" points="71,128 74,128 74,124" />
<polygon fill="#f2be82" fill-opacity="0.501961" points="146,155 147,159 142,162" />
<polygon fill="#d5885c" fill-opacity="0.501961" points="108,51 109,67 103,55" />
<polygon fill="#b88b6f" fill-opacity="0.501961" points="183,28 150,33 149,50" />
<polygon fill="#b27955" fill-opacity="0.501961" points="123,86 116,84 124,74" />
<polygon fill="#ae785d" fill-opacity="0.501961" points="19,185 27,189 25,167" />
<polygon fill="#1b0d0a" fill-opacity="0.501961" points="142,132 131,132 134,101" />
<polygon fill="#2d0c03" fill-opacity="0.501961" points="127,178 134,172 127,187" />
<polygon fill="#cb956b" fill-opacity="0.501961" points="128,123 126,135 132,142" />
<polygon fill="#363a29" fill-opacity="0.501961" points="271,33 271,18 217,29" />
<polygon fill="#956647" fill-opacity="0.501961" points="181,71 186,89 187,74" />
<polygon fill="#fec18f" fill-opacity="0.501961" points="102,172 108,174 106,164" />
<polygon fill="#bc7a5b" fill-opacity="0.501961" points="203,63 191,55 185,73" />
<polygon fill="#574835" fill-opacity="0.501961" points="228,96 235,67 212,109" />
</g>
</svg>